<?xml version="1.0" encoding="UTF-8" standalone="no"?>
<!-- Created with Inkscape (http://www.inkscape.org/) -->

<svg
   width="210mm"
   height="297mm"
   viewBox="0 0 210 297"
   version="1.1"
   id="svg1"
   inkscape:version="1.4.2 (f4327f4, 2025-05-13)"
   sodipodi:docname="fbide-icon-install.svg"
   xmlns:inkscape="http://www.inkscape.org/namespaces/inkscape"
   xmlns:sodipodi="http://sodipodi.sourceforge.net/DTD/sodipodi-0.dtd"
   xmlns:xlink="http://www.w3.org/1999/xlink"
   xmlns="http://www.w3.org/2000/svg"
   xmlns:svg="http://www.w3.org/2000/svg">
  <sodipodi:namedview
     id="namedview1"
     pagecolor="#ffffff"
     bordercolor="#000000"
     borderopacity="0.25"
     inkscape:showpageshadow="2"
     inkscape:pageopacity="0.0"
     inkscape:pagecheckerboard="0"
     inkscape:deskcolor="#d1d1d1"
     inkscape:document-units="mm"
     inkscape:zoom="0.66903058"
     inkscape:cx="396.84285"
     inkscape:cy="561.25985"
     inkscape:current-layer="layer1"
     inkscape:window-width="2560"
     inkscape:window-height="1369"
     inkscape:window-x="-8"
     inkscape:window-y="-8"
     inkscape:window-maximized="1" />
  <defs
     id="defs1">
    <linearGradient
       inkscape:collect="always"
       xlink:href="#linearGradient34"
       id="linearGradient255"
       gradientUnits="userSpaceOnUse"
       gradientTransform="translate(113.90312,-38.629165)"
       x1="-294.05032"
       y1="553.73322"
       x2="-285.23282"
       y2="551.45117" />
    <linearGradient
       id="linearGradient34"
       inkscape:collect="always">
      <stop
         style="stop-color:#97a5e4;stop-opacity:1;"
         offset="0"
         id="stop33" />
      <stop
         style="stop-color:#383e50;stop-opacity:1;"
         offset="1"
         id="stop34" />
    </linearGradient>
    <clipPath
       clipPathUnits="userSpaceOnUse"
       id="clipPath68">
      <path
         style="fill:#666666;stroke:none;stroke-width:0.3;stroke-linecap:round;stroke-dasharray:none;stroke-opacity:1"
         d="m -293.86842,556.44058 v -9.00002 l 9.33013,-2.49999 v 8.99999 z"
         id="path71"
         sodipodi:nodetypes="ccccc" />
    </clipPath>
    <filter
       inkscape:collect="always"
       style="color-interpolation-filters:sRGB"
       id="filter60"
       x="-0.14744621"
       y="-0.27513859"
       width="1.2948924"
       height="1.5502772">
      <feGaussianBlur
         inkscape:collect="always"
         stdDeviation="0.6878476"
         id="feGaussianBlur60" />
    </filter>
    <linearGradient
       inkscape:collect="always"
       xlink:href="#linearGradient34"
       id="linearGradient254"
       gradientUnits="userSpaceOnUse"
       gradientTransform="translate(113.90312,-38.629165)"
       x1="-293.17743"
       y1="547.60663"
       x2="-283.32025"
       y2="548.04889" />
    <clipPath
       clipPathUnits="userSpaceOnUse"
       id="clipath_lpe_path-effect251">
      <path
         id="path251"
         style="display:none;opacity:1;fill:#666666;stroke:none;stroke-width:0.3;stroke-linecap:round;stroke-dasharray:none;stroke-opacity:1"
         d="m -303.19856,547.58622 v 8.99996 l 9.33019,2.5001 9.33019,-2.5001 v -8.99996 l -0.24599,0.0661 v 2.80914 h -4.55993 v -1.5875 l -4.52427,1.21232 z" />
      <path
         id="lpe_path-effect251"
         style="display:block;opacity:1;fill:#666666;stroke:none;stroke-width:0.3;stroke-linecap:round;stroke-dasharray:none;stroke-opacity:1"
         class="powerclip"
         d="m -307.07217,527.88834 h 27.09722 v 30.34916 h -27.09722 z m 3.87361,19.69788 v 8.99996 l 9.33019,2.5001 9.33019,-2.5001 v -8.99996 l -0.24599,0.0661 v 2.80914 h -4.55993 v -1.5875 l -4.52427,1.21232 z" />
    </clipPath>
    <inkscape:path-effect
       effect="powerclip"
       id="path-effect251"
       is_visible="true"
       lpeversion="1"
       inverse="true"
       flatten="false"
       hide_clip="false"
       message="" />
    <filter
       inkscape:collect="always"
       style="color-interpolation-filters:sRGB"
       id="filter42"
       x="-0.015857741"
       y="-0.0133904"
       width="1.0317155"
       height="1.0267808">
      <feGaussianBlur
         inkscape:collect="always"
         stdDeviation="0.10949535"
         id="feGaussianBlur42" />
    </filter>
    <linearGradient
       inkscape:collect="always"
       xlink:href="#linearGradient34"
       id="linearGradient253"
       gradientUnits="userSpaceOnUse"
       gradientTransform="translate(113.90312,-38.629165)"
       x1="-295.1427"
       y1="553.1828"
       x2="-302.82306"
       y2="551.34015" />
    <clipPath
       clipPathUnits="userSpaceOnUse"
       id="clipPath67">
      <path
         style="fill:#999999;stroke:none;stroke-width:0.3;stroke-linecap:round;stroke-dasharray:none;stroke-opacity:1"
         d="m -293.86842,556.44058 v -9.00002 l -9.33014,-2.49999 v 8.99999 z"
         id="path67"
         sodipodi:nodetypes="ccccc" />
    </clipPath>
    <filter
       inkscape:collect="always"
       style="color-interpolation-filters:sRGB"
       id="filter59"
       x="-0.14744635"
       y="-0.27513811"
       width="1.2948927"
       height="1.5502762">
      <feGaussianBlur
         inkscape:collect="always"
         stdDeviation="0.6878464"
         id="feGaussianBlur59" />
    </filter>
    <linearGradient
       inkscape:collect="always"
       xlink:href="#linearGradient34"
       id="linearGradient252"
       gradientUnits="userSpaceOnUse"
       gradientTransform="translate(113.90312,-38.629165)"
       x1="-294.4704"
       y1="547.84381"
       x2="-304.38907"
       y2="548.1424" />
  </defs>
  <g
     inkscape:label="Layer 1"
     inkscape:groupmode="layer"
     id="layer1">
    <g
       id="g285"
       transform="matrix(8.7137945,0,0,8.7137945,1673.1806,-4249.4599)"
       inkscape:label="install">
      <path
         style="fill:#999999;stroke:none;stroke-width:0.3;stroke-linecap:round;stroke-dasharray:none;stroke-opacity:1"
         d="m -179.9653,517.81141 v -9.00001 l -9.33013,-2.5 v 9 z"
         id="path182"
         sodipodi:nodetypes="ccccc" />
      <path
         style="fill:url(#linearGradient255);stroke:none;stroke-width:0.3;stroke-linecap:round;stroke-dasharray:none;stroke-opacity:1"
         d="m -179.9653,517.81141 v -9.00001 l 9.33013,-2.5 v 9 z"
         id="path189"
         sodipodi:nodetypes="ccccc" />
      <path
         style="fill:#000000;fill-opacity:1;stroke:none;stroke-width:0.3;stroke-linecap:round;stroke-dasharray:none;stroke-opacity:1;filter:url(#filter60)"
         d="m -285.59667,545.46973 1.86605,3.50001 -9.33013,2.5 -1.86605,-3.50001 z"
         id="path190"
         sodipodi:nodetypes="ccccc"
         clip-path="url(#clipPath68)"
         transform="translate(113.90312,-38.629165)" />
      <path
         style="fill:url(#linearGradient254);fill-opacity:1;stroke:none;stroke-width:0.3;stroke-linecap:round;stroke-dasharray:none;stroke-opacity:1"
         d="m -170.6352,506.3114 1.86605,3.50001 -9.33013,2.5 -1.86605,-3.50001 z"
         id="path191"
         sodipodi:nodetypes="ccccc" />
      <path
         id="path192"
         style="fill:#666666;stroke:none;stroke-width:0.1;stroke-linecap:round;stroke-dasharray:none;stroke-opacity:1"
         d="m -179.96524,503.81163 -9.33018,2.49959 9.33018,2.50011 9.33018,-2.50011 z" />
      <g
         id="g211"
         clip-path="url(#clipath_lpe_path-effect251)"
         transform="translate(113.90312,-41.275)"
         inkscape:path-effect="#path-effect251">
        <path
           id="path196"
           style="mix-blend-mode:normal;fill:#000000;stroke-width:0.149182;filter:url(#filter42)"
           d="m -288.84458,533.35079 v 3e-4 c -0.2472,0.0181 -0.69944,0.27208 -1.65323,0.72486 -0.39615,0.18807 -0.70174,0.31228 -0.93833,0.41023 l 0.0176,-0.0543 c -0.006,0.007 -0.0216,0.0291 -0.027,0.0349 -0.0138,0.0148 -0.0289,0.0275 -0.0431,0.0417 -0.19191,0.08 -0.341,0.14517 -0.44014,0.21201 l -0.2252,0.16332 c -0.0913,0.0162 -0.17863,0.0178 -0.25686,-0.001 -0.16909,-0.0406 -0.27667,-0.18996 -0.23576,-0.32754 0.0465,-0.15619 0.19304,-0.27916 0.41785,-0.35041 l 0.14779,-0.0469 -0.10087,-0.017 c -0.0503,-0.009 -0.11226,-0.0139 -0.18005,-0.0164 h -2.9e-4 c -0.20368,-0.008 -0.45835,0.0106 -0.5976,0.0478 -0.58062,0.15514 -1.01815,0.5296 -1.32393,1.13303 -0.0564,0.11116 -0.23436,0.55355 -0.22608,0.56183 0.003,0.002 0.0817,-0.0359 0.17564,-0.0853 0.29103,-0.15328 0.89015,-0.32116 1.03569,-0.29029 0.0238,0.005 -0.0431,0.0609 -0.20174,0.16919 -0.40798,0.27842 -0.87575,0.63315 -1.7975,1.36293 -0.1881,0.14892 -0.42054,0.32369 -0.51637,0.38823 -0.48749,0.32809 -0.98329,0.48064 -1.28083,0.3941 -0.22962,-0.0667 -0.36632,-0.19883 -0.4287,-0.41345 -0.0424,-0.1462 -0.0274,-0.42623 0.0334,-0.6193 0.0877,-0.27807 0.29161,-0.63427 0.52868,-0.92367 0.11158,-0.1362 0.60319,-0.62255 0.62986,-0.62312 0.0175,-3.5e-4 0.156,-0.13449 0.156,-0.15101 0,-0.0222 -0.44044,0.18112 -0.49145,0.22696 -0.02,0.018 -0.0507,0.0347 -0.0686,0.0375 -0.0178,0.002 -0.0399,0.0167 -0.0493,0.0314 -0.009,0.0145 -0.0171,0.0186 -0.0173,0.008 -2.3e-4,-0.01 -0.0159,-0.004 -0.0355,0.0138 -0.0195,0.0176 -0.0803,0.0512 -0.13518,0.0748 -0.12537,0.0537 -0.5533,0.33887 -0.77999,0.5196 -0.26899,0.21446 -0.67682,0.62386 -0.84802,0.85125 -0.50985,0.67713 -0.75872,1.3225 -0.89024,2.3083 -0.0599,0.44913 -0.12039,0.77537 -0.19236,1.03891 -0.0358,0.1307 -0.059,0.23781 -0.0507,0.23781 0.008,0 0.0719,-0.0751 0.14251,-0.16685 0.30329,-0.39413 0.70128,-0.74843 1.08026,-0.96179 0.39932,-0.22483 0.74152,-0.32798 1.42098,-0.42753 0.37044,-0.0543 0.61304,-0.10297 0.82573,-0.16597 -0.0658,0.13142 -0.12835,0.26365 -0.18502,0.39703 -0.0647,0.0308 -0.12897,0.0644 -0.1909,0.0912 -0.92349,0.39943 -1.40039,0.70515 -1.88135,1.20605 -0.24723,0.25746 -0.44117,0.51999 -0.59145,0.80052 -0.0756,0.14113 -0.21728,0.48358 -0.21728,0.52517 0,0.0131 0.0386,-0.0318 0.0859,-0.0997 0.36578,-0.52492 0.94145,-0.98293 1.53212,-1.21925 0.18391,-0.0735 0.49246,-0.18109 0.49966,-0.17388 0.003,0.003 -0.0574,0.0543 -0.13547,0.11231 -0.7103,0.52818 -1.38916,1.38616 -1.74618,2.20713 -0.35674,0.82027 -0.51325,1.64107 -0.45861,2.40477 0.0105,0.14933 0.0169,0.27427 0.0141,0.27711 -0.0158,0.0158 -0.49653,-0.23642 -0.6712,-0.35217 -0.27957,-0.18525 -0.63097,-0.53655 -0.80785,-0.80785 -0.29803,-0.45711 -0.4522,-0.91982 -0.49731,-1.49136 -0.0113,-0.144 -0.0251,-0.26609 -0.029,-0.27007 -0.005,-0.005 -0.0272,0.0588 -0.051,0.14046 -0.0237,0.0817 -0.0559,0.18947 -0.0713,0.23957 -0.034,0.11079 -0.0789,0.30565 -0.11436,0.49556 -0.0416,0.22084 -0.0356,0.90833 0.009,1.12248 0.12294,0.58552 0.38093,1.06 0.80228,1.47465 0.12151,0.11957 0.22973,0.20865 0.68938,0.56798 0.44558,0.34834 0.68988,0.6413 1.01985,1.22365 0.11976,0.21134 0.26832,0.45727 0.33018,0.54628 0.10741,0.15451 0.4807,0.5486 0.63044,0.66563 l 0.071,0.0554 -0.12139,-0.0132 c -0.16414,-0.0179 -0.50938,-0.13483 -0.70376,-0.23839 -0.19216,-0.10239 -0.43614,-0.29406 -0.5885,-0.46242 -0.0617,-0.0682 -0.21028,-0.26511 -0.33018,-0.43779 -0.41475,-0.59728 -0.69608,-0.86885 -1.15034,-1.11017 l -0.18004,-0.0956 0.13371,0.16099 c 0.26846,0.3232 0.4127,0.59148 0.58118,1.08114 0.12351,0.35895 0.18227,0.50197 0.27945,0.68087 0.24057,0.44304 0.5957,0.84286 0.99844,1.12336 0.35996,0.25072 0.65817,0.39009 1.38053,0.64511 0.89765,0.3169 1.24081,0.49015 1.56085,0.78849 0.40117,0.37396 0.5979,0.77269 0.63103,1.27906 0.0108,0.16514 0.0177,0.1953 0.0381,0.16744 0.051,-0.0697 0.14912,-0.41484 0.18209,-0.63953 0.0977,-0.66535 -0.10054,-1.27998 -0.63396,-1.96522 -0.33087,-0.42504 -0.45455,-0.62263 -0.56769,-0.90667 -0.1158,-0.29067 -0.1128,-0.29427 0.0912,-0.10116 0.25812,0.24435 0.53079,0.45142 1.11046,0.84332 0.76475,0.51704 0.98434,0.68488 1.3298,1.01634 0.62501,0.59968 1.0512,1.40203 1.14857,2.16256 0.0315,0.24627 0.0509,0.20933 0.0918,-0.17359 0.11965,-1.12133 -0.29083,-2.16041 -1.18728,-3.0056 -0.28143,-0.26531 -0.48877,-0.42132 -1.16148,-0.87294 -0.82625,-0.55469 -1.18924,-0.84341 -1.61863,-1.28728 -0.81074,-0.83811 -1.29592,-1.78618 -1.41717,-2.76954 -0.0415,-0.33644 -0.0278,-0.81937 0.0319,-1.11985 0.11191,-0.56263 0.3628,-1.11743 0.71812,-1.58872 0.13806,-0.18312 0.40471,-0.47556 0.38735,-0.42489 -0.006,0.0167 -0.0484,0.11688 -0.095,0.22257 -0.11679,0.2653 -0.25526,0.69313 -0.30378,0.93804 -0.12333,0.62269 -0.0924,1.26524 0.0903,1.86786 0.24264,0.80037 0.77812,1.63634 1.53387,2.39539 0.43347,0.43536 0.75354,0.69337 1.62215,1.30634 0.69867,0.49307 0.87662,0.6283 1.16441,0.88467 0.64147,0.57145 1.08528,1.29384 1.2345,2.0095 0.0217,0.10411 0.0396,0.2128 0.0396,0.24162 0,0.0327 0.007,0.0452 0.0188,0.0331 0.0105,-0.0106 0.0303,-0.15231 0.044,-0.31522 0.0842,-0.99614 -0.2601,-1.88808 -1.04389,-2.70416 -0.27347,-0.28476 -0.49565,-0.46785 -1.08202,-0.89259 -0.58908,-0.4267 -0.70855,-0.5245 -1.00108,-0.8184 -0.36685,-0.3686 -0.61983,-0.75351 -0.7797,-1.1867 -0.063,-0.17062 -0.12878,-0.42073 -0.11465,-0.43486 0.004,-0.004 0.0521,0.0626 0.10644,0.14837 0.30188,0.47658 0.7476,0.90827 1.27643,1.23626 0.18184,0.11277 0.49233,0.27294 0.49233,0.25393 0,-0.007 -0.0645,-0.0815 -0.14339,-0.16596 -0.32804,-0.35126 -0.65425,-0.84044 -0.89963,-1.34886 -0.22396,-0.46403 -0.36287,-0.88721 -0.43456,-1.31454 0.10628,0.14867 1.46525,1.75807 1.60655,1.91265 -0.43455,-1.70896 0.14368,-2.32496 0.74368,-2.55394 0.28803,0.25524 0.67462,0.44136 1.14271,0.53895 0.64582,0.13466 0.7121,0.16875 1.27378,0.65331 0.28,0.24155 0.78951,0.63806 1.13245,0.88116 0.6564,0.46528 0.84769,0.67259 0.94479,1.02424 0.15373,0.55676 0.64974,0.93746 1.2213,0.93746 0.67846,0 1.52562,-0.42895 1.86669,-0.94537 0.25266,-0.38257 0.32762,-0.69101 0.29177,-1.19814 -0.0367,-0.51868 -0.19229,-0.91486 -1.25473,-3.19356 -0.8171,-1.7525 -0.94742,-2.07541 -1.10371,-2.73347 -0.16113,-0.67846 -0.2653,-0.87812 -0.88468,-1.69546 -0.27816,-0.36705 -0.67499,-0.91007 -0.88203,-1.20663 l -0.3765,-0.53925 0.14778,-0.26332 c 0.0814,-0.14485 0.34697,-0.59866 0.58998,-1.00842 0.44585,-0.75177 0.52142,-1.00305 0.34571,-1.14887 -0.0409,-0.0339 -0.0982,-0.0494 -0.18062,-0.0434 z m -5.13884,0.74275 c -0.0406,0 -0.43276,0.20544 -0.59057,0.30936 -0.50789,0.33449 -0.89016,0.77302 -1.77902,2.04058 -0.27907,0.39801 -0.27753,0.39406 -0.15658,0.43662 0.10368,0.0365 0.293,0.0272 0.43603,-0.0217 0.19349,-0.066 0.35091,-0.16719 0.51286,-0.32988 0.18006,-0.18086 0.30328,-0.38815 0.49204,-0.8272 0.3136,-0.72947 0.47379,-0.98662 0.84684,-1.35999 0.13613,-0.13628 0.2435,-0.24779 0.2384,-0.24779 z m 4.67788,5.00279 c 0.043,5.6e-4 0.082,0.0117 0.11084,0.0343 0.60517,0.47384 0.99874,0.90566 0.87675,0.95299 -0.55366,0.21479 -0.8811,-0.008 -1.14359,-0.26684 -0.43098,-0.42487 -0.0763,-0.72411 0.156,-0.72046 z m -10.89522,0.18356 c 0,-0.0553 -0.49432,0.41585 -0.61696,0.58792 -0.27554,0.38664 -0.39439,0.72762 -0.39439,1.13304 0,0.43249 0.11813,0.72266 0.53485,1.31425 0.35916,0.50981 0.46361,0.88396 0.40994,1.46615 l -0.0158,0.17183 0.11348,-0.17183 c 0.13707,-0.20773 0.21694,-0.37634 0.28736,-0.60611 0.047,-0.15215 0.0531,-0.2086 0.0542,-0.47591 0.002,-0.41819 -0.0611,-0.63305 -0.31844,-1.08641 -0.32804,-0.57787 -0.39942,-0.79021 -0.40055,-1.1955 -10e-4,-0.34792 0.0703,-0.61474 0.25628,-0.95886 0.0496,-0.0917 0.09,-0.17239 0.09,-0.17857 z"
           sodipodi:nodetypes="ccscccccccccccsscscccssccccssssccccsssscscsccccsssccscccsssssccccssscscssscccsscssscccsssssccsssccsccssssscsccssscscsssscccsssssssssssccsssccscccsssccccssccssscscccccccs"
           inkscape:original-d="m -288.84458,533.35079 v 3e-4 c -0.2472,0.0181 -0.69944,0.27208 -1.65323,0.72486 -0.39615,0.18807 -0.70174,0.31228 -0.93833,0.41023 l 0.0176,-0.0543 c -0.006,0.007 -0.0216,0.0291 -0.027,0.0349 -0.0138,0.0148 -0.0289,0.0275 -0.0431,0.0417 -0.19191,0.08 -0.341,0.14517 -0.44014,0.21201 l -0.2252,0.16332 c -0.0913,0.0162 -0.17863,0.0178 -0.25686,-0.001 -0.16909,-0.0406 -0.27667,-0.18996 -0.23576,-0.32754 0.0465,-0.15619 0.19304,-0.27916 0.41785,-0.35041 l 0.14779,-0.0469 -0.10087,-0.017 c -0.0503,-0.009 -0.11226,-0.0139 -0.18005,-0.0164 h -2.9e-4 c -0.20368,-0.008 -0.45835,0.0106 -0.5976,0.0478 -0.58062,0.15514 -1.01815,0.5296 -1.32393,1.13303 -0.0564,0.11116 -0.23436,0.55355 -0.22608,0.56183 0.003,0.002 0.0817,-0.0359 0.17564,-0.0853 0.29103,-0.15328 0.89015,-0.32116 1.03569,-0.29029 0.0238,0.005 -0.0431,0.0609 -0.20174,0.16919 -0.40798,0.27842 -0.87575,0.63315 -1.7975,1.36293 -0.1881,0.14892 -0.42054,0.32369 -0.51637,0.38823 -0.48749,0.32809 -0.98329,0.48064 -1.28083,0.3941 -0.22962,-0.0667 -0.36632,-0.19883 -0.4287,-0.41345 -0.0424,-0.1462 -0.0274,-0.42623 0.0334,-0.6193 0.0877,-0.27807 0.29161,-0.63427 0.52868,-0.92367 0.11158,-0.1362 0.60319,-0.62255 0.62986,-0.62312 0.0175,-3.5e-4 0.156,-0.13449 0.156,-0.15101 0,-0.0222 -0.44044,0.18112 -0.49145,0.22696 -0.02,0.018 -0.0507,0.0347 -0.0686,0.0375 -0.0178,0.002 -0.0399,0.0167 -0.0493,0.0314 -0.009,0.0145 -0.0171,0.0186 -0.0173,0.008 -2.3e-4,-0.01 -0.0159,-0.004 -0.0355,0.0138 -0.0195,0.0176 -0.0803,0.0512 -0.13518,0.0748 -0.12537,0.0537 -0.5533,0.33887 -0.77999,0.5196 -0.26899,0.21446 -0.67682,0.62386 -0.84802,0.85125 -0.50985,0.67713 -0.75872,1.3225 -0.89024,2.3083 -0.0599,0.44913 -0.12039,0.77537 -0.19236,1.03891 -0.0358,0.1307 -0.059,0.23781 -0.0507,0.23781 0.008,0 0.0719,-0.0751 0.14251,-0.16685 0.30329,-0.39413 0.70128,-0.74843 1.08026,-0.96179 0.39932,-0.22483 0.74152,-0.32798 1.42098,-0.42753 0.37044,-0.0543 0.61304,-0.10297 0.82573,-0.16597 -0.0658,0.13142 -0.12835,0.26365 -0.18502,0.39703 -0.0647,0.0308 -0.12897,0.0644 -0.1909,0.0912 -0.92349,0.39943 -1.40039,0.70515 -1.88135,1.20605 -0.24723,0.25746 -0.44117,0.51999 -0.59145,0.80052 -0.0756,0.14113 -0.21728,0.48358 -0.21728,0.52517 0,0.0131 0.0386,-0.0318 0.0859,-0.0997 0.36578,-0.52492 0.94145,-0.98293 1.53212,-1.21925 0.18391,-0.0735 0.49246,-0.18109 0.49966,-0.17388 0.003,0.003 -0.0574,0.0543 -0.13547,0.11231 -0.7103,0.52818 -1.38916,1.38616 -1.74618,2.20713 -0.35674,0.82027 -0.51325,1.64107 -0.45861,2.40477 0.0105,0.14933 0.0169,0.27427 0.0141,0.27711 -0.0158,0.0158 -0.49653,-0.23642 -0.6712,-0.35217 -0.27957,-0.18525 -0.63097,-0.53655 -0.80785,-0.80785 -0.29803,-0.45711 -0.4522,-0.91982 -0.49731,-1.49136 -0.0113,-0.144 -0.0251,-0.26609 -0.029,-0.27007 -0.005,-0.005 -0.0272,0.0588 -0.051,0.14046 -0.0237,0.0817 -0.0559,0.18947 -0.0713,0.23957 -0.034,0.11079 -0.0789,0.30565 -0.11436,0.49556 -0.0416,0.22084 -0.0356,0.90833 0.009,1.12248 0.12294,0.58552 0.38093,1.06 0.80228,1.47465 0.12151,0.11957 0.22973,0.20865 0.68938,0.56798 0.44558,0.34834 0.68988,0.6413 1.01985,1.22365 0.11976,0.21134 0.26832,0.45727 0.33018,0.54628 0.10741,0.15451 0.4807,0.5486 0.63044,0.66563 l 0.071,0.0554 -0.12139,-0.0132 c -0.16414,-0.0179 -0.50938,-0.13483 -0.70376,-0.23839 -0.19216,-0.10239 -0.43614,-0.29406 -0.5885,-0.46242 -0.0617,-0.0682 -0.21028,-0.26511 -0.33018,-0.43779 -0.41475,-0.59728 -0.69608,-0.86885 -1.15034,-1.11017 l -0.18004,-0.0956 0.13371,0.16099 c 0.26846,0.3232 0.4127,0.59148 0.58118,1.08114 0.12351,0.35895 0.18227,0.50197 0.27945,0.68087 0.24057,0.44304 0.5957,0.84286 0.99844,1.12336 0.35996,0.25072 0.65817,0.39009 1.38053,0.64511 0.89765,0.3169 1.24081,0.49015 1.56085,0.78849 0.40117,0.37396 0.5979,0.77269 0.63103,1.27906 0.0108,0.16514 0.0177,0.1953 0.0381,0.16744 0.051,-0.0697 0.14912,-0.41484 0.18209,-0.63953 0.0977,-0.66535 -0.10054,-1.27998 -0.63396,-1.96522 -0.33087,-0.42504 -0.45455,-0.62263 -0.56769,-0.90667 -0.1158,-0.29067 -0.1128,-0.29427 0.0912,-0.10116 0.25812,0.24435 0.53079,0.45142 1.11046,0.84332 0.76475,0.51704 0.98434,0.68488 1.3298,1.01634 0.62501,0.59968 1.0512,1.40203 1.14857,2.16256 0.0315,0.24627 0.0509,0.20933 0.0918,-0.17359 0.11965,-1.12133 -0.29083,-2.16041 -1.18728,-3.0056 -0.28143,-0.26531 -0.48877,-0.42132 -1.16148,-0.87294 -0.82625,-0.55469 -1.18924,-0.84341 -1.61863,-1.28728 -0.81074,-0.83811 -1.29592,-1.78618 -1.41717,-2.76954 -0.0415,-0.33644 -0.0278,-0.81937 0.0319,-1.11985 0.11191,-0.56263 0.3628,-1.11743 0.71812,-1.58872 0.13806,-0.18312 0.40471,-0.47556 0.38735,-0.42489 -0.006,0.0167 -0.0484,0.11688 -0.095,0.22257 -0.11679,0.2653 -0.25526,0.69313 -0.30378,0.93804 -0.12333,0.62269 -0.0924,1.26524 0.0903,1.86786 0.24264,0.80037 0.77812,1.63634 1.53387,2.39539 0.43347,0.43536 0.75354,0.69337 1.62215,1.30634 0.69867,0.49307 0.87662,0.6283 1.16441,0.88467 0.64147,0.57145 1.08528,1.29384 1.2345,2.0095 0.0217,0.10411 0.0396,0.2128 0.0396,0.24162 0,0.0327 0.007,0.0452 0.0188,0.0331 0.0105,-0.0106 0.0303,-0.15231 0.044,-0.31522 0.0842,-0.99614 -0.2601,-1.88808 -1.04389,-2.70416 -0.27347,-0.28476 -0.49565,-0.46785 -1.08202,-0.89259 -0.58908,-0.4267 -0.70855,-0.5245 -1.00108,-0.8184 -0.36685,-0.3686 -0.61983,-0.75351 -0.7797,-1.1867 -0.063,-0.17062 -0.12878,-0.42073 -0.11465,-0.43486 0.004,-0.004 0.0521,0.0626 0.10644,0.14837 0.30188,0.47658 0.7476,0.90827 1.27643,1.23626 0.18184,0.11277 0.49233,0.27294 0.49233,0.25393 0,-0.007 -0.0645,-0.0815 -0.14339,-0.16596 -0.32804,-0.35126 -0.65425,-0.84044 -0.89963,-1.34886 -0.22396,-0.46403 -0.36287,-0.88721 -0.43456,-1.31454 0.10628,0.14867 1.46525,1.75807 1.60655,1.91265 -0.43455,-1.70896 0.14368,-2.32496 0.74368,-2.55394 0.28803,0.25524 0.67462,0.44136 1.14271,0.53895 0.64582,0.13466 0.7121,0.16875 1.27378,0.65331 0.28,0.24155 0.78951,0.63806 1.13245,0.88116 0.6564,0.46528 0.84769,0.67259 0.94479,1.02424 0.15373,0.55676 0.64974,0.93746 1.2213,0.93746 0.67846,0 1.52562,-0.42895 1.86669,-0.94537 0.25266,-0.38257 0.32762,-0.69101 0.29177,-1.19814 -0.0367,-0.51868 -0.19229,-0.91486 -1.25473,-3.19356 -0.8171,-1.7525 -0.94742,-2.07541 -1.10371,-2.73347 -0.16113,-0.67846 -0.2653,-0.87812 -0.88468,-1.69546 -0.27816,-0.36705 -0.67499,-0.91007 -0.88203,-1.20663 l -0.3765,-0.53925 0.14778,-0.26332 c 0.0814,-0.14485 0.34697,-0.59866 0.58998,-1.00842 0.44585,-0.75177 0.52142,-1.00305 0.34571,-1.14887 -0.0409,-0.0339 -0.0982,-0.0494 -0.18062,-0.0434 z m -5.13884,0.74275 c -0.0406,0 -0.43276,0.20544 -0.59057,0.30936 -0.50789,0.33449 -0.89016,0.77302 -1.77902,2.04058 -0.27907,0.39801 -0.27753,0.39406 -0.15658,0.43662 0.10368,0.0365 0.293,0.0272 0.43603,-0.0217 0.19349,-0.066 0.35091,-0.16719 0.51286,-0.32988 0.18006,-0.18086 0.30328,-0.38815 0.49204,-0.8272 0.3136,-0.72947 0.47379,-0.98662 0.84684,-1.35999 0.13613,-0.13628 0.2435,-0.24779 0.2384,-0.24779 z m 4.67788,5.00279 c 0.043,5.6e-4 0.082,0.0117 0.11084,0.0343 0.60517,0.47384 0.99874,0.90566 0.87675,0.95299 -0.55366,0.21479 -0.8811,-0.008 -1.14359,-0.26684 -0.43098,-0.42487 -0.0763,-0.72411 0.156,-0.72046 z m -10.89522,0.18356 c 0,-0.0553 -0.49432,0.41585 -0.61696,0.58792 -0.27554,0.38664 -0.39439,0.72762 -0.39439,1.13304 0,0.43249 0.11813,0.72266 0.53485,1.31425 0.35916,0.50981 0.46361,0.88396 0.40994,1.46615 l -0.0158,0.17183 0.11348,-0.17183 c 0.13707,-0.20773 0.21694,-0.37634 0.28736,-0.60611 0.047,-0.15215 0.0531,-0.2086 0.0542,-0.47591 0.002,-0.41819 -0.0611,-0.63305 -0.31844,-1.08641 -0.32804,-0.57787 -0.39942,-0.79021 -0.40055,-1.1955 -10e-4,-0.34792 0.0703,-0.61474 0.25628,-0.95886 0.0496,-0.0917 0.09,-0.17239 0.09,-0.17857 z" />
        <path
           id="path197"
           style="mix-blend-mode:normal;fill:#000000;stroke-width:0.149182;filter:url(#filter42)"
           d="m -288.84458,533.15237 v 3e-4 c -0.2472,0.0181 -0.69944,0.27208 -1.65323,0.72486 -0.39615,0.18807 -0.70174,0.31228 -0.93833,0.41023 l 0.0176,-0.0543 c -0.006,0.007 -0.0216,0.0291 -0.027,0.0349 -0.0138,0.0148 -0.0289,0.0275 -0.0431,0.0417 -0.19191,0.08 -0.341,0.14517 -0.44014,0.21201 l -0.2252,0.16332 c -0.0913,0.0162 -0.17863,0.0178 -0.25686,-10e-4 -0.16909,-0.0406 -0.27667,-0.18996 -0.23576,-0.32754 0.0465,-0.15619 0.19304,-0.27916 0.41785,-0.35041 l 0.14779,-0.0469 -0.10087,-0.017 c -0.0503,-0.009 -0.11226,-0.0139 -0.18005,-0.0164 h -2.9e-4 c -0.20368,-0.008 -0.45835,0.0106 -0.5976,0.0478 -0.58062,0.15514 -1.01815,0.5296 -1.32393,1.13303 -0.0564,0.11116 -0.23436,0.55355 -0.22608,0.56183 0.003,0.002 0.0817,-0.0359 0.17564,-0.0853 0.29103,-0.15328 0.89015,-0.32116 1.03569,-0.29029 0.0238,0.005 -0.0431,0.0609 -0.20174,0.16919 -0.40798,0.27842 -0.87575,0.63315 -1.7975,1.36293 -0.1881,0.14892 -0.42054,0.32369 -0.51637,0.38823 -0.48749,0.32809 -0.98329,0.48064 -1.28083,0.3941 -0.22962,-0.0667 -0.36632,-0.19883 -0.4287,-0.41345 -0.0424,-0.1462 -0.0274,-0.42623 0.0334,-0.6193 0.0877,-0.27807 0.29161,-0.63427 0.52868,-0.92367 0.11158,-0.1362 0.60319,-0.62255 0.62986,-0.62312 0.0175,-3.5e-4 0.156,-0.13449 0.156,-0.15101 0,-0.0222 -0.44044,0.18112 -0.49145,0.22696 -0.02,0.018 -0.0507,0.0347 -0.0686,0.0375 -0.0178,0.002 -0.0399,0.0167 -0.0493,0.0314 -0.009,0.0145 -0.0171,0.0186 -0.0173,0.008 -2.3e-4,-0.01 -0.0159,-0.004 -0.0355,0.0138 -0.0195,0.0176 -0.0803,0.0512 -0.13518,0.0748 -0.12537,0.0537 -0.5533,0.33887 -0.77999,0.5196 -0.26899,0.21446 -0.67682,0.62386 -0.84802,0.85125 -0.50985,0.67713 -0.75872,1.3225 -0.89024,2.3083 -0.0599,0.44913 -0.12039,0.77537 -0.19236,1.03891 -0.0358,0.1307 -0.059,0.23781 -0.0507,0.23781 0.008,0 0.0719,-0.0751 0.14251,-0.16685 0.30329,-0.39413 0.70128,-0.74843 1.08026,-0.96179 0.39932,-0.22483 0.74152,-0.32798 1.42098,-0.42753 0.37044,-0.0543 0.61304,-0.10297 0.82573,-0.16597 -0.0658,0.13142 -0.12835,0.26365 -0.18502,0.39703 -0.0647,0.0308 -0.12897,0.0644 -0.1909,0.0912 -0.92349,0.39943 -1.40039,0.70515 -1.88135,1.20605 -0.24723,0.25746 -0.44117,0.51999 -0.59145,0.80052 -0.0756,0.14113 -0.21728,0.48358 -0.21728,0.52517 0,0.0131 0.0386,-0.0318 0.0859,-0.0997 0.36578,-0.52492 0.94145,-0.98293 1.53212,-1.21925 0.18391,-0.0735 0.49246,-0.18109 0.49966,-0.17388 0.003,0.003 -0.0574,0.0543 -0.13547,0.11231 -0.7103,0.52818 -1.38916,1.38616 -1.74618,2.20713 -0.35674,0.82027 -0.51325,1.64107 -0.45861,2.40477 0.0105,0.14933 0.0169,0.27427 0.0141,0.27711 -0.0158,0.0158 -0.49653,-0.23642 -0.6712,-0.35217 -0.27957,-0.18525 -0.63097,-0.53655 -0.80785,-0.80785 -0.29803,-0.45711 -0.4522,-0.91982 -0.49731,-1.49136 -0.0113,-0.144 -0.0251,-0.26609 -0.029,-0.27007 -0.005,-0.005 -0.0272,0.0588 -0.051,0.14046 -0.0237,0.0817 -0.0559,0.18947 -0.0713,0.23957 -0.034,0.11079 -0.0789,0.30565 -0.11436,0.49556 -0.0416,0.22084 -0.0356,0.90833 0.009,1.12248 0.12294,0.58552 0.38093,1.06 0.80228,1.47465 0.12151,0.11957 0.22973,0.20865 0.68938,0.56798 0.44558,0.34834 0.68988,0.6413 1.01985,1.22365 0.11976,0.21134 0.26832,0.45727 0.33018,0.54628 0.10741,0.15451 0.4807,0.5486 0.63044,0.66563 l 0.071,0.0554 -0.12139,-0.0132 c -0.16414,-0.0179 -0.50938,-0.13483 -0.70376,-0.23839 -0.19216,-0.10239 -0.43614,-0.29406 -0.5885,-0.46242 -0.0617,-0.0682 -0.21028,-0.26511 -0.33018,-0.43779 -0.41475,-0.59728 -0.69608,-0.86885 -1.15034,-1.11017 l -0.18004,-0.0956 0.13371,0.16099 c 0.26846,0.3232 0.4127,0.59148 0.58118,1.08114 0.12351,0.35895 0.18227,0.50197 0.27945,0.68087 0.24057,0.44304 0.5957,0.84286 0.99844,1.12336 0.35996,0.25072 0.65817,0.39009 1.38053,0.64511 0.89765,0.3169 1.24081,0.49015 1.56085,0.78849 0.40117,0.37396 0.5979,0.77269 0.63103,1.27906 0.0108,0.16514 0.0177,0.1953 0.0381,0.16744 0.051,-0.0697 0.14912,-0.41484 0.18209,-0.63953 0.0977,-0.66535 -0.10054,-1.27998 -0.63396,-1.96522 -0.33087,-0.42504 -0.45455,-0.62263 -0.56769,-0.90667 -0.1158,-0.29067 -0.1128,-0.29427 0.0912,-0.10116 0.25812,0.24435 0.53079,0.45142 1.11046,0.84332 0.76475,0.51704 0.98434,0.68488 1.3298,1.01634 0.62501,0.59968 1.0512,1.40203 1.14857,2.16256 0.0315,0.24627 0.0509,0.20933 0.0918,-0.17359 0.11965,-1.12133 -0.29083,-2.16041 -1.18728,-3.0056 -0.28143,-0.26531 -0.48877,-0.42132 -1.16148,-0.87294 -0.82625,-0.55469 -1.18924,-0.84341 -1.61863,-1.28728 -0.81074,-0.83811 -1.29592,-1.78618 -1.41717,-2.76954 -0.0415,-0.33644 -0.0278,-0.81937 0.0319,-1.11985 0.11191,-0.56263 0.3628,-1.11743 0.71812,-1.58872 0.13806,-0.18312 0.40471,-0.47556 0.38735,-0.42489 -0.006,0.0167 -0.0484,0.11688 -0.095,0.22257 -0.11679,0.2653 -0.25526,0.69313 -0.30378,0.93804 -0.12333,0.62269 -0.0924,1.26524 0.0903,1.86786 0.24264,0.80037 0.77812,1.63634 1.53387,2.39539 0.43347,0.43536 0.75354,0.69337 1.62215,1.30634 0.69867,0.49307 0.87662,0.6283 1.16441,0.88467 0.64147,0.57145 1.08528,1.29384 1.2345,2.0095 0.0217,0.10411 0.0396,0.2128 0.0396,0.24162 0,0.0327 0.007,0.0452 0.0188,0.0331 0.0105,-0.0106 0.0303,-0.15231 0.044,-0.31522 0.0842,-0.99614 -0.2601,-1.88808 -1.04389,-2.70416 -0.27347,-0.28476 -0.49565,-0.46785 -1.08202,-0.89259 -0.58908,-0.4267 -0.70855,-0.5245 -1.00108,-0.8184 -0.36685,-0.3686 -0.61983,-0.75351 -0.7797,-1.1867 -0.063,-0.17062 -0.12878,-0.42073 -0.11465,-0.43486 0.004,-0.004 0.0521,0.0626 0.10644,0.14837 0.30188,0.47658 0.7476,0.90827 1.27643,1.23626 0.18184,0.11277 0.49233,0.27294 0.49233,0.25393 0,-0.007 -0.0645,-0.0815 -0.14339,-0.16596 -0.32804,-0.35126 -0.65425,-0.84044 -0.89963,-1.34886 -0.22396,-0.46403 -0.36287,-0.88721 -0.43456,-1.31454 0.10628,0.14867 1.46525,1.75807 1.60655,1.91265 -0.43455,-1.70896 0.14368,-2.32496 0.74368,-2.55394 0.28803,0.25524 0.67462,0.44136 1.14271,0.53895 0.64582,0.13466 0.7121,0.16875 1.27378,0.65331 0.28,0.24155 0.78951,0.63806 1.13245,0.88116 0.6564,0.46528 0.84769,0.67259 0.94479,1.02424 0.15373,0.55676 0.64974,0.93746 1.2213,0.93746 0.67846,0 1.52562,-0.42895 1.86669,-0.94537 0.25266,-0.38257 0.32762,-0.69101 0.29177,-1.19814 -0.0367,-0.51868 -0.19229,-0.91486 -1.25473,-3.19356 -0.8171,-1.7525 -0.94742,-2.07541 -1.10371,-2.73347 -0.16113,-0.67846 -0.2653,-0.87812 -0.88468,-1.69546 -0.27816,-0.36705 -0.67499,-0.91007 -0.88203,-1.20663 l -0.3765,-0.53925 0.14778,-0.26332 c 0.0814,-0.14485 0.34697,-0.59866 0.58998,-1.00842 0.44585,-0.75177 0.52142,-1.00305 0.34571,-1.14887 -0.0409,-0.0339 -0.0982,-0.0494 -0.18062,-0.0434 z m -5.13884,0.74275 c -0.0406,0 -0.43276,0.20544 -0.59057,0.30936 -0.50789,0.33449 -0.89016,0.77302 -1.77902,2.04058 -0.27907,0.39801 -0.27753,0.39406 -0.15658,0.43662 0.10368,0.0365 0.293,0.0272 0.43603,-0.0217 0.19349,-0.066 0.35091,-0.16719 0.51286,-0.32988 0.18006,-0.18086 0.30328,-0.38815 0.49204,-0.8272 0.3136,-0.72947 0.47379,-0.98662 0.84684,-1.35999 0.13613,-0.13628 0.2435,-0.24779 0.2384,-0.24779 z m 4.67788,5.00279 c 0.043,5.6e-4 0.082,0.0117 0.11084,0.0343 0.60517,0.47384 0.99874,0.90566 0.87675,0.95299 -0.55366,0.21479 -0.8811,-0.008 -1.14359,-0.26684 -0.43098,-0.42487 -0.0763,-0.72411 0.156,-0.72046 z m -10.89522,0.18356 c 0,-0.0553 -0.49432,0.41585 -0.61696,0.58792 -0.27554,0.38664 -0.39439,0.72762 -0.39439,1.13304 0,0.43249 0.11813,0.72266 0.53485,1.31425 0.35916,0.50981 0.46361,0.88396 0.40994,1.46615 l -0.0158,0.17183 0.11348,-0.17183 c 0.13707,-0.20773 0.21694,-0.37634 0.28736,-0.60611 0.047,-0.15215 0.0531,-0.2086 0.0542,-0.47591 0.002,-0.41819 -0.0611,-0.63305 -0.31844,-1.08641 -0.32804,-0.57787 -0.39942,-0.79021 -0.40055,-1.1955 -10e-4,-0.34792 0.0703,-0.61474 0.25628,-0.95886 0.0496,-0.0917 0.09,-0.17239 0.09,-0.17857 z"
           sodipodi:nodetypes="ccscccccccccccsscscccssccccssssccccsssscscsccccsssccscccsssssccccssscscssscccsscssscccsssssccsssccsccssssscsccssscscsssscccsssssssssssccsssccscccsssccccssccssscscccccccs"
           inkscape:original-d="m -288.84458,533.15237 v 3e-4 c -0.2472,0.0181 -0.69944,0.27208 -1.65323,0.72486 -0.39615,0.18807 -0.70174,0.31228 -0.93833,0.41023 l 0.0176,-0.0543 c -0.006,0.007 -0.0216,0.0291 -0.027,0.0349 -0.0138,0.0148 -0.0289,0.0275 -0.0431,0.0417 -0.19191,0.08 -0.341,0.14517 -0.44014,0.21201 l -0.2252,0.16332 c -0.0913,0.0162 -0.17863,0.0178 -0.25686,-10e-4 -0.16909,-0.0406 -0.27667,-0.18996 -0.23576,-0.32754 0.0465,-0.15619 0.19304,-0.27916 0.41785,-0.35041 l 0.14779,-0.0469 -0.10087,-0.017 c -0.0503,-0.009 -0.11226,-0.0139 -0.18005,-0.0164 h -2.9e-4 c -0.20368,-0.008 -0.45835,0.0106 -0.5976,0.0478 -0.58062,0.15514 -1.01815,0.5296 -1.32393,1.13303 -0.0564,0.11116 -0.23436,0.55355 -0.22608,0.56183 0.003,0.002 0.0817,-0.0359 0.17564,-0.0853 0.29103,-0.15328 0.89015,-0.32116 1.03569,-0.29029 0.0238,0.005 -0.0431,0.0609 -0.20174,0.16919 -0.40798,0.27842 -0.87575,0.63315 -1.7975,1.36293 -0.1881,0.14892 -0.42054,0.32369 -0.51637,0.38823 -0.48749,0.32809 -0.98329,0.48064 -1.28083,0.3941 -0.22962,-0.0667 -0.36632,-0.19883 -0.4287,-0.41345 -0.0424,-0.1462 -0.0274,-0.42623 0.0334,-0.6193 0.0877,-0.27807 0.29161,-0.63427 0.52868,-0.92367 0.11158,-0.1362 0.60319,-0.62255 0.62986,-0.62312 0.0175,-3.5e-4 0.156,-0.13449 0.156,-0.15101 0,-0.0222 -0.44044,0.18112 -0.49145,0.22696 -0.02,0.018 -0.0507,0.0347 -0.0686,0.0375 -0.0178,0.002 -0.0399,0.0167 -0.0493,0.0314 -0.009,0.0145 -0.0171,0.0186 -0.0173,0.008 -2.3e-4,-0.01 -0.0159,-0.004 -0.0355,0.0138 -0.0195,0.0176 -0.0803,0.0512 -0.13518,0.0748 -0.12537,0.0537 -0.5533,0.33887 -0.77999,0.5196 -0.26899,0.21446 -0.67682,0.62386 -0.84802,0.85125 -0.50985,0.67713 -0.75872,1.3225 -0.89024,2.3083 -0.0599,0.44913 -0.12039,0.77537 -0.19236,1.03891 -0.0358,0.1307 -0.059,0.23781 -0.0507,0.23781 0.008,0 0.0719,-0.0751 0.14251,-0.16685 0.30329,-0.39413 0.70128,-0.74843 1.08026,-0.96179 0.39932,-0.22483 0.74152,-0.32798 1.42098,-0.42753 0.37044,-0.0543 0.61304,-0.10297 0.82573,-0.16597 -0.0658,0.13142 -0.12835,0.26365 -0.18502,0.39703 -0.0647,0.0308 -0.12897,0.0644 -0.1909,0.0912 -0.92349,0.39943 -1.40039,0.70515 -1.88135,1.20605 -0.24723,0.25746 -0.44117,0.51999 -0.59145,0.80052 -0.0756,0.14113 -0.21728,0.48358 -0.21728,0.52517 0,0.0131 0.0386,-0.0318 0.0859,-0.0997 0.36578,-0.52492 0.94145,-0.98293 1.53212,-1.21925 0.18391,-0.0735 0.49246,-0.18109 0.49966,-0.17388 0.003,0.003 -0.0574,0.0543 -0.13547,0.11231 -0.7103,0.52818 -1.38916,1.38616 -1.74618,2.20713 -0.35674,0.82027 -0.51325,1.64107 -0.45861,2.40477 0.0105,0.14933 0.0169,0.27427 0.0141,0.27711 -0.0158,0.0158 -0.49653,-0.23642 -0.6712,-0.35217 -0.27957,-0.18525 -0.63097,-0.53655 -0.80785,-0.80785 -0.29803,-0.45711 -0.4522,-0.91982 -0.49731,-1.49136 -0.0113,-0.144 -0.0251,-0.26609 -0.029,-0.27007 -0.005,-0.005 -0.0272,0.0588 -0.051,0.14046 -0.0237,0.0817 -0.0559,0.18947 -0.0713,0.23957 -0.034,0.11079 -0.0789,0.30565 -0.11436,0.49556 -0.0416,0.22084 -0.0356,0.90833 0.009,1.12248 0.12294,0.58552 0.38093,1.06 0.80228,1.47465 0.12151,0.11957 0.22973,0.20865 0.68938,0.56798 0.44558,0.34834 0.68988,0.6413 1.01985,1.22365 0.11976,0.21134 0.26832,0.45727 0.33018,0.54628 0.10741,0.15451 0.4807,0.5486 0.63044,0.66563 l 0.071,0.0554 -0.12139,-0.0132 c -0.16414,-0.0179 -0.50938,-0.13483 -0.70376,-0.23839 -0.19216,-0.10239 -0.43614,-0.29406 -0.5885,-0.46242 -0.0617,-0.0682 -0.21028,-0.26511 -0.33018,-0.43779 -0.41475,-0.59728 -0.69608,-0.86885 -1.15034,-1.11017 l -0.18004,-0.0956 0.13371,0.16099 c 0.26846,0.3232 0.4127,0.59148 0.58118,1.08114 0.12351,0.35895 0.18227,0.50197 0.27945,0.68087 0.24057,0.44304 0.5957,0.84286 0.99844,1.12336 0.35996,0.25072 0.65817,0.39009 1.38053,0.64511 0.89765,0.3169 1.24081,0.49015 1.56085,0.78849 0.40117,0.37396 0.5979,0.77269 0.63103,1.27906 0.0108,0.16514 0.0177,0.1953 0.0381,0.16744 0.051,-0.0697 0.14912,-0.41484 0.18209,-0.63953 0.0977,-0.66535 -0.10054,-1.27998 -0.63396,-1.96522 -0.33087,-0.42504 -0.45455,-0.62263 -0.56769,-0.90667 -0.1158,-0.29067 -0.1128,-0.29427 0.0912,-0.10116 0.25812,0.24435 0.53079,0.45142 1.11046,0.84332 0.76475,0.51704 0.98434,0.68488 1.3298,1.01634 0.62501,0.59968 1.0512,1.40203 1.14857,2.16256 0.0315,0.24627 0.0509,0.20933 0.0918,-0.17359 0.11965,-1.12133 -0.29083,-2.16041 -1.18728,-3.0056 -0.28143,-0.26531 -0.48877,-0.42132 -1.16148,-0.87294 -0.82625,-0.55469 -1.18924,-0.84341 -1.61863,-1.28728 -0.81074,-0.83811 -1.29592,-1.78618 -1.41717,-2.76954 -0.0415,-0.33644 -0.0278,-0.81937 0.0319,-1.11985 0.11191,-0.56263 0.3628,-1.11743 0.71812,-1.58872 0.13806,-0.18312 0.40471,-0.47556 0.38735,-0.42489 -0.006,0.0167 -0.0484,0.11688 -0.095,0.22257 -0.11679,0.2653 -0.25526,0.69313 -0.30378,0.93804 -0.12333,0.62269 -0.0924,1.26524 0.0903,1.86786 0.24264,0.80037 0.77812,1.63634 1.53387,2.39539 0.43347,0.43536 0.75354,0.69337 1.62215,1.30634 0.69867,0.49307 0.87662,0.6283 1.16441,0.88467 0.64147,0.57145 1.08528,1.29384 1.2345,2.0095 0.0217,0.10411 0.0396,0.2128 0.0396,0.24162 0,0.0327 0.007,0.0452 0.0188,0.0331 0.0105,-0.0106 0.0303,-0.15231 0.044,-0.31522 0.0842,-0.99614 -0.2601,-1.88808 -1.04389,-2.70416 -0.27347,-0.28476 -0.49565,-0.46785 -1.08202,-0.89259 -0.58908,-0.4267 -0.70855,-0.5245 -1.00108,-0.8184 -0.36685,-0.3686 -0.61983,-0.75351 -0.7797,-1.1867 -0.063,-0.17062 -0.12878,-0.42073 -0.11465,-0.43486 0.004,-0.004 0.0521,0.0626 0.10644,0.14837 0.30188,0.47658 0.7476,0.90827 1.27643,1.23626 0.18184,0.11277 0.49233,0.27294 0.49233,0.25393 0,-0.007 -0.0645,-0.0815 -0.14339,-0.16596 -0.32804,-0.35126 -0.65425,-0.84044 -0.89963,-1.34886 -0.22396,-0.46403 -0.36287,-0.88721 -0.43456,-1.31454 0.10628,0.14867 1.46525,1.75807 1.60655,1.91265 -0.43455,-1.70896 0.14368,-2.32496 0.74368,-2.55394 0.28803,0.25524 0.67462,0.44136 1.14271,0.53895 0.64582,0.13466 0.7121,0.16875 1.27378,0.65331 0.28,0.24155 0.78951,0.63806 1.13245,0.88116 0.6564,0.46528 0.84769,0.67259 0.94479,1.02424 0.15373,0.55676 0.64974,0.93746 1.2213,0.93746 0.67846,0 1.52562,-0.42895 1.86669,-0.94537 0.25266,-0.38257 0.32762,-0.69101 0.29177,-1.19814 -0.0367,-0.51868 -0.19229,-0.91486 -1.25473,-3.19356 -0.8171,-1.7525 -0.94742,-2.07541 -1.10371,-2.73347 -0.16113,-0.67846 -0.2653,-0.87812 -0.88468,-1.69546 -0.27816,-0.36705 -0.67499,-0.91007 -0.88203,-1.20663 l -0.3765,-0.53925 0.14778,-0.26332 c 0.0814,-0.14485 0.34697,-0.59866 0.58998,-1.00842 0.44585,-0.75177 0.52142,-1.00305 0.34571,-1.14887 -0.0409,-0.0339 -0.0982,-0.0494 -0.18062,-0.0434 z m -5.13884,0.74275 c -0.0406,0 -0.43276,0.20544 -0.59057,0.30936 -0.50789,0.33449 -0.89016,0.77302 -1.77902,2.04058 -0.27907,0.39801 -0.27753,0.39406 -0.15658,0.43662 0.10368,0.0365 0.293,0.0272 0.43603,-0.0217 0.19349,-0.066 0.35091,-0.16719 0.51286,-0.32988 0.18006,-0.18086 0.30328,-0.38815 0.49204,-0.8272 0.3136,-0.72947 0.47379,-0.98662 0.84684,-1.35999 0.13613,-0.13628 0.2435,-0.24779 0.2384,-0.24779 z m 4.67788,5.00279 c 0.043,5.6e-4 0.082,0.0117 0.11084,0.0343 0.60517,0.47384 0.99874,0.90566 0.87675,0.95299 -0.55366,0.21479 -0.8811,-0.008 -1.14359,-0.26684 -0.43098,-0.42487 -0.0763,-0.72411 0.156,-0.72046 z m -10.89522,0.18356 c 0,-0.0553 -0.49432,0.41585 -0.61696,0.58792 -0.27554,0.38664 -0.39439,0.72762 -0.39439,1.13304 0,0.43249 0.11813,0.72266 0.53485,1.31425 0.35916,0.50981 0.46361,0.88396 0.40994,1.46615 l -0.0158,0.17183 0.11348,-0.17183 c 0.13707,-0.20773 0.21694,-0.37634 0.28736,-0.60611 0.047,-0.15215 0.0531,-0.2086 0.0542,-0.47591 0.002,-0.41819 -0.0611,-0.63305 -0.31844,-1.08641 -0.32804,-0.57787 -0.39942,-0.79021 -0.40055,-1.1955 -10e-4,-0.34792 0.0703,-0.61474 0.25628,-0.95886 0.0496,-0.0917 0.09,-0.17239 0.09,-0.17857 z" />
        <path
           id="path211"
           style="fill:#ffffff;stroke-width:0.149182"
           d="m -288.8777,533.11925 v 3e-4 c -0.2472,0.0181 -0.69944,0.27208 -1.65323,0.72486 -0.39615,0.18807 -0.70174,0.31228 -0.93833,0.41023 l 0.0176,-0.0543 c -0.006,0.007 -0.0216,0.0291 -0.027,0.0349 -0.0138,0.0148 -0.0289,0.0275 -0.0431,0.0417 -0.19191,0.08 -0.341,0.14517 -0.44014,0.21201 l -0.2252,0.16332 c -0.0913,0.0162 -0.17863,0.0178 -0.25686,-0.001 -0.16909,-0.0406 -0.27667,-0.18996 -0.23576,-0.32754 0.0465,-0.15619 0.19304,-0.27916 0.41785,-0.35041 l 0.14779,-0.0469 -0.10087,-0.017 c -0.0503,-0.009 -0.11226,-0.0139 -0.18005,-0.0164 h -2.9e-4 c -0.20368,-0.008 -0.45835,0.0106 -0.5976,0.0478 -0.58062,0.15514 -1.01815,0.5296 -1.32393,1.13303 -0.0564,0.11116 -0.23436,0.55355 -0.22608,0.56183 0.003,0.002 0.0817,-0.0359 0.17564,-0.0853 0.29103,-0.15328 0.89015,-0.32116 1.03569,-0.29029 0.0238,0.005 -0.0431,0.0609 -0.20174,0.16919 -0.40798,0.27842 -0.87575,0.63315 -1.7975,1.36293 -0.1881,0.14892 -0.42054,0.32369 -0.51637,0.38823 -0.48749,0.32809 -0.98329,0.48064 -1.28083,0.3941 -0.22962,-0.0667 -0.36632,-0.19883 -0.4287,-0.41345 -0.0424,-0.1462 -0.0274,-0.42623 0.0334,-0.6193 0.0877,-0.27807 0.29161,-0.63427 0.52868,-0.92367 0.11158,-0.1362 0.60319,-0.62255 0.62986,-0.62312 0.0175,-3.5e-4 0.156,-0.13449 0.156,-0.15101 0,-0.0222 -0.44044,0.18112 -0.49145,0.22696 -0.02,0.018 -0.0507,0.0347 -0.0686,0.0375 -0.0178,0.002 -0.0399,0.0167 -0.0493,0.0314 -0.009,0.0145 -0.0171,0.0186 -0.0173,0.008 -2.3e-4,-0.01 -0.0159,-0.004 -0.0355,0.0138 -0.0195,0.0176 -0.0803,0.0512 -0.13518,0.0748 -0.12537,0.0537 -0.5533,0.33887 -0.77999,0.5196 -0.26899,0.21446 -0.67682,0.62386 -0.84802,0.85125 -0.50985,0.67713 -0.75872,1.3225 -0.89024,2.3083 -0.0599,0.44913 -0.12039,0.77537 -0.19236,1.03891 -0.0358,0.1307 -0.059,0.23781 -0.0507,0.23781 0.008,0 0.0719,-0.0751 0.14251,-0.16685 0.30329,-0.39413 0.70128,-0.74843 1.08026,-0.96179 0.39932,-0.22483 0.74152,-0.32798 1.42098,-0.42753 0.37044,-0.0543 0.61304,-0.10297 0.82573,-0.16597 -0.0658,0.13142 -0.12835,0.26365 -0.18502,0.39703 -0.0647,0.0308 -0.12897,0.0644 -0.1909,0.0912 -0.92349,0.39943 -1.40039,0.70515 -1.88135,1.20605 -0.24723,0.25746 -0.44117,0.51999 -0.59145,0.80052 -0.0756,0.14113 -0.21728,0.48358 -0.21728,0.52517 0,0.0131 0.0386,-0.0318 0.0859,-0.0997 0.36578,-0.52492 0.94145,-0.98293 1.53212,-1.21925 0.18391,-0.0735 0.49246,-0.18109 0.49966,-0.17388 0.003,0.003 -0.0574,0.0543 -0.13547,0.11231 -0.7103,0.52818 -1.38916,1.38616 -1.74618,2.20713 -0.35674,0.82027 -0.51325,1.64107 -0.45861,2.40477 0.0105,0.14933 0.0169,0.27427 0.0141,0.27711 -0.0158,0.0158 -0.49653,-0.23642 -0.6712,-0.35217 -0.27957,-0.18525 -0.63097,-0.53655 -0.80785,-0.80785 -0.29803,-0.45711 -0.4522,-0.91982 -0.49731,-1.49136 -0.0113,-0.144 -0.0251,-0.26609 -0.029,-0.27007 -0.005,-0.005 -0.0272,0.0588 -0.051,0.14046 -0.0237,0.0817 -0.0559,0.18947 -0.0713,0.23957 -0.034,0.11079 -0.0789,0.30565 -0.11436,0.49556 -0.0416,0.22084 -0.0356,0.90833 0.009,1.12248 0.12294,0.58552 0.38093,1.06 0.80228,1.47465 0.12151,0.11957 0.22973,0.20865 0.68938,0.56798 0.44558,0.34834 0.68988,0.6413 1.01985,1.22365 0.11976,0.21134 0.26832,0.45727 0.33018,0.54628 0.10741,0.15451 0.4807,0.5486 0.63044,0.66563 l 0.071,0.0554 -0.12139,-0.0132 c -0.16414,-0.0179 -0.50938,-0.13483 -0.70376,-0.23839 -0.19216,-0.10239 -0.43614,-0.29406 -0.5885,-0.46242 -0.0617,-0.0682 -0.21028,-0.26511 -0.33018,-0.43779 -0.41475,-0.59728 -0.69608,-0.86885 -1.15034,-1.11017 l -0.18004,-0.0956 0.13371,0.16099 c 0.26846,0.3232 0.4127,0.59148 0.58118,1.08114 0.12351,0.35895 0.18227,0.50197 0.27945,0.68087 0.24057,0.44304 0.5957,0.84286 0.99844,1.12336 0.35996,0.25072 0.65817,0.39009 1.38053,0.64511 0.89765,0.3169 1.24081,0.49015 1.56085,0.78849 0.40117,0.37396 0.5979,0.77269 0.63103,1.27906 0.0108,0.16514 0.0177,0.1953 0.0381,0.16744 0.051,-0.0697 0.14912,-0.41484 0.18209,-0.63953 0.0977,-0.66535 -0.10054,-1.27998 -0.63396,-1.96522 -0.33087,-0.42504 -0.45455,-0.62263 -0.56769,-0.90667 -0.1158,-0.29067 -0.1128,-0.29427 0.0912,-0.10116 0.25812,0.24435 0.53079,0.45142 1.11046,0.84332 0.76475,0.51704 0.98434,0.68488 1.3298,1.01634 0.62501,0.59968 1.0512,1.40203 1.14857,2.16256 0.0315,0.24627 0.0509,0.20933 0.0918,-0.17359 0.11965,-1.12133 -0.29083,-2.16041 -1.18728,-3.0056 -0.28143,-0.26531 -0.48877,-0.42132 -1.16148,-0.87294 -0.82625,-0.55469 -1.18924,-0.84341 -1.61863,-1.28728 -0.81074,-0.83811 -1.29592,-1.78618 -1.41717,-2.76954 -0.0415,-0.33644 -0.0278,-0.81937 0.0319,-1.11985 0.11191,-0.56263 0.3628,-1.11743 0.71812,-1.58872 0.13806,-0.18312 0.40471,-0.47556 0.38735,-0.42489 -0.006,0.0167 -0.0484,0.11688 -0.095,0.22257 -0.11679,0.2653 -0.25526,0.69313 -0.30378,0.93804 -0.12333,0.62269 -0.0924,1.26524 0.0903,1.86786 0.24264,0.80037 0.77812,1.63634 1.53387,2.39539 0.43347,0.43536 0.75354,0.69337 1.62215,1.30634 0.69867,0.49307 0.87662,0.6283 1.16441,0.88467 0.64147,0.57145 1.08528,1.29384 1.2345,2.0095 0.0217,0.10411 0.0396,0.2128 0.0396,0.24162 0,0.0327 0.007,0.0452 0.0188,0.0331 0.0105,-0.0106 0.0303,-0.15231 0.044,-0.31522 0.0842,-0.99614 -0.2601,-1.88808 -1.04389,-2.70416 -0.27347,-0.28476 -0.49565,-0.46785 -1.08202,-0.89259 -0.58908,-0.4267 -0.70855,-0.5245 -1.00108,-0.8184 -0.36685,-0.3686 -0.61983,-0.75351 -0.7797,-1.1867 -0.063,-0.17062 -0.12878,-0.42073 -0.11465,-0.43486 0.004,-0.004 0.0521,0.0626 0.10644,0.14837 0.30188,0.47658 0.7476,0.90827 1.27643,1.23626 0.18184,0.11277 0.49233,0.27294 0.49233,0.25393 0,-0.007 -0.0645,-0.0815 -0.14339,-0.16596 -0.32804,-0.35126 -0.65425,-0.84044 -0.89963,-1.34886 -0.22396,-0.46403 -0.36287,-0.88721 -0.43456,-1.31454 0.10628,0.14867 1.46525,1.75807 1.60655,1.91265 -0.43455,-1.70896 0.14368,-2.32496 0.74368,-2.55394 0.28803,0.25524 0.67462,0.44136 1.14271,0.53895 0.64582,0.13466 0.7121,0.16875 1.27378,0.65331 0.28,0.24155 0.78951,0.63806 1.13245,0.88116 0.6564,0.46528 0.84769,0.67259 0.94479,1.02424 0.15373,0.55676 0.64974,0.93746 1.2213,0.93746 0.67846,0 1.52562,-0.42895 1.86669,-0.94537 0.25266,-0.38257 0.32762,-0.69101 0.29177,-1.19814 -0.0367,-0.51868 -0.19229,-0.91486 -1.25473,-3.19356 -0.8171,-1.7525 -0.94742,-2.07541 -1.10371,-2.73347 -0.16113,-0.67846 -0.2653,-0.87812 -0.88468,-1.69546 -0.27816,-0.36705 -0.67499,-0.91007 -0.88203,-1.20663 l -0.3765,-0.53925 0.14778,-0.26332 c 0.0814,-0.14485 0.34697,-0.59866 0.58998,-1.00842 0.44585,-0.75177 0.52142,-1.00305 0.34571,-1.14887 -0.0409,-0.0339 -0.0982,-0.0494 -0.18062,-0.0434 z m -5.13884,0.74275 c -0.0406,0 -0.43276,0.20544 -0.59057,0.30936 -0.50789,0.33449 -0.89016,0.77302 -1.77902,2.04058 -0.27907,0.39801 -0.27753,0.39406 -0.15658,0.43662 0.10368,0.0365 0.293,0.0272 0.43603,-0.0217 0.19349,-0.066 0.35091,-0.16719 0.51286,-0.32988 0.18006,-0.18086 0.30328,-0.38815 0.49204,-0.8272 0.3136,-0.72947 0.47379,-0.98662 0.84684,-1.35999 0.13613,-0.13628 0.2435,-0.24779 0.2384,-0.24779 z m 4.67788,5.00279 c 0.043,5.6e-4 0.082,0.0117 0.11084,0.0343 0.60517,0.47384 0.99874,0.90566 0.87675,0.95299 -0.55366,0.21479 -0.8811,-0.008 -1.14359,-0.26684 -0.43098,-0.42487 -0.0763,-0.72411 0.156,-0.72046 z m -10.89522,0.18356 c 0,-0.0553 -0.49432,0.41585 -0.61696,0.58792 -0.27554,0.38664 -0.39439,0.72762 -0.39439,1.13304 0,0.43249 0.11813,0.72266 0.53485,1.31425 0.35916,0.50981 0.46361,0.88396 0.40994,1.46615 l -0.0158,0.17183 0.11348,-0.17183 c 0.13707,-0.20773 0.21694,-0.37634 0.28736,-0.60611 0.047,-0.15215 0.0531,-0.2086 0.0542,-0.47591 0.002,-0.41819 -0.0611,-0.63305 -0.31844,-1.08641 -0.32804,-0.57787 -0.39942,-0.79021 -0.40055,-1.1955 -10e-4,-0.34792 0.0703,-0.61474 0.25628,-0.95886 0.0496,-0.0917 0.09,-0.17239 0.09,-0.17857 z"
           sodipodi:nodetypes="ccscccccccccccsscscccssccccssssccccsssscscsccccsssccscccsssssccccssscscssscccsscssscccsssssccsssccsccssssscsccssscscsssscccsssssssssssccsssccscccsssccccssccssscscccccccs"
           inkscape:original-d="m -288.8777,533.11925 v 3e-4 c -0.2472,0.0181 -0.69944,0.27208 -1.65323,0.72486 -0.39615,0.18807 -0.70174,0.31228 -0.93833,0.41023 l 0.0176,-0.0543 c -0.006,0.007 -0.0216,0.0291 -0.027,0.0349 -0.0138,0.0148 -0.0289,0.0275 -0.0431,0.0417 -0.19191,0.08 -0.341,0.14517 -0.44014,0.21201 l -0.2252,0.16332 c -0.0913,0.0162 -0.17863,0.0178 -0.25686,-0.001 -0.16909,-0.0406 -0.27667,-0.18996 -0.23576,-0.32754 0.0465,-0.15619 0.19304,-0.27916 0.41785,-0.35041 l 0.14779,-0.0469 -0.10087,-0.017 c -0.0503,-0.009 -0.11226,-0.0139 -0.18005,-0.0164 h -2.9e-4 c -0.20368,-0.008 -0.45835,0.0106 -0.5976,0.0478 -0.58062,0.15514 -1.01815,0.5296 -1.32393,1.13303 -0.0564,0.11116 -0.23436,0.55355 -0.22608,0.56183 0.003,0.002 0.0817,-0.0359 0.17564,-0.0853 0.29103,-0.15328 0.89015,-0.32116 1.03569,-0.29029 0.0238,0.005 -0.0431,0.0609 -0.20174,0.16919 -0.40798,0.27842 -0.87575,0.63315 -1.7975,1.36293 -0.1881,0.14892 -0.42054,0.32369 -0.51637,0.38823 -0.48749,0.32809 -0.98329,0.48064 -1.28083,0.3941 -0.22962,-0.0667 -0.36632,-0.19883 -0.4287,-0.41345 -0.0424,-0.1462 -0.0274,-0.42623 0.0334,-0.6193 0.0877,-0.27807 0.29161,-0.63427 0.52868,-0.92367 0.11158,-0.1362 0.60319,-0.62255 0.62986,-0.62312 0.0175,-3.5e-4 0.156,-0.13449 0.156,-0.15101 0,-0.0222 -0.44044,0.18112 -0.49145,0.22696 -0.02,0.018 -0.0507,0.0347 -0.0686,0.0375 -0.0178,0.002 -0.0399,0.0167 -0.0493,0.0314 -0.009,0.0145 -0.0171,0.0186 -0.0173,0.008 -2.3e-4,-0.01 -0.0159,-0.004 -0.0355,0.0138 -0.0195,0.0176 -0.0803,0.0512 -0.13518,0.0748 -0.12537,0.0537 -0.5533,0.33887 -0.77999,0.5196 -0.26899,0.21446 -0.67682,0.62386 -0.84802,0.85125 -0.50985,0.67713 -0.75872,1.3225 -0.89024,2.3083 -0.0599,0.44913 -0.12039,0.77537 -0.19236,1.03891 -0.0358,0.1307 -0.059,0.23781 -0.0507,0.23781 0.008,0 0.0719,-0.0751 0.14251,-0.16685 0.30329,-0.39413 0.70128,-0.74843 1.08026,-0.96179 0.39932,-0.22483 0.74152,-0.32798 1.42098,-0.42753 0.37044,-0.0543 0.61304,-0.10297 0.82573,-0.16597 -0.0658,0.13142 -0.12835,0.26365 -0.18502,0.39703 -0.0647,0.0308 -0.12897,0.0644 -0.1909,0.0912 -0.92349,0.39943 -1.40039,0.70515 -1.88135,1.20605 -0.24723,0.25746 -0.44117,0.51999 -0.59145,0.80052 -0.0756,0.14113 -0.21728,0.48358 -0.21728,0.52517 0,0.0131 0.0386,-0.0318 0.0859,-0.0997 0.36578,-0.52492 0.94145,-0.98293 1.53212,-1.21925 0.18391,-0.0735 0.49246,-0.18109 0.49966,-0.17388 0.003,0.003 -0.0574,0.0543 -0.13547,0.11231 -0.7103,0.52818 -1.38916,1.38616 -1.74618,2.20713 -0.35674,0.82027 -0.51325,1.64107 -0.45861,2.40477 0.0105,0.14933 0.0169,0.27427 0.0141,0.27711 -0.0158,0.0158 -0.49653,-0.23642 -0.6712,-0.35217 -0.27957,-0.18525 -0.63097,-0.53655 -0.80785,-0.80785 -0.29803,-0.45711 -0.4522,-0.91982 -0.49731,-1.49136 -0.0113,-0.144 -0.0251,-0.26609 -0.029,-0.27007 -0.005,-0.005 -0.0272,0.0588 -0.051,0.14046 -0.0237,0.0817 -0.0559,0.18947 -0.0713,0.23957 -0.034,0.11079 -0.0789,0.30565 -0.11436,0.49556 -0.0416,0.22084 -0.0356,0.90833 0.009,1.12248 0.12294,0.58552 0.38093,1.06 0.80228,1.47465 0.12151,0.11957 0.22973,0.20865 0.68938,0.56798 0.44558,0.34834 0.68988,0.6413 1.01985,1.22365 0.11976,0.21134 0.26832,0.45727 0.33018,0.54628 0.10741,0.15451 0.4807,0.5486 0.63044,0.66563 l 0.071,0.0554 -0.12139,-0.0132 c -0.16414,-0.0179 -0.50938,-0.13483 -0.70376,-0.23839 -0.19216,-0.10239 -0.43614,-0.29406 -0.5885,-0.46242 -0.0617,-0.0682 -0.21028,-0.26511 -0.33018,-0.43779 -0.41475,-0.59728 -0.69608,-0.86885 -1.15034,-1.11017 l -0.18004,-0.0956 0.13371,0.16099 c 0.26846,0.3232 0.4127,0.59148 0.58118,1.08114 0.12351,0.35895 0.18227,0.50197 0.27945,0.68087 0.24057,0.44304 0.5957,0.84286 0.99844,1.12336 0.35996,0.25072 0.65817,0.39009 1.38053,0.64511 0.89765,0.3169 1.24081,0.49015 1.56085,0.78849 0.40117,0.37396 0.5979,0.77269 0.63103,1.27906 0.0108,0.16514 0.0177,0.1953 0.0381,0.16744 0.051,-0.0697 0.14912,-0.41484 0.18209,-0.63953 0.0977,-0.66535 -0.10054,-1.27998 -0.63396,-1.96522 -0.33087,-0.42504 -0.45455,-0.62263 -0.56769,-0.90667 -0.1158,-0.29067 -0.1128,-0.29427 0.0912,-0.10116 0.25812,0.24435 0.53079,0.45142 1.11046,0.84332 0.76475,0.51704 0.98434,0.68488 1.3298,1.01634 0.62501,0.59968 1.0512,1.40203 1.14857,2.16256 0.0315,0.24627 0.0509,0.20933 0.0918,-0.17359 0.11965,-1.12133 -0.29083,-2.16041 -1.18728,-3.0056 -0.28143,-0.26531 -0.48877,-0.42132 -1.16148,-0.87294 -0.82625,-0.55469 -1.18924,-0.84341 -1.61863,-1.28728 -0.81074,-0.83811 -1.29592,-1.78618 -1.41717,-2.76954 -0.0415,-0.33644 -0.0278,-0.81937 0.0319,-1.11985 0.11191,-0.56263 0.3628,-1.11743 0.71812,-1.58872 0.13806,-0.18312 0.40471,-0.47556 0.38735,-0.42489 -0.006,0.0167 -0.0484,0.11688 -0.095,0.22257 -0.11679,0.2653 -0.25526,0.69313 -0.30378,0.93804 -0.12333,0.62269 -0.0924,1.26524 0.0903,1.86786 0.24264,0.80037 0.77812,1.63634 1.53387,2.39539 0.43347,0.43536 0.75354,0.69337 1.62215,1.30634 0.69867,0.49307 0.87662,0.6283 1.16441,0.88467 0.64147,0.57145 1.08528,1.29384 1.2345,2.0095 0.0217,0.10411 0.0396,0.2128 0.0396,0.24162 0,0.0327 0.007,0.0452 0.0188,0.0331 0.0105,-0.0106 0.0303,-0.15231 0.044,-0.31522 0.0842,-0.99614 -0.2601,-1.88808 -1.04389,-2.70416 -0.27347,-0.28476 -0.49565,-0.46785 -1.08202,-0.89259 -0.58908,-0.4267 -0.70855,-0.5245 -1.00108,-0.8184 -0.36685,-0.3686 -0.61983,-0.75351 -0.7797,-1.1867 -0.063,-0.17062 -0.12878,-0.42073 -0.11465,-0.43486 0.004,-0.004 0.0521,0.0626 0.10644,0.14837 0.30188,0.47658 0.7476,0.90827 1.27643,1.23626 0.18184,0.11277 0.49233,0.27294 0.49233,0.25393 0,-0.007 -0.0645,-0.0815 -0.14339,-0.16596 -0.32804,-0.35126 -0.65425,-0.84044 -0.89963,-1.34886 -0.22396,-0.46403 -0.36287,-0.88721 -0.43456,-1.31454 0.10628,0.14867 1.46525,1.75807 1.60655,1.91265 -0.43455,-1.70896 0.14368,-2.32496 0.74368,-2.55394 0.28803,0.25524 0.67462,0.44136 1.14271,0.53895 0.64582,0.13466 0.7121,0.16875 1.27378,0.65331 0.28,0.24155 0.78951,0.63806 1.13245,0.88116 0.6564,0.46528 0.84769,0.67259 0.94479,1.02424 0.15373,0.55676 0.64974,0.93746 1.2213,0.93746 0.67846,0 1.52562,-0.42895 1.86669,-0.94537 0.25266,-0.38257 0.32762,-0.69101 0.29177,-1.19814 -0.0367,-0.51868 -0.19229,-0.91486 -1.25473,-3.19356 -0.8171,-1.7525 -0.94742,-2.07541 -1.10371,-2.73347 -0.16113,-0.67846 -0.2653,-0.87812 -0.88468,-1.69546 -0.27816,-0.36705 -0.67499,-0.91007 -0.88203,-1.20663 l -0.3765,-0.53925 0.14778,-0.26332 c 0.0814,-0.14485 0.34697,-0.59866 0.58998,-1.00842 0.44585,-0.75177 0.52142,-1.00305 0.34571,-1.14887 -0.0409,-0.0339 -0.0982,-0.0494 -0.18062,-0.0434 z m -5.13884,0.74275 c -0.0406,0 -0.43276,0.20544 -0.59057,0.30936 -0.50789,0.33449 -0.89016,0.77302 -1.77902,2.04058 -0.27907,0.39801 -0.27753,0.39406 -0.15658,0.43662 0.10368,0.0365 0.293,0.0272 0.43603,-0.0217 0.19349,-0.066 0.35091,-0.16719 0.51286,-0.32988 0.18006,-0.18086 0.30328,-0.38815 0.49204,-0.8272 0.3136,-0.72947 0.47379,-0.98662 0.84684,-1.35999 0.13613,-0.13628 0.2435,-0.24779 0.2384,-0.24779 z m 4.67788,5.00279 c 0.043,5.6e-4 0.082,0.0117 0.11084,0.0343 0.60517,0.47384 0.99874,0.90566 0.87675,0.95299 -0.55366,0.21479 -0.8811,-0.008 -1.14359,-0.26684 -0.43098,-0.42487 -0.0763,-0.72411 0.156,-0.72046 z m -10.89522,0.18356 c 0,-0.0553 -0.49432,0.41585 -0.61696,0.58792 -0.27554,0.38664 -0.39439,0.72762 -0.39439,1.13304 0,0.43249 0.11813,0.72266 0.53485,1.31425 0.35916,0.50981 0.46361,0.88396 0.40994,1.46615 l -0.0158,0.17183 0.11348,-0.17183 c 0.13707,-0.20773 0.21694,-0.37634 0.28736,-0.60611 0.047,-0.15215 0.0531,-0.2086 0.0542,-0.47591 0.002,-0.41819 -0.0611,-0.63305 -0.31844,-1.08641 -0.32804,-0.57787 -0.39942,-0.79021 -0.40055,-1.1955 -10e-4,-0.34792 0.0703,-0.61474 0.25628,-0.95886 0.0496,-0.0917 0.09,-0.17239 0.09,-0.17857 z" />
      </g>
      <path
         style="fill:url(#linearGradient253);fill-opacity:1;stroke:none;stroke-width:0.3;stroke-linecap:round;stroke-dasharray:none;stroke-opacity:1"
         d="m -179.9653,517.81141 v -9.00001 l -9.33013,-2.5 v 9 z"
         id="path215"
         sodipodi:nodetypes="ccccc" />
      <path
         style="mix-blend-mode:normal;fill:#000000;fill-opacity:1;stroke:none;stroke-width:0.3;stroke-linecap:round;stroke-dasharray:none;stroke-opacity:1;filter:url(#filter59)"
         d="m -302.14022,545.46973 -1.86602,3.50001 9.33013,2.5 1.86602,-3.50001 z"
         id="path235"
         sodipodi:nodetypes="ccccc"
         clip-path="url(#clipPath67)"
         transform="translate(113.90312,-38.629165)" />
      <path
         style="fill:url(#linearGradient252);fill-opacity:1;stroke:none;stroke-width:0.3;stroke-linecap:round;stroke-dasharray:none;stroke-opacity:1"
         d="m -189.29543,506.3114 -1.86602,3.50001 9.33013,2.5 1.86602,-3.50001 z"
         id="path249"
         sodipodi:nodetypes="ccccc" />
    </g>
  </g>
</svg>
