<?xml version="1.0" encoding="UTF-8" standalone="no"?>
<!-- Created with Inkscape (http://www.inkscape.org/) -->

<svg
   width="210mm"
   height="297mm"
   viewBox="0 0 210 297"
   version="1.1"
   id="svg1"
   inkscape:version="1.3 (0e150ed6c4, 2023-07-21)"
   sodipodi:docname="fbide-icon-simple.svg"
   xmlns:inkscape="http://www.inkscape.org/namespaces/inkscape"
   xmlns:sodipodi="http://sodipodi.sourceforge.net/DTD/sodipodi-0.dtd"
   xmlns="http://www.w3.org/2000/svg"
   xmlns:svg="http://www.w3.org/2000/svg">
  <sodipodi:namedview
     id="namedview1"
     pagecolor="#ffffff"
     bordercolor="#000000"
     borderopacity="0.25"
     inkscape:showpageshadow="2"
     inkscape:pageopacity="0.0"
     inkscape:pagecheckerboard="0"
     inkscape:deskcolor="#d1d1d1"
     inkscape:document-units="mm"
     inkscape:zoom="0.66903058"
     inkscape:cx="397.59019"
     inkscape:cy="561.25984"
     inkscape:current-layer="layer1" />
  <defs
     id="defs1">
    <filter
       inkscape:collect="always"
       style="color-interpolation-filters:sRGB"
       id="filter1"
       x="-0.059096123"
       y="-0.05709823"
       width="1.1181922"
       height="1.1141965">
      <feGaussianBlur
         inkscape:collect="always"
         stdDeviation="3.3169358"
         id="feGaussianBlur1" />
    </filter>
  </defs>
  <g
     inkscape:label="Layer 1"
     inkscape:groupmode="layer"
     id="layer1">
    <g
       id="g2"
       transform="matrix(1.336063,0,0,1.336063,-39.346149,-47.881569)">
      <path
         style="fill:#000000;fill-opacity:1;stroke-width:3.61319;filter:url(#filter1)"
         d="m 89.501317,214.82111 c -3.150595,-2.62227 -14.849465,-8.41846 -25.431615,-12.60016 -6.8055,-2.6893 -9.39311,-4.36074 -14.25994,-9.21122 -6.83003,-6.80715 -9.27146,-12.43518 -9.11793,-21.01893 0.1771,-9.9065 1.16738,-10.85516 3.17885,-3.04568 2.63766,10.24058 10.33373,19.05294 18.40995,21.08029 l 2.51951,0.63228 -1.39237,-5.21098 c -1.6808,-6.29021 -1.00513,-15.01611 1.83249,-23.66597 2.44834,-7.4632 4.03995,-10.61879 8.33164,-16.51861 1.85913,-2.55578 2.90631,-4.6469 2.32711,-4.6469 -0.57931,0 -3.91171,2.80334 -7.40553,6.22948 -5.36613,5.26232 -6.26066,5.83192 -5.76146,3.66864 1.60527,-6.95668 7.7218,-14.099 16.45999,-19.22065 5.73056,-3.3588 5.6631,-4.54996 -0.15823,-2.79759 -6.34625,1.91022 -12.41527,6.06589 -17.13771,11.73469 l -3.98842,4.78781 0.64394,-4.40238 c 3.05123,-20.85892 7.12427,-31.17617 15.07699,-38.19103 3.92762,-3.46443 12.62757,-8.76653 14.38446,-8.76653 0.29307,0 -1.43452,2.41573 -3.83903,5.36828 -5.12892,6.29791 -7.34468,12.70378 -5.15252,14.89619 1.22264,1.22285 2.05584,1.00637 6.38704,-1.65901 5.554835,-3.41837 7.931005,-6.75813 10.453415,-14.69229 2.83831,-8.927782 8.626473,-15.064202 15.320853,-16.242702 l 3.26127,-0.57403 -3.2148,2.63773 c -2.89283,2.37339 -9.69305,13.823872 -8.76251,14.754582 0.43506,0.43577 3.64833,-1.08498 27.20346,-12.870002 10.90816,-5.45761 17.78372,-8.36588 18.8292,-7.9646 2.47417,0.94951 1.99357,4.26574 -1.87262,12.921892 -1.92255,4.30442 -3.72429,8.57809 -4.00389,9.497 -0.30495,1.00155 2.11271,5.97174 6.03685,12.41109 4.74872,7.79255 7.07819,12.82115 8.48698,18.32124 1.06794,4.1695 5.69931,16.83048 10.29192,28.13578 7.09932,17.47572 8.28065,21.1721 7.88584,24.67513 -0.63065,5.59642 -3.66978,9.51145 -9.72675,12.53018 -8.89624,4.43391 -15.8383,2.61263 -19.01362,-4.98798 -0.80509,-1.92722 -3.84783,-5.18309 -7.38902,-7.90665 -3.31113,-2.54661 -7.93421,-6.26691 -10.27351,-8.26739 -2.33932,-2.00031 -6.11356,-4.1322 -8.38727,-4.73745 -2.27367,-0.6051 -5.82585,-2.04436 -7.89372,-3.19801 l -3.75974,-2.09764 -2.79025,3.12336 c -3.40345,3.80961 -4.48777,8.94377 -3.20826,15.19088 1.31578,6.42405 0.1044,5.74508 -7.022943,-3.93609 -3.22784,-4.38458 -6.19895,-7.98837 -6.602435,-8.00849 -0.40345,-0.0233 -0.73357,2.6048 -0.73357,5.83317 0,3.22838 -0.41013,5.86968 -0.91154,5.86968 -1.61047,0 -4.76678,-5.32781 -5.52529,-9.32665 l -0.73598,-3.88007 -1.26013,2.93475 c -3.37398,7.85772 0.18355,22.93489 8.73659,37.02464 4.706665,7.75364 4.844935,8.85796 0.674545,5.38684 z M 152.21701,136.9469 c -1.8302,-3.36097 -7.73242,-8.25426 -9.5369,-7.90673 -5.44724,1.04925 0.73226,9.61879 6.93604,9.61879 3.06796,0 3.41039,-0.22604 2.60086,-1.71206 z m -97.928728,40.06869 c 0,-4.34326 -1.86666,-8.93562 -6.12781,-15.07569 -3.2436,-4.6737 -3.95217,-6.58562 -4.36993,-11.7907 -0.57139,-7.11901 1.25775,-11.83225 6.53987,-16.85176 l 3.06829,-2.91573 -1.5115,3.618 c -2.72783,6.52961 -2.0114,12.02947 2.55059,19.58092 4.89364,8.10045 5.86024,14.14878 3.32309,20.79311 -2.04558,5.35709 -3.4726,6.4427 -3.4726,2.64185 z"
         id="path1" />
      <path
         style="fill:#000000;fill-opacity:1;stroke-width:3.61319;filter:url(#filter1)"
         d="m 89.501317,214.82111 c -3.150595,-2.62227 -14.849465,-8.41846 -25.431615,-12.60016 -6.8055,-2.6893 -9.39311,-4.36074 -14.25994,-9.21122 -6.83003,-6.80715 -9.27146,-12.43518 -9.11793,-21.01893 0.1771,-9.9065 1.16738,-10.85516 3.17885,-3.04568 2.63766,10.24058 10.33373,19.05294 18.40995,21.08029 l 2.51951,0.63228 -1.39237,-5.21098 c -1.6808,-6.29021 -1.00513,-15.01611 1.83249,-23.66597 2.44834,-7.4632 4.03995,-10.61879 8.33164,-16.51861 1.85913,-2.55578 2.90631,-4.6469 2.32711,-4.6469 -0.57931,0 -3.91171,2.80334 -7.40553,6.22948 -5.36613,5.26232 -6.26066,5.83192 -5.76146,3.66864 1.60527,-6.95668 7.7218,-14.099 16.45999,-19.22065 5.73056,-3.3588 5.6631,-4.54996 -0.15823,-2.79759 -6.34625,1.91022 -12.41527,6.06589 -17.13771,11.73469 l -3.98842,4.78781 0.64394,-4.40238 c 3.05123,-20.85892 7.12427,-31.17617 15.07699,-38.19103 3.92762,-3.46443 12.62757,-8.76653 14.38446,-8.76653 0.29307,0 -1.43452,2.41573 -3.83903,5.36828 -5.12892,6.29791 -7.34468,12.70378 -5.15252,14.89619 1.22264,1.22285 2.05584,1.00637 6.38704,-1.65901 5.554835,-3.41837 7.931005,-6.75813 10.453415,-14.69229 2.83831,-8.927782 8.626473,-15.064202 15.320853,-16.242702 l 3.26127,-0.57403 -3.2148,2.63773 c -2.89283,2.37339 -9.69305,13.823872 -8.76251,14.754582 0.43506,0.43577 3.64833,-1.08498 27.20346,-12.870002 10.90816,-5.45761 17.78372,-8.36588 18.8292,-7.9646 2.47417,0.94951 1.99357,4.26574 -1.87262,12.921892 -1.92255,4.30442 -3.72429,8.57809 -4.00389,9.497 -0.30495,1.00155 2.11271,5.97174 6.03685,12.41109 4.74872,7.79255 7.07819,12.82115 8.48698,18.32124 1.06794,4.1695 5.69931,16.83048 10.29192,28.13578 7.09932,17.47572 8.28065,21.1721 7.88584,24.67513 -0.63065,5.59642 -3.66978,9.51145 -9.72675,12.53018 -8.89624,4.43391 -15.8383,2.61263 -19.01362,-4.98798 -0.80509,-1.92722 -3.84783,-5.18309 -7.38902,-7.90665 -3.31113,-2.54661 -7.93421,-6.26691 -10.27351,-8.26739 -2.33932,-2.00031 -6.11356,-4.1322 -8.38727,-4.73745 -2.27367,-0.6051 -5.82585,-2.04436 -7.89372,-3.19801 l -3.75974,-2.09764 -2.79025,3.12336 c -3.40345,3.80961 -4.48777,8.94377 -3.20826,15.19088 1.31578,6.42405 0.1044,5.74508 -7.022943,-3.93609 -3.22784,-4.38458 -6.19895,-7.98837 -6.602435,-8.00849 -0.40345,-0.0233 -0.73357,2.6048 -0.73357,5.83317 0,3.22838 -0.41013,5.86968 -0.91154,5.86968 -1.61047,0 -4.76678,-5.32781 -5.52529,-9.32665 l -0.73598,-3.88007 -1.26013,2.93475 c -3.37398,7.85772 0.18355,22.93489 8.73659,37.02464 4.706665,7.75364 4.844935,8.85796 0.674545,5.38684 z M 152.21701,136.9469 c -1.8302,-3.36097 -7.73242,-8.25426 -9.5369,-7.90673 -5.44724,1.04925 0.73226,9.61879 6.93604,9.61879 3.06796,0 3.41039,-0.22604 2.60086,-1.71206 z m -97.928728,40.06869 c 0,-4.34326 -1.86666,-8.93562 -6.12781,-15.07569 -3.2436,-4.6737 -3.95217,-6.58562 -4.36993,-11.7907 -0.57139,-7.11901 1.25775,-11.83225 6.53987,-16.85176 l 3.06829,-2.91573 -1.5115,3.618 c -2.72783,6.52961 -2.0114,12.02947 2.55059,19.58092 4.89364,8.10045 5.86024,14.14878 3.32309,20.79311 -2.04558,5.35709 -3.4726,6.4427 -3.4726,2.64185 z"
         id="path2" />
      <path
         style="fill:#ffffff;fill-opacity:1;stroke-width:3.61319"
         d="m 89.501317,214.82111 c -3.150595,-2.62227 -14.849465,-8.41846 -25.431615,-12.60016 -6.8055,-2.6893 -9.39311,-4.36074 -14.25994,-9.21122 -6.83003,-6.80715 -9.27146,-12.43518 -9.11793,-21.01893 0.1771,-9.9065 1.16738,-10.85516 3.17885,-3.04568 2.63766,10.24058 10.33373,19.05294 18.40995,21.08029 l 2.51951,0.63228 -1.39237,-5.21098 c -1.6808,-6.29021 -1.00513,-15.01611 1.83249,-23.66597 2.44834,-7.4632 4.03995,-10.61879 8.33164,-16.51861 1.85913,-2.55578 2.90631,-4.6469 2.32711,-4.6469 -0.57931,0 -3.91171,2.80334 -7.40553,6.22948 -5.36613,5.26232 -6.26066,5.83192 -5.76146,3.66864 1.60527,-6.95668 7.7218,-14.099 16.45999,-19.22065 5.73056,-3.3588 5.6631,-4.54996 -0.15823,-2.79759 -6.34625,1.91022 -12.41527,6.06589 -17.13771,11.73469 l -3.98842,4.78781 0.64394,-4.40238 c 3.05123,-20.85892 7.12427,-31.17617 15.07699,-38.19103 3.92762,-3.46443 12.62757,-8.76653 14.38446,-8.76653 0.29307,0 -1.43452,2.41573 -3.83903,5.36828 -5.12892,6.29791 -7.34468,12.70378 -5.15252,14.89619 1.22264,1.22285 2.05584,1.00637 6.38704,-1.65901 5.554835,-3.41837 7.931005,-6.75813 10.453415,-14.69229 2.83831,-8.927782 8.626473,-15.064202 15.320853,-16.242702 l 3.26127,-0.57403 -3.2148,2.63773 c -2.89283,2.37339 -9.69305,13.823872 -8.76251,14.754582 0.43506,0.43577 3.64833,-1.08498 27.20346,-12.870002 10.90816,-5.45761 17.78372,-8.36588 18.8292,-7.9646 2.47417,0.94951 1.99357,4.26574 -1.87262,12.921892 -1.92255,4.30442 -3.72429,8.57809 -4.00389,9.497 -0.30495,1.00155 2.11271,5.97174 6.03685,12.41109 4.74872,7.79255 7.07819,12.82115 8.48698,18.32124 1.06794,4.1695 5.69931,16.83048 10.29192,28.13578 7.09932,17.47572 8.28065,21.1721 7.88584,24.67513 -0.63065,5.59642 -3.66978,9.51145 -9.72675,12.53018 -8.89624,4.43391 -15.8383,2.61263 -19.01362,-4.98798 -0.80509,-1.92722 -3.84783,-5.18309 -7.38902,-7.90665 -3.31113,-2.54661 -7.93421,-6.26691 -10.27351,-8.26739 -2.33932,-2.00031 -6.11356,-4.1322 -8.38727,-4.73745 -2.27367,-0.6051 -5.82585,-2.04436 -7.89372,-3.19801 l -3.75974,-2.09764 -2.79025,3.12336 c -3.40345,3.80961 -4.48777,8.94377 -3.20826,15.19088 1.31578,6.42405 0.1044,5.74508 -7.022943,-3.93609 -3.22784,-4.38458 -6.19895,-7.98837 -6.602435,-8.00849 -0.40345,-0.0233 -0.73357,2.6048 -0.73357,5.83317 0,3.22838 -0.41013,5.86968 -0.91154,5.86968 -1.61047,0 -4.76678,-5.32781 -5.52529,-9.32665 l -0.73598,-3.88007 -1.26013,2.93475 c -3.37398,7.85772 0.18355,22.93489 8.73659,37.02464 4.706665,7.75364 4.844935,8.85796 0.674545,5.38684 z M 152.21701,136.9469 c -1.8302,-3.36097 -7.73242,-8.25426 -9.5369,-7.90673 -5.44724,1.04925 0.73226,9.61879 6.93604,9.61879 3.06796,0 3.41039,-0.22604 2.60086,-1.71206 z m -97.928728,40.06869 c 0,-4.34326 -1.86666,-8.93562 -6.12781,-15.07569 -3.2436,-4.6737 -3.95217,-6.58562 -4.36993,-11.7907 -0.57139,-7.11901 1.25775,-11.83225 6.53987,-16.85176 l 3.06829,-2.91573 -1.5115,3.618 c -2.72783,6.52961 -2.0114,12.02947 2.55059,19.58092 4.89364,8.10045 5.86024,14.14878 3.32309,20.79311 -2.04558,5.35709 -3.4726,6.4427 -3.4726,2.64185 z"
         id="path4" />
    </g>
  </g>
</svg>
