/* XPM */
static char * compnrun_xpm[] = {
"16 15 56 1",
" 	c #C0C0C0",
".	c #6B6B6B",
"+	c #000000",
"@	c #FFA500",
"#	c #FFB584",
"$	c #FF8C4A",
"%	c #FF8439",
"&	c #F77331",
"*	c #D66329",
"=	c #52AD39",
"-	c #5ABD42",
";	c #4AA539",
">	c #FFC694",
",	c #FF9C5A",
"'	c #FF9452",
")	c #FF8442",
"!	c #FF7B39",
"~	c #7BCE63",
"{	c #73CE5A",
"]	c #6BC64A",
"^	c #FFAD6B",
"/	c #FFA563",
"(	c #9CE77B",
"_	c #94DE7B",
":	c #84D663",
"<	c #FFB56B",
"[	c #FFB573",
"}	c #FFAD63",
"|	c #BDF79C",
"1	c #ADEF94",
"2	c #428431",
"3	c #5AADFF",
"4	c #5294DE",
"5	c #D6D631",
"6	c #ADAD29",
"7	c #BDDEFF",
"8	c #84BDFF",
"9	c #7BBDFF",
"0	c #73B5FF",
"a	c #6BB5FF",
"b	c #FFFF5A",
"c	c #FFFF52",
"d	c #FFFF4A",
"e	c #FFFF42",
"f	c #D6D673",
"g	c #94CEFF",
"h	c #94C6FF",
"i	c #8CC6FF",
"j	c #FFFF73",
"k	c #FFFF6B",
"l	c #9CCEFF",
"m	c #FFFF8C",
"n	c #FFFF84",
"o	c #6BA5DE",
"p	c #4284C6",
"q	c #A5A55A",
"                ",
" .+++++++++++++ ",
" +@@@@@@@@@@@@+ ",
" +.++++++++++++ ",
" +#$%&&*=----;+ ",
" +>,')!*=~{]-;+ ",
" +>^/'$*=(_:];+ ",
" +><[},*=|1_{;+ ",
" +&*****=====2+ ",
" +344444555556+ ",
" +7890a45bcdef+ ",
" +7ghi845jkbdf+ ",
" +7hllg45mnkcf+ ",
" +9oooop6ffffq+ ",
" ++++++++++++++ "};
