/* XPM */
static char * compile_xpm[] = {
"16 15 47 1",
" 	c #6B6B6B",
".	c #313131",
"+	c #000000",
"@	c #C0C0C0",
"#	c #FF8C4A",
"$	c #FF8439",
"%	c #F77331",
"&	c #5ABD42",
"*	c #FF9C5A",
"=	c #FF9452",
"-	c #FF8442",
";	c #FF7B39",
">	c #73CE5A",
",	c #7BCE63",
"'	c #6BC64A",
")	c #FFAD6B",
"!	c #FFA563",
"~	c #94DE7B",
"{	c #9CE77B",
"]	c #84D663",
"^	c #FFB56B",
"/	c #FFB573",
"(	c #FFAD63",
"_	c #FF944A",
":	c #ADEF94",
"<	c #BDF79C",
"[	c #D6FFB5",
"}	c #6BB5FF",
"|	c #63ADFF",
"1	c #5AADF7",
"2	c #5AA5F7",
"3	c #FFFF42",
"4	c #84BDFF",
"5	c #7BBDFF",
"6	c #73B5FF",
"7	c #FFFF52",
"8	c #FFFF5A",
"9	c #FFFF4A",
"0	c #94CEFF",
"a	c #94C6FF",
"b	c #8CC6FF",
"c	c #FFFF6B",
"d	c #FFFF73",
"e	c #9CCEFF",
"f	c #FFFF84",
"g	c #FFFF8C",
"h	c #FFFF9C",
" .....+@@ .....+",
".#$%%%+@@.&&&&&+",
".*=-;%+@@.>,>'&+",
".)!=#$+@@.~{~]'+",
".^/(*_+@@.:<:~>+",
".!)/)!+@@.<[<{,+",
"+++++++@@+++++++",
"@@@@@@@@@@@@@@@@",
" .....+@@ .....+",
".}|122+@@.33333+",
".456}|+@@.78793+",
".0ab45+@@.cdc89+",
".aee0a+@@.fgfc7+",
".54bae+@@.ghgd8+",
"+++++++@@+++++++"};
