/* XPM */
static char * new_xpm[] = {
"16 15 11 1",
" 	c #C0C0C0",
".	c #6B6B6B",
"+	c #292929",
"@	c #000000",
"#	c #FFFFFF",
"$	c #F7F7F7",
"%	c #DEDEDE",
"&	c #BDBDBD",
"*	c #D6D6D6",
"=	c #CECECE",
"-	c #949494",
"  .+++++++@@@@  ",
"  @#$$$$$$$$%+  ",
"  @$%%%%%%%%&+  ",
"  @$%%%%%%%*&+  ",
"  @$%%%%%%**&+  ",
"  @$%%%%%***&+  ",
"  @$%%%%****&+  ",
"  @$%%%%****&+  ",
"  @$%%%*****&+  ",
"  @$%%******&+  ",
"  @$%%*****=&+  ",
"  @$%*****==&+  ",
"  @$*****===&+  ",
"  @*&&&&&&&&-+  ",
"  @+++++++++++  "};
