/* XPM */
static char * open_xpm[] = {
"16 15 18 1",
" 	c #C0C0C0",
".	c #6B6B6B",
"+	c #292929",
"@	c #000000",
"#	c #FFFFFF",
"$	c #F7F7F7",
"%	c #DEDEDE",
"&	c #D6D6D6",
"*	c #BDBDBD",
"=	c #636363",
"-	c #FFEFCE",
";	c #FFD694",
">	c #FFCE7B",
",	c #FFBD4A",
"'	c #CECECE",
")	c #FF9C00",
"!	c #CE8C00",
"~	c #949494",
"   .+++++++@@@@ ",
"   @#$$$$$$$$%+ ",
"   @$%%%%%%%&*+ ",
"   @$%=%==%=&*+ ",
" @@@$%%%%%&&&*+ ",
" @-@$%==%==&&*+ ",
" @;-@%%%%&&&&*+ ",
" @;>-@=%==&=&*+ ",
" @;>,-@&&&&&&*+ ",
" @;>,,-@=&=&'*+ ",
"  @>,,,-@&&''*+ ",
"  @>,,,,-@'='*+ ",
"   @)))))-@''*+ ",
"    @@!!!!!@*~+ ",
"      @@@@@@++@ "};
