/* XPM */
static char * output_xpm[] = {
"16 15 16 1",
" 	c #6B6B6B",
".	c #000000",
"+	c #292929",
"@	c #FFFFFF",
"#	c #F7F7F7",
"$	c #DEDEDE",
"%	c #BDBDBD",
"&	c #9C9C9C",
"*	c #5A5A5A",
"=	c #CEDEF7",
"-	c #BDD6EF",
";	c #9CBDEF",
">	c #84ADE7",
",	c #6394DE",
"'	c #3173D6",
")	c #949494",
" ....+++++++....",
".@############$+",
".#$$$$$$$$$$$$%+",
".#$&*********$%+",
".#$*=------;*$%+",
".#$*-;;;>>>,*$%+",
".#$*;,,,,,,'*$%+",
".#$**********$%+",
".#$&*********$%+",
".#$*=------;*$%+",
".#$*-;;;>>>,*$%+",
".#$*;,,,,,,'*$%+",
".#$**********$%+",
".$%%%%%%%%%%%%)+",
".....++++++++++."};
