/* XPM */
static char * paste_xpm[] = {
"16 15 17 1",
" 	c #C0C0C0",
".	c #6B6B6B",
"+	c #000000",
"@	c #E7AD00",
"#	c #C69400",
"$	c #FFFFFF",
"%	c #CECECE",
"&	c #B58400",
"*	c #F7F7F7",
"=	c #848484",
"-	c #DEDEDE",
";	c #A57B00",
">	c #737373",
",	c #BDBDBD",
"'	c #D6D6D6",
")	c #949494",
"!	c #8C6300",
" .+++++++++++++ ",
" +@###+$%+###&+ ",
" +#$**=%%=**-;+ ",
" +#*--->>---,;+ ",
" +#*-------',;+ ",
" +#*------'',;+ ",
" +#*-----''',;+ ",
" +#*----'''',;+ ",
" +#*---''''',;+ ",
" +#*---'''%',;+ ",
" +#*--'''%%',;+ ",
" +#*-'''%%%%,;+ ",
" +#',,,,,,,,);+ ",
" +&;;;;;;;;;;!+ ",
" ++++++++++++++ "};
