/* XPM */
static char * qrun_xpm[] = {
"16 15 8 1",
" 	c #C0C0C0",
".	c #000000",
"+	c #8CFF8C",
"@	c #00DE00",
"#	c #42C600",
"$	c #39B500",
"%	c #39A500",
"&	c #319C00",
"      .         ",
"     .+.        ",
"    .+@#.       ",
"   .+@###.      ",
"    .##$$$.     ",
"     .#$$$%.    ",
"      .$$$$%.   ",
"       .$$$%&.  ",
"      .+$$%&.   ",
"     .+#$$&.    ",
"    .+#$$&.     ",
"   .+#$$&.      ",
"    .%%&.       ",
"     .&.        ",
"      .         "};
