/* XPM */
static char * run_xpm[] = {
"16 15 12 1",
" 	c #C0C0C0",
".	c #6B6B6B",
"+	c #000000",
"@	c #FFA500",
"#	c #F7F7F7",
"$	c #E7E7DE",
"%	c #E7E7E7",
"&	c #B5B5B5",
"*	c #DEDEDE",
"=	c #D6D6D6",
"-	c #CECECE",
";	c #D6D6CE",
"                ",
" .+++++++++++++ ",
" +@@@@@@@@@@@@+ ",
" +.++++++++++++ ",
" +#$$$$$$$$%$&+ ",
" +#******%%*=&+ ",
" +#*****%*==-&+ ",
" +#***%*==-==&+ ",
" +#***%*=-===&+ ",
" +#***=======&+ ",
" +#%*=-======&+ ",
" +#*=========&+ ",
" +#=-=====---&+ ",
" +;&&&&&&&&&&&+ ",
" ++++++++++++++ "};
