/* XPM */
static char * saveall_xpm[] = {
"16 15 22 1",
" 	c #6B6B6B",
".	c #000000",
"+	c #C0C0C0",
"@	c #FFFFFF",
"#	c #F7F7F7",
"$	c #FFEF00",
"%	c #FFF77B",
"&	c #DEDEDE",
"*	c #D6D6D6",
"=	c #FFE700",
"-	c #FFDE00",
";	c #C6AD00",
">	c #7B7B7B",
",	c #4A4A4A",
"'	c #FFD600",
")	c #FFCE00",
"!	c #6B6363",
"~	c #FFC600",
"{	c #8C8C8C",
"]	c #FFBD00",
"^	c #9C9C9C",
"/	c #A58C00",
" ...........++++",
".@ ###### $.++++",
".%.&&&&&&...++++",
".%.& ...........",
".%.&.@ ###### $.",
".%.*.%.&&&&&&...",
".%...%.&&&&&*...",
".%=-.%.&&****.;.",
".%--.%.******.;.",
".%->.%........;.",
".-;,.%=--'')));.",
"+....%-->!!>~~;.",
"++++.%->{!!!>];.",
"++++.-;, ,^^,;/.",
"+++++..........."};
