/* XPM */
static char * save_xpm[] = {
"16 15 22 1",
" 	c #6B6B6B",
".	c #000000",
"+	c #FFFFFF",
"@	c #FFF77B",
"#	c #F7F7F7",
"$	c #FFEF00",
"%	c #DEDEDE",
"&	c #FFCE00",
"*	c #D6D6D6",
"=	c #C6AD00",
"-	c #FFE700",
";	c #FFDE00",
">	c #FFD600",
",	c #FFC600",
"'	c #7B7B7B",
")	c #6B6363",
"!	c #8C8C8C",
"~	c #FFBD00",
"{	c #A89890",
"]	c #4A4A4A",
"^	c #9C9C9C",
"/	c #A58C00",
" ...............",
".+@ ######## @$.",
".@$.%%%%%%%%.&..",
".@$.%%%%%%%*.&..",
".@$.%%%%****.&=.",
".@$.%%%*****.&=.",
".@$.********.&=.",
".@$..........&=.",
".@--;;;>>>&&&,=.",
".@-;;'))))',,,=.",
".@;;'!!!)))'~~=.",
".@;;)!!!){{)~~=.",
".@;;)!!!){{)~~=.",
".;==]   ]^^]==/.",
"{..............."};
