/* XPM */
const char *add[] = {
/* columns rows colors chars-per-pixel */
"16 16 11 1",
"  c gray6",
". c #353535",
"X c #5B5B5B",
"o c #318D00",
"O c #3BA300",
"+ c #3FB300",
"@ c #44C000",
"# c #50E000",
"$ c gray75",
"% c #94FF94",
"& c #D6FFBF",
/* pixels */
"$$$$$$$$$$$$$$$$",
"$$$$$$X...$$$$$$",
"$$$$$X&%%@ $$$$$",
"$$$$$.%#@O $$$$$",
"$$$$$.%@@O $$$$$",
"$$X...%@@O    $$",
"$X&%%%&@@@&%%@ $",
"$.%#@@@@@@@@@O $",
"$.%@@@@@@@@@+O $",
"$.@OOO@@@OOOOo $",
"$$    %@@O    $$",
"$$$$$ %@@O $$$$$",
"$$$$$ %@+O $$$$$",
"$$$$$ @OOo $$$$$",
"$$$$$$    $$$$$$",
"$$$$$$$$$$$$$$$$"
};
