/* XPM */
const char *addbook[] = {
/* columns rows colors chars-per-pixel */
"16 16 16 1",
"  c black",
". c gray6",
"X c #353535",
"o c #7A4D00",
"O c #686868",
"+ c #3FB000",
"@ c #9E6400",
"# c #AC6D00",
"$ c #C67E00",
"% c #9F8B67",
"& c #D69A2E",
"* c #FFB737",
"= c gray75",
"- c #8FFF8F",
"; c #FFDFA5",
": c #FFE8BD",
/* pixels */
"====O           ",
"==== :;*******$ ",
"====XXX$$$$$$$@ ",
"===X+++.$$$$$$@ ",
"===X+-+.$$$$$$@ ",
"=OXX+-+...$$$$@ ",
"O++++-++++.$$$@ ",
"X+-------+.#$$@ ",
"X++++-++++.#$$@ ",
"=...+-+...#$$$@ ",
"===.+-+.##$$$$@ ",
"===.+++.#$$$$$@ ",
"====...#$$$$$$@ ",
"==== &%$$$$$$$@ ",
"==== $%@@@@@@@o ",
"====            "
};
