/* XPM */
const char *arricon[] = {
/* columns rows colors chars-per-pixel */
"16 16 22 1",
"  c black",
". c #4B4B4B",
"X c #656565",
"o c #686868",
"O c #3675D0",
"+ c #6595DB",
"@ c #888888",
"# c #B1B1B1",
"$ c #87ADE3",
"% c #9DBCE8",
"& c #CECECE",
"* c gray81",
"= c #D1D0CF",
"- c #D0D0D0",
"; c gray82",
": c gray85",
"> c gray87",
", c #DFDFDF",
"< c #E0E0DF",
"1 c gray88",
"2 c #E1E1E1",
"3 c #F1F1F0",
/* pixels */
"o               ",
" %$$$+++++++++O ",
" o              ",
" 3<<<<<<<<<<:-# ",
" 3,,,,,,,11:--# ",
" 3,@X,,@X<:@X*# ",
" 3,X.11X.:-X.-# ",
" 3,,,111:**---# ",
" 3,,,,1:*-----# ",
" 3,,,1:-------# ",
" 31@X:*@X--@X-# ",
" 3,X.**X.--X.-# ",
" 31:----------# ",
" 3:*-------***# ",
" =############# ",
"                "
};
