/* XPM */
const char *bughlp[] = {
/* columns rows colors chars-per-pixel */
"16 16 11 1",
"  c black",
". c #555555",
"X c #DA00FE",
"o c #EB32FF",
"O c #F668FF",
"+ c gray75",
"@ c #F886FF",
"# c #FC98FF",
"$ c #FFB3FF",
"% c #FCB4FE",
"& c #FFF5FF",
/* pixels */
"++++++++++++++ +",
"+++++++++++++ @ ",
"++++++++++++ %X ",
"+++++++++++ %OX ",
"++++++++++ %OoX ",
"+++++++++ %OoX +",
"+ ++++++ %OoX ++",
" & ++++ %OoX +++",
" $$ ++ %OoX ++++",
" $O$  %OoX +++++",
".OOo##OoX ++++++",
"+ ooooXX +++++++",
"++ ooXX ++++++++",
"+++ XX +++++++++",
"++++  ++++++++++",
"++++++++++++++++"
};
