/* XPM */
const char *closefl[] = {
/* columns rows colors chars-per-pixel */
"16 16 18 1",
"  c black",
". c gray6",
"X c #2F2F2F",
"o c #353535",
"O c #656565",
"+ c #686868",
"@ c #EF100F",
"# c #F0403F",
"$ c #F07A78",
"% c gray59",
"& c #B2B2B2",
"* c gray72",
"= c gray75",
"- c gray81",
"; c #D0D0D0",
": c #DFDFDF",
"> c #F3F3F3",
", c gray100",
/* pixels */
"====+XXXXXXX    ",
"==== ,>>>>>>>>:X",
"=oo= >oo::::::*X",
"o@@o o#@.::::;*X",
"o@$@o@$@.OO:O;*X",
"o@$$@$$@.&:;;;*X",
"=o@$$$@.O:OO;;*X",
"=o@$$$@.&:;;;;*X",
"o@$$@$$@.OO;O;*X",
"o@$@ @$@.&;;;;*X",
"o@@.  @@.O;O;-*X",
"=..= >..&;;;--*X",
"==== >;OO;O-O-*X",
"==== >;;;;----*X",
"==== ;********%X",
"==== XXXXXXXXXX "
};
