/* XPM */
const char *clrhist[] = {
/* columns rows colors chars-per-pixel */
"16 16 30 1",
"  c black",
". c #1B3810",
"X c #686868",
"o c #759967",
"O c #759E68",
"+ c #769E68",
"@ c #79A56A",
"# c #7AA56A",
"$ c #7CAC6D",
"% c #7CAD6D",
"& c #7DAC6C",
"* c #7DAE6C",
"= c #80B56E",
"- c #81B46F",
"; c #82B46E",
": c #82B46F",
"> c #82B56F",
", c #84BD6F",
"< c #83BD71",
"1 c #84BC70",
"2 c #84BC71",
"3 c #85BD71",
"4 c #87BE73",
"5 c #87C372",
"6 c #88C372",
"7 c #88C472",
"8 c #8AC873",
"9 c #8FCA79",
"0 c #94D77C",
"q c gray75",
/* pixels */
"qqqqqqX Xqqqqqqq",
"qqqqqq q qqqqqqq",
"qqqqq     qqqqqq",
"qqqX 00999  qqqq",
"qq 0009444## qqq",
"q 0094444##oo qq",
"q 094444##ooo qq",
"q ........... qq",
"qq 85,-$#Ooo qqq",
"qq 854-$#Ooo qqq",
"qq 75,>$#Ooo qqq",
"qq 754>$#Ooo qqq",
"qq 85,**#Ooo qqq",
"qq 85,>*#Ooo qqq",
"qq 874>*#Ooo qqq",
"qqq         qqqq"
};
