/* XPM */
const char *compres[] = {
/* columns rows colors chars-per-pixel */
"16 16 22 1",
"  c black",
". c #686868",
"X c #499935",
"o c #5ABD42",
"O c #4681C1",
"+ c #5AA5F7",
"@ c #74B6FA",
"# c #BE5825",
"$ c #F77331",
"% c #94DC78",
"& c #FB9654",
"* c #FFB270",
"= c #C7C733",
"- c #FFFF42",
"; c gray75",
": c #98CBFE",
"> c #D6FFB5",
", c #FFD0A7",
"< c #FFFF9F",
"1 c #C6E3FF",
"2 c #EDFFDE",
"3 c #FFFFEA",
/* pixels */
";;;;;;;;.    ;;;",
";;;;;;;; 1:@ ;;;",
";;;;.    :@+ ;;;",
";;;; 2>% :@+ ;;;",
";;;; >%o :@+ ;;;",
";;;; >%o :@+    ",
".    >%o :@+ 3< ",
" ,*& >%o :@+ <- ",
" *&$ >%o :@+ <- ",
" *&$ >%o :@+ <- ",
" *&$ >%o :@+ <- ",
" *&$ >%o :@+ <- ",
" *&$ >%o :@+ <- ",
" &$# %oX @+O -= ",
"                ",
";;;;;;;;;;;;;;;;"
};
