/* XPM */
const char *compopt[] = {
/* columns rows colors chars-per-pixel */
"16 16 21 1",
"  c black",
". c #686868",
"X c #FFA200",
"o c #B1B1B1",
"O c gray75",
"+ c #CECECE",
"@ c gray81",
"# c #D1D0CF",
"$ c #D0D0D0",
"% c gray82",
"& c #D2D2D2",
"* c #D5D5D5",
"= c gainsboro",
"- c #DDDDDD",
"; c #DFDFDF",
": c #E0E0DF",
"> c gray88",
", c #E1E1E0",
"< c #E1E1E1",
"1 c #F1F1F0",
"2 c gray100",
/* pixels */
"OOOOOOOOOOOOOOOO",
"O.             O",
"O XXXXXXXXXXXX O",
"O .            O",
"O 1::::::::,:o O",
"O 1;        *o O",
"O 1; 222222 @o O",
"O 1;        $o O",
"O 1;;;;;$@$$$o O",
"O 1;        $o O",
"O 1, 222222 $o O",
"O 1;        $o O",
"O 1$@$$$$$@@@o O",
"O $ooooooooooo O",
"O              O",
"OOOOOOOOOOOOOOOO"
};
