/* XPM */
const char *copy[] = {
/* columns rows colors chars-per-pixel */
"16 16 44 1",
"  c black",
". c #888A85",
"X c #898B86",
"o c #8A8C87",
"O c #8C8E89",
"+ c #8D8F8A",
"@ c #8E9189",
"# c #8F908B",
"$ c #989A95",
"% c #989A96",
"& c #9A9B97",
"* c #C3C4C3",
"= c #C4C4C3",
"- c #C6C6C5",
"; c #C7C7C6",
": c #C8C8C7",
"> c gray83",
", c #E3E3E2",
"< c #E3E4E2",
"1 c #EAEAEA",
"2 c gray92",
"3 c #ECECEC",
"4 c #EDEDEC",
"5 c #EEEEED",
"6 c #EEEEEE",
"7 c #EFEFEE",
"8 c #F0F0EF",
"9 c gray95",
"0 c #F3F3F2",
"q c #F3F3F3",
"w c #F4F4F3",
"e c #F4F4F4",
"r c #F6F6F5",
"t c #F7F7F6",
"y c #F8F8F7",
"u c #F9F9F9",
"i c #FAFAF9",
"p c gray98",
"a c #FBFBFB",
"s c #FCFCFB",
"d c #FEFEFD",
"f c #FEFEFE",
"g c gray100",
"h c gray75",
/* pixels */
"+XX.XX.....Ohhhh",
"Xgggggggggg.hhhh",
"Xg77777777g.hhhh",
"Xg8;%.XXX.X.XXX+",
"Xg88ogggggggggg.",
"Xg8;Xg88888888g.",
"Xg87og8--;-;-8g.",
"Xg7-Xg88888888g.",
"Xg77og8-;;;;88gX",
"Xg1=Xg8888888a8X",
"Xa41og8-;;;-7t-.",
"X8q8og88888+o+o.",
"OooXXg8877a%at<X",
"hhhhXa887aa%a,..",
"hhhhXqttaa>%<..h",
"hhhhoX...X...Xhh"
};
