/* XPM */
const char *cut[] = {
/* columns rows colors chars-per-pixel */
"16 16 94 2",
"   c black",
".  c #9C2F2C",
"X  c #A60101",
"o  c #A60202",
"O  c #A70202",
"+  c #A40502",
"@  c #A60606",
"#  c #A70606",
"$  c #A00A00",
"%  c #A80303",
"&  c #A80403",
"*  c #A80606",
"=  c #A80707",
"-  c #A90707",
";  c #A90A0A",
":  c #A90B0B",
">  c #AA0808",
",  c #AA0909",
"<  c #AA0B0B",
"1  c #AA0C0C",
"2  c #AA0D0D",
"3  c #AB0D0D",
"4  c #AA0E0E",
"5  c #AB1010",
"6  c #AB1111",
"7  c #AB1313",
"8  c #AB1414",
"9  c #AB1616",
"0  c #AD1717",
"q  c #AE1818",
"w  c #AE1919",
"e  c #AF1A1A",
"r  c #B50B0B",
"t  c #B70F0E",
"y  c #B80D0D",
"u  c #A34A45",
"i  c #C01513",
"p  c #C01514",
"a  c #C71A19",
"s  c #C91A1A",
"d  c #CA1B1A",
"f  c #CB1F1F",
"g  c #CD1D1C",
"h  c #CD1D1D",
"j  c #CE1D1D",
"k  c #CF1D1D",
"l  c #CE1E1E",
"z  c #D01F1F",
"x  c #D11F1F",
"c  c #D12020",
"v  c #D22020",
"b  c #D32121",
"n  c #D42222",
"m  c #D52323",
"M  c #D62323",
"N  c #DB2727",
"B  c #898984",
"V  c #8A8C87",
"C  c #8B8D88",
"Z  c #8C8E89",
"A  c #8D8F8A",
"S  c #8E908B",
"D  c #8F918C",
"F  c #90918D",
"G  c #91938E",
"H  c #92948F",
"J  c #939590",
"K  c #959792",
"L  c #9A9C97",
"P  c #9FA09C",
"I  c #A8A9A5",
"U  c #AAACA7",
"Y  c #AEAFAB",
"T  c #B3B2AF",
"R  c #B3B5B0",
"E  c #B5B6B2",
"W  c #B5B6B3",
"Q  c #B6B8B3",
"!  c #B8BAB5",
"~  c #BABBB7",
"^  c #C5C6C3",
"/  c #C6C8C3",
"(  c #CCCEC9",
")  c #CDCECB",
"_  c #D2D3D0",
"`  c #D2D4D0",
"'  c #DBDCD9",
"]  c #E1E1DF",
"[  c #E7E8E6",
"{  c #EFF0EF",
"}  c #F5F6F5",
"|  c #F7F7F6",
" . c gray97",
".. c gray75",
/* pixels */
"......C C J ........C S ........",
"......S } B K ......F _ F ......",
"......C ` } G ....V U / S ......",
"......A R | C K ..S ( Y C ......",
"......V C ' } S A W ( C C ......",
"........A E } C P E ~ C ........",
"........C C ] } L I C C ........",
"..........A ~ [ U S V ..........",
"..........C B ^ T . A ..........",
"........w 9 # u o a q w ........",
"....w # c h y + O d c z < w ....",
"..e # x & p o ..$ h t - h # w ..",
"..8 M & ..h < ....& d ..o c 8 ..",
"..3 x ..r b 1 ...., b y ..x 6 ..",
"..8 N x x # e ....e < b x h 6 ..",
"..w 1 5 8 e ........w 1 < 1 e .."
};
