/* XPM */
const char *dos[] = {
/* columns rows colors chars-per-pixel */
"16 16 162 2",
"   c black",
".  c #010201",
"X  c #020302",
"o  c #060606",
"O  c #060706",
"+  c #070706",
"@  c #070806",
"#  c #080807",
"$  c #090908",
"%  c #0A0B09",
"&  c #0B0C0A",
"*  c #0D0E0C",
"=  c #0F100D",
"-  c #131412",
";  c #181F11",
":  c #182011",
">  c #192011",
",  c #273019",
"<  c #273119",
"1  c #26311A",
"2  c #27311A",
"3  c #27321A",
"4  c #27321B",
"5  c #28321A",
"6  c #28331B",
"7  c #29331D",
"8  c #28341B",
"9  c #29341C",
"0  c #29351C",
"q  c #232423",
"w  c #2F312D",
"e  c #343633",
"r  c #364323",
"t  c #364423",
"y  c #364523",
"u  c #374523",
"i  c #374525",
"p  c #3B4A26",
"a  c #3B4A27",
"s  c #3C4B27",
"d  c #3C4C27",
"f  c #46562B",
"g  c #46572C",
"h  c #4C563D",
"j  c #4E5E36",
"k  c #4C5A3A",
"l  c #4E6132",
"z  c #4F6232",
"x  c #4F6332",
"c  c #536537",
"v  c #545851",
"b  c #555952",
"n  c #5A5E57",
"m  c #5F625B",
"M  c #616E4D",
"N  c #62655E",
"B  c #616A55",
"V  c #657C41",
"C  c #647151",
"Z  c #657152",
"A  c #6A7559",
"S  c #697850",
"D  c #636660",
"F  c #646860",
"G  c #656961",
"H  c #6A6E66",
"J  c #6F736B",
"K  c #737D64",
"L  c #747772",
"P  c #747870",
"I  c #767972",
"U  c #777A73",
"Y  c #787C74",
"T  c #797D75",
"R  c #7D7F79",
"E  c #73825F",
"W  c #758954",
"Q  c #768560",
"!  c #798764",
"~  c #7A846C",
"^  c #7B8865",
"/  c #7C8967",
"(  c #7E8B69",
")  c #7F8C6B",
"_  c #7D8079",
"`  c #7E807A",
"'  c #7E817A",
"]  c #808D6D",
"[  c #81837D",
"{  c #81837E",
"}  c #82857E",
"|  c #83867E",
" . c #828E70",
".. c #859869",
"X. c #849071",
"o. c #849074",
"O. c #8C9D72",
"+. c #8E9F74",
"@. c #90A076",
"#. c #92A279",
"$. c #94A27D",
"%. c #95A47F",
"&. c #848681",
"*. c #868782",
"=. c #878983",
"-. c #878A82",
";. c #888B83",
":. c #8A8C87",
">. c #8B8C87",
",. c #8C8F87",
"<. c #8D8F8A",
"1. c #8D9088",
"2. c #8F918C",
"3. c #91928D",
"4. c #92958D",
"5. c #939590",
"6. c #969893",
"7. c #979A92",
"8. c #989995",
"9. c #989996",
"0. c #9A9B97",
"q. c #999C94",
"w. c #97A681",
"e. c #99A38A",
"r. c #9DA098",
"t. c #A0A19D",
"y. c #A2A59C",
"u. c #A3A69D",
"i. c #A3A69E",
"p. c #A2B387",
"a. c #A4B58A",
"s. c #A5B68D",
"d. c #A8B88E",
"f. c #A9B990",
"g. c #AABA92",
"h. c #ACBC94",
"j. c #AEBD97",
"k. c #AFBE98",
"l. c #B1BF9B",
"z. c #B0B1AE",
"x. c #B2B4B1",
"c. c #B4B6B1",
"v. c #B7B9B4",
"b. c #C0C1BE",
"n. c #CCCDCB",
"m. c #CDCECC",
"M. c #CDD2C6",
"N. c #CED1C8",
"B. c #CFD3CB",
"V. c #D3D6CD",
"C. c #D6D7D5",
"Z. c #D7D7D5",
"A. c #D7D8D6",
"S. c #D7D8D7",
"D. c #D9DED4",
"F. c #DBDBD9",
"G. c #DDDDDC",
"H. c #DDDEDC",
"J. c #DDDEDD",
"K. c #E0E3DB",
"L. c #ECEDEA",
"P. c #F2F3F1",
/* pixels */
"y.r.q.4.,.;.| R T P J H N N n v ",
"y.c.Z.J.J.J.J.G.G.J.J.F.m.c.L b ",
"y.Z.e # # # # # # # # # # w 9.b ",
"y.S.= l.l.h.h.g.d.d.s.a.p.. 9.v ",
"y.S.* o.X. .] ] ] ^ ^ E E . 6.v ",
"y.S.& w.w.$.#.+.+.+...W V . 4.v ",
"y.S.& A D.~ C C M z f f f . 3.v ",
"y.S.$ E e.K.M.S c j j j c . <.v ",
"y.S.@ h B B.V.i u u u u u . >.v ",
"y.S.@ k N.K a a p p p p p . ;.v ",
"y.S.@ 7 , , , P.P.P.L.8 , . | v ",
"y.S.@ , 4 4 , 6 < 8 8 8 8 . [ v ",
"y.S.O ; ; ; ; ; ; ; ; ; ; . R b ",
"y.S.q . . . . . . . . . . - I b ",
"i.v.m.b.z.t.9.5.3.<.;.[ R I N b ",
"y.r.7.4.,.-.} R U P J H N m n b "
};
