/* XPM */
const char *envopt[] = {
/* columns rows colors chars-per-pixel */
"16 16 10 1",
"  c black",
". c #686868",
"X c gray61",
"o c #A4A4A4",
"O c #B9B9B9",
"+ c gray75",
"@ c gray79",
"# c gray85",
"$ c #E1E1E1",
"% c gray92",
/* pixels */
"++   +++++++++++",
"+.%$# ++++++++++",
" %$#@O ++      +",
" $#@Oo +++++++++",
" #@OoX ++      +",
"+ OoX ++++++++++",
"++   +++++++++++",
"++++++++++++++++",
"++++++++++++++++",
"++   +++++++++++",
"+.%$# ++++++++++",
" %$#@O ++      +",
" $#@Oo +++++++++",
" #@OoX ++      +",
"+ OoX ++++++++++",
"++   +++++++++++"
};
