/* XPM */
const char *explor[] = {
/* columns rows colors chars-per-pixel */
"16 16 8 1",
"  c black",
". c #686868",
"X c #BE8200",
"o c #DB9600",
"O c #FFAE00",
"+ c #FFCC5D",
"@ c gray75",
"# c #FFEBBD",
/* pixels */
"@   @@@@@@@@@@@@",
".#++      @@@@@@",
" +OO+++++O @@@@@",
" +OOOOOOOo @@@@@",
" +OOOOOOOo @@@@@",
" +OOOOOOOo @@@@@",
" OoooooooX @@@@@",
"           @@@@@",
"@@@@@@@@@@@@@@@@",
"@@@@@ @@@@.    @",
"@@@@@@ @ @ +++ @",
"@@@@@ @@@@     @",
"@@@@@@@@@@@@@@@@",
"@@@@@ @@@@.    @",
"@@@@@@ @ @ +++ @",
"@@@@@ @@@@     @"
};
