/* XPM */
const char *gobook[] = {
/* columns rows colors chars-per-pixel */
"16 16 23 1",
"  c black",
". c #7A4D00",
"X c #686868",
"o c #005886",
"O c #0072AE",
"+ c #0082C6",
"@ c #0098E6",
"# c #9E6400",
"$ c #C67E00",
"% c #9F8B67",
"& c #D89B2E",
"* c #FFB737",
"= c gray59",
"- c gray72",
"; c #BBBBBB",
": c gray75",
"> c #FFDFA5",
", c #FFE8BD",
"< c #C8C8C8",
"1 c gray81",
"2 c #D0D0D0",
"3 c #DFDFDF",
"4 c #F3F3F3",
/* pixels */
"::X           ::",
":: ,>o@+Oo&*$ ::",
":: 44o@+Oo<3# ::",
":: 33o@+Oo;;# ::",
":: 33o@+Oo;-# ::",
":: 33o@+Oo;-# ::",
":: 33o@+Oo;-# ::",
":: 33o@+Oo;;# ::",
":: 33o@+Oo;-# ::",
":: 33o+OOo;-# ::",
":: 33ooooo;-# ::",
":: 111;;;;;-# ::",
":: 11111111;# ::",
":: ;-;;----=# ::",
":: $%#######. ::",
"::            ::"
};
