/* XPM */
const char *icon[] = {
/* columns rows colors chars-per-pixel */
"16 16 16 1",
"  c black",
". c #2F2F2F",
"X c gray35",
"o c #686868",
"O c #3675D0",
"+ c #6595DB",
"@ c gray59",
"# c #989898",
"$ c gray72",
"% c #87ADE3",
"& c #9DBCE8",
"* c #BAD0EF",
"= c #DFDFDF",
"- c #CADBF3",
"; c #F3F3F3",
": c gray100",
/* pixels */
"o    .......    ",
" :;;;;;;;;;;;;=.",
" ;============$.",
" ;============$.",
" ;==#XXXXXXX==$.",
" ;==XO++++%X==$.",
" ;==X+-%%%*X==$.",
" ;==X+%%%&*X==$.",
" ;==X+%%&&*X==$.",
" ;==X+%&&&*X==$.",
" ;==X%****-X==$.",
" ;==XXXXXXXX==$.",
" ;============$.",
" ;============$.",
" =$$$$$$$$$$$$@.",
"     .......... "
};
