/* XPM */
const char *insert[] = {
/* columns rows colors chars-per-pixel */
"16 16 16 1",
"  c black",
". c #2F2F2F",
"X c #686868",
"o c #3675D0",
"O c #6595DB",
"+ c gray59",
"@ c gray72",
"# c gray75",
"$ c #87ADE3",
"% c #9DBCE8",
"& c #BAD0EF",
"* c #D0D0D0",
"= c #DFDFDF",
"- c #CADBF3",
"; c #F3F3F3",
": c gray100",
/* pixels */
"###X.......    #",
"### :;;;;;;;;=.#",
"### =@@@@@===@.#",
"###       @==@.#",
"######### @==@.#",
"X      ## @==@.#",
" -&&&% ## @==@.#",
" &%%$O ## @==@.#",
" &%$$O ## @==@.#",
" %OOOo ## @==@.#",
"       ## @==@.#",
"######### @==@.#",
"###       @==@.#",
"### :;;;;;===@.#",
"### *@@@@@@@@+.#",
"### .......... #"
};
