/* XPM */
const char *makefl[] = {
/* columns rows colors chars-per-pixel */
"16 16 19 1",
"  c black",
". c #2F2F2F",
"X c #47566F",
"o c #686868",
"O c #626F87",
"+ c #6F7F9A",
"@ c #FFA200",
"# c gray59",
"$ c gray72",
"% c gray75",
"& c #8B9EC0",
"* c #A5B5D1",
"= c #B6C4DC",
"- c gray81",
"; c #DFDFDF",
": c #CCD7EA",
"> c #D9E3F3",
", c #F3F3F3",
"< c gray100",
/* pixels */
"%o.......    %%%",
"% >::::::::=.%%%",
"% :========&.%%%",
"% :=======*&.%%%",
"% :=X=XX=X*&.%%%",
"% :=====***&.%%%",
"% :=XX=Xo      %",
"% :====* @@@@@ %",
"% :=X=XX       %",
"% :==*** <,,,; %",
"% :=XXX* ,;;;$ %",
"% :=**** ,;--$ %",
"% :*XX*X -$$$# %",
"% :*****       %",
"% *&&&&&&++O.%%%",
"% .......... %%%"
};
