/* XPM */
const char *newproj[] = {
/* columns rows colors chars-per-pixel */
"16 16 41 1",
"  c black",
". c #4F2B00",
"X c #59482C",
"o c #64461F",
"O c #78561F",
"+ c #786039",
"@ c #686868",
"# c #805A00",
"$ c #906D42",
"% c #9B835C",
"& c #C88E00",
"* c #FF9E00",
"= c #D1AF78",
"- c #FFBB4C",
"; c #FFCE7D",
": c #ACA59A",
"> c #BCB0A5",
", c gray75",
"< c #CDAE87",
"1 c #D5B287",
"2 c #D6B387",
"3 c #D1B992",
"4 c #E0BE87",
"5 c #E0BC91",
"6 c #EDC99E",
"7 c #FFD796",
"8 c #E0C8A1",
"9 c #E0C9A2",
"0 c #EAD2AC",
"q c #ECD8A6",
"w c #EAD9BD",
"e c #F7DFB9",
"r c #EAE3D8",
"t c #F7E6CA",
"y c #FFEBC8",
"u c #F6ECD3",
"i c #F5E9DE",
"p c #EAE5E1",
"a c #FBEFE5",
"s c #FBF4E9",
"d c #FFF8ED",
/* pixels */
",@             ,",
" p:dsssssssai>u ",
" rXtwwwww0003+q ",
" rXe000000093+q ",
" rXe0%0%%0%93+q ",
" #.e000009993+q ",
" y#60%%0%%993+q ",
" 7y#500099993+q ",
" 7;y#$0%%9%93+q ",
" 7;-y#2999883Oq ",
" 7;--y#$9%96=OO ",
", ;---y#2999=o ,",
", ;----y#2%4=# ,",
",, *****y#4<# ,,",
",,,  &&&&&#  ,,,",
",,,,,      ,,,,,"
};
