/* XPM */
const char *newsrc[] = {
/* columns rows colors chars-per-pixel */
"16 16 66 1",
"  c black",
". c #8C8C7C",
"X c #969677",
"o c #9F9F72",
"O c #AFAE6A",
"+ c #E6DD36",
"@ c #F9EF1E",
"# c #FFF302",
"$ c #FFF303",
"% c #FFF309",
"& c #FFF30A",
"* c #FFF30D",
"= c #EDE436",
"- c #F6EC24",
"; c #F4EB28",
": c #FAEF22",
"> c #FAF022",
", c #FBF23C",
"< c #FCF43A",
"1 c #F7EF46",
"2 c #F7EF5D",
"3 c #FBF345",
"4 c #FBF346",
"5 c #FCF343",
"6 c #FDF440",
"7 c #FAF24D",
"8 c #FAF24E",
"9 c #F7F069",
"0 c #F7F06A",
"q c #F8F163",
"w c #F8F167",
"e c #FDF667",
"r c #FDF56B",
"t c #FDF668",
"y c #FDF66A",
"u c #FDF66E",
"i c #FDF771",
"p c #FDF772",
"a c #818181",
"s c gray62",
"d c #F4EF96",
"f c #F2EE9B",
"g c #F3EF9B",
"h c #F2EE9C",
"j c #F5F092",
"k c #F5F09A",
"l c #F1EEB1",
"z c #F0EDB4",
"x c #F3F0B1",
"c c #FEFAB5",
"v c #FEFAB8",
"b c #FEFABB",
"n c #FEFBBF",
"m c #EFEEE0",
"M c #EEEEE2",
"N c #EAEAEA",
"B c gray92",
"V c #ECECEC",
"C c gray93",
"Z c #EEEEEE",
"A c #EFEFEF",
"S c gray94",
"D c #F1F1F1",
"F c gray95",
"G c gray100",
"H c gray75",
/* pixels */
"saaaaaaaa.oO=%#H",
"aGGGGGGGGf081;*#",
"aGVNNNVVz0<tt,@%",
"aGNNVVVVh8ecbt:*",
"aGNVNVVVh8tbnu:*",
"aGNVVVVVlw6pp5-%",
"aGNNVVVVmdq442+$",
"aGVVVVVSVMxjkXHH",
"aGVVVVVSSSSSGaHH",
"aGVVSVSVVSSSGaHH",
"aGVVVSSSSFSSGaHH",
"aGVVSVVSSSFFGaHH",
"aGVVVSSSSSFSGaHH",
"aGGGGGGGGGGGGaHH",
"saaaaaaaaaaaasHH",
"HHHHHHHHHHHHHHHH"
};
