/* XPM */
const char *newtemp[] = {
/* columns rows colors chars-per-pixel */
"16 16 11 1",
"  c black",
". c #686868",
"X c #435F81",
"o c #4E6E95",
"O c #5082BF",
"+ c #739FC3",
"@ c #7EB4E1",
"# c gray75",
"$ c #A8C8E3",
"% c #B4CEE4",
"& c #C6D6E4",
/* pixels */
".              .",
" &$$$$$$$$$$$$@ ",
" $@@@@@oo@@@XXX ",
" $@@@@o  @@@XXX ",
" $@@@o ## %@@@O ",
" $@@@o ## %@XXX ",
" $@@@o ## %@XXX ",
" $@@+o ## %@@@O ",
" $@@  ### %@XXX ",
" $@@ #### %@XXX ",
" $@@@ ### %@@@O ",
" $@@@@   %@@XXX ",
" $@@@@%%%@@@XXX ",
" $@@@@@@@@@@@@O ",
" @OOOOOOOOOOOOo ",
".              ."
};
