/* XPM */
const char *next[] = {
/* columns rows colors chars-per-pixel */
"16 16 8 1",
"  c black",
". c #369800",
"X c #39A100",
"o c #3FB000",
"O c #00DD00",
"+ c #46C500",
"@ c gray75",
"# c #8FFF8F",
/* pixels */
"@@@@@ @@@@@@@@@@",
"@@@@ # @@@@@@@@@",
"@@@ #O+ @@@@@@@@",
"@@ #O+++ @@@@@@@",
"@@@ ++ooo @@@@@@",
"@@@@ +oooX @@@@@",
"@@@@@ ooooX @@@@",
"@@@@@@ oooX. @@@",
"@@@@@ #ooX. @@@@",
"@@@@ #+oo. @@@@@",
"@@@ #+oo. @@@@@@",
"@@ #+oo. @@@@@@@",
"@@@ XX. @@@@@@@@",
"@@@@ . @@@@@@@@@",
"@@@@@ @@@@@@@@@@",
"@@@@@@@@@@@@@@@@"
};
