/* XPM */
const char *opnproj[] = {
/* columns rows colors chars-per-pixel */
"16 16 71 1",
"  c black",
". c #555753",
"X c #595B57",
"o c #5D5F5B",
"O c #455D79",
"+ c #61625F",
"@ c #61635F",
"# c #636561",
"$ c #676965",
"% c #6A6C68",
"& c #6D6F6B",
"* c #3F6086",
"= c #3E6089",
"- c #3465A4",
"; c #436B9D",
": c #537196",
"> c #58769B",
", c #617A9A",
"< c #6395CC",
"1 c #6496CC",
"2 c #6597CC",
"3 c #6598CD",
"4 c #6698CC",
"5 c #6898CD",
"6 c #6899CD",
"7 c #6999CD",
"8 c #6A9ACD",
"9 c #6B9ACD",
"0 c #6B9BCD",
"q c #6A9ACE",
"w c #6C9BCE",
"e c #6D9CCE",
"r c #6E9CCE",
"t c #6E9DCE",
"y c #709DCF",
"u c #709ECE",
"i c #729FCF",
"p c #76A2D0",
"a c #7CA6D2",
"s c #969795",
"d c #969992",
"f c #9A9C98",
"g c gray65",
"h c #A7A9A4",
"j c #A9ABA9",
"k c #81A9D4",
"l c #85ACD5",
"z c #88AED6",
"x c #89AED6",
"c c #89AFD7",
"v c #8AAFD7",
"b c #8BB0D7",
"n c #8CB1D8",
"m c #94B6DB",
"M c #9BBBDD",
"N c #9ABADE",
"B c #9CBBDD",
"V c #A6C2E0",
"C c #ADC7E3",
"Z c #AEC7E3",
"A c #BED2E8",
"S c #C0C0BF",
"D c #C6C6C5",
"F c gray79",
"G c #CCCCCA",
"H c #CECECE",
"J c #D8D8D7",
"K c #C6D8EB",
"L c #F5F5F4",
"P c gray100",
"I c gray75",
/* pixels */
".&&&&&$$@IIIIIII",
"&HHHHHHD#.IIIIII",
"%SssfhhhhhhhhhdI",
"$FgghPPPPPPPPPhI",
"@SsshPLLLLLLLPhI",
"oFgghPLGGGGGLPhI",
"oSsshPLLLLLLLPhI",
"XFgghPLGGGJLLPhI",
".S,------------;",
".F-KAAAAAAAAAAK-",
".S-ZnnnnnnnnnzV-",
".F-ZbnnvzlkapiB-",
".S>Nieeeee0777m-",
".jv0e7772221<N:O",
"=-------------*I",
"IIIIIIIIIIIIIIII"
};
