/* XPM */
const char *package[] = {
/* columns rows colors chars-per-pixel */
"16 16 12 1",
"  c black",
". c #6B531F",
"X c #7B6024",
"o c #686868",
"O c #8B6C22",
"+ c #8C6D29",
"@ c #D1A74C",
"# c #E6B54C",
"$ c #FFC64C",
"% c gray75",
"& c #FFDB8D",
"* c #FFF1D1",
/* pixels */
"%%%%%%%%%%% %%%%",
"%%%% %%%%%%% %%%",
"%%% %%%%%%%%% %%",
"%% %%%%%%%%%% %%",
"% %%%%%%%%%%%% %",
"o              %",
" *$$$$$$$$$$$$ %",
" &$$$$$$$$OOO# %",
" &$$$$$$$$OOO# %",
" &$$$$$$$$OOO# %",
" +XXXXXXXXXXX. %",
" &$$$$$$$$$$$# %",
" &$$$$$$$$$$$# %",
" &$$$$$$$$$$$# %",
" $###########@ %",
"               %"
};
