/* XPM */
const char *packman[] = {
/* columns rows colors chars-per-pixel */
"16 16 18 1",
"  c black",
". c #6B531F",
"X c #7B6024",
"o c #656565",
"O c #686868",
"+ c #8B6C22",
"@ c #8C6D29",
"# c #E6B54C",
"$ c #FFC64C",
"% c gray59",
"& c gray72",
"* c gray75",
"= c #FFDB8D",
"- c gray81",
"; c #DFDFDF",
": c #FFF1D1",
"> c #F3F3F3",
", c gray100",
/* pixels */
"O              *",
" :=====@=====$ *",
" =$$$$$X$$+++# *",
" =$$$$$X$$+++# *",
" =$$$$$X$$+++# *",
" @XXXXXXXXXXX. *",
" =$$$$$X$$$$$# *",
" =$$$O          ",
" =$$$ ,>>>>>>>; ",
" $### >;oo;oo-& ",
"      >;;;;---& ",
"***** >;o-ooo-& ",
"***** >;------& ",
"***** ;&&&&&&&% ",
"*****           ",
"****************"
};
