/* XPM */
const char *paste[] = {
/* columns rows colors chars-per-pixel */
"16 16 79 1",
"  c black",
". c #6A4200",
"X c #6B4300",
"o c #6B4301",
"O c #6B4403",
"+ c #6C4301",
"@ c #6C4401",
"# c #6D4401",
"$ c #6E4502",
"% c #6E4602",
"& c #6F4602",
"* c #5C5C5B",
"= c gray36",
"- c gray37",
"; c #5F5F5E",
": c #666864",
"> c #676964",
", c #6E6C64",
"< c #6E6D64",
"1 c #6A6C68",
"2 c #706D63",
"3 c #706D64",
"4 c #716F64",
"5 c #736F64",
"6 c #7E7E7B",
"7 c #7F7F7C",
"8 c #A37C3D",
"9 c #A77D3B",
"0 c #A47E3E",
"q c #B37B22",
"w c #B97F23",
"e c #BA7F23",
"r c #A17C40",
"t c #80807D",
"y c #C08424",
"u c #C58726",
"i c #C58727",
"p c #C28628",
"a c #C68827",
"s c #959589",
"d c #97978A",
"f c #B1B2B2",
"g c #B2B4B4",
"h c #B3B5B5",
"j c #B7B7B4",
"k c #B8B9B5",
"l c #B9B9B6",
"z c #B9BAB6",
"x c #BBBBBB",
"c c #C1C2BE",
"v c #CCCDCA",
"b c #CDCECB",
"n c #D8D8D5",
"m c #D9D9D6",
"M c #DADAD8",
"N c #DBDBD9",
"B c gray88",
"V c #E7E7E4",
"C c #E7E7E5",
"Z c #E8E8E6",
"A c #E9E9E7",
"S c #EAEAE8",
"D c #EBEBE9",
"F c #EBEBEA",
"G c #ECECEA",
"H c #ECECEB",
"J c #EDEDEB",
"K c #EDEDEC",
"L c #EDEEED",
"P c #EEEEED",
"I c #EFEFED",
"U c #EFEFEE",
"Y c #F0F0EF",
"T c #F1F1F1",
"R c gray95",
"E c #FEFEFD",
"W c #FEFEFE",
"Q c gray100",
"! c gray75",
/* pixels */
"!!!!=---==--!!!!",
"!@@@X-ssss-O+@X!",
"+@y04-ttt6-<rw+X",
"X@a4YBxxxxBY,iXX",
"X@a:WYYYYYYW:pXX",
"+&i:WYhhhhYW:pXX",
"X&i:WYYYYYHW:p..",
"X@i>WYhhhfSW:p..",
"X@i:WYYHSSNW>pXX",
"X@i>WHHSSmbW>pXX",
"X@i>WHSZbllW:pXX",
"+@a:WSZmlWWW:p..",
"X@a:WZmclWW:ipXX",
"X@i4HWWWHW>iii..",
"X+w9511111r08qX.",
"!+++@@@@@@XXXXX!"
};
