/* XPM */
const char *print[] = {
/* columns rows colors chars-per-pixel */
"16 16 11 1",
"  c black",
". c #2F2F2F",
"X c #656565",
"o c #686868",
"O c gray59",
"+ c gray72",
"@ c gray75",
"# c #D0D0D0",
"$ c #DFDFDF",
"% c #F3F3F3",
"& c gray100",
/* pixels */
"@@o.......    @@",
"@@ &%%%%%%%%$.@@",
"@@ %$$$$$$$$+.@@",
"@@ %$$$$$$$#+.@@",
"@@ %$X$XX$X#+.@@",
"@@ %$$$$$###+.@@",
"@@ %$XX$XX##+.@@",
"@@ %$$$$####+.@@",
"o               ",
" &%%%%%%%%%%%%$ ",
" %$$$$$$$$$$$$+ ",
" $++++++++++++O ",
"                ",
" O++++++++++++% ",
" +%%%%%%%%%%%%& ",
"@              @"
};
