/* XPM */
const char *redo[] = {
"16 16 45 1",
" 	c None",
".	c #BFBFBF",
"+	c #4E9A06",
"@	c #AEF36C",
"#	c #8F9B0C",
"$	c #A9DE49",
"%	c #AEF16A",
"&	c #B3F573",
"*	c #A6EF61",
"=	c #73D216",
"-	c #ACD945",
";	c #AFEF67",
">	c #A1E950",
",	c #A4DE24",
"'	c #9BD622",
")	c #A9D846",
"!	c #B1EF65",
"~	c #A5DF26",
"{	c #97DD2A",
"]	c #AFD71A",
"^	c #75D318",
"/	c #9DC230",
"(	c #B1ED60",
"_	c #C8D009",
":	c #77D014",
"<	c #8AE234",
"[	c #559F0C",
"}	c #B1E963",
"|	c #BAE031",
"1	c #CBD417",
"2	c #A1DA23",
"3	c #D9DE23",
"4	c #529D0A",
"5	c #CDD624",
"6	c #93A10B",
"7	c #CCD41E",
"8	c #BEE246",
"9	c #99A605",
"0	c #B3D937",
"a	c #B8DD3A",
"b	c #AFC723",
"c	c #919D05",
"d	c #5AA80F",
"e	c #C0D62C",
"f	c #9A9902",
".........+......",
".........++.....",
".........+@+....",
"......++++@@+...",
"....+#$%@&*=@+..",
"...+-;>,,',==@+.",
"..+)!~{'']===^@+",
".+/(~]]_:^===<+.",
".[}|1'22223=<+..",
".4!56+++++7<+...",
".+89+....+<+....",
".+0+.....++.....",
".+a+.....+......",
".+bc+...........",
".+def+..........",
"..+++..........."};
