/* XPM */
const char *reopen[] = {
/* columns rows colors chars-per-pixel */
"16 16 12 1",
"  c black",
". c #686868",
"X c #45C837",
"o c #7CD872",
"O c #C88E00",
"+ c #FF9E00",
"@ c #FFBB4C",
"# c #FFCE7D",
"$ c gray75",
"% c #A0E399",
"& c #FFD796",
"* c #FFEBC8",
/* pixels */
"$$$$$$$$$$$$$$$$",
"$$$$$$$$$$ $$$$$",
"$$$$$$$$$.% $$$$",
"$$$$$$$$$ %% $$$",
"  $$$     %o% $$",
" * $ %%%%%oooX $",
" &* %oo   ooX $$",
" &#* o $$ oX $$$",
" &#@*  $$ X $$$$",
" &#@@* $$$ $$$$$",
"$ #@@@* $$$$$$$$",
"$ #@@@@* $$$$$$$",
"$$ +++++* $$$$$$",
"$$$  OOOOO $$$$$",
"$$$$$      $$$$$",
"$$$$$$$$$$$$$$$$"
};
