/* XPM */
const char *resrc[] = {
/* columns rows colors chars-per-pixel */
"16 16 23 1",
"  c black",
". c #686868",
"X c #6666CD",
"o c #7F7FFF",
"O c #008000",
"+ c #00BB00",
"@ c #3FBF7F",
"# c #66CC65",
"$ c #7FFF7F",
"% c #4BE498",
"& c #990000",
"* c #993300",
"= c #BC0000",
"- c #BF3F00",
"; c #D65B3D",
": c #CC6633",
"> c #E77339",
", c #D15353",
"< c #FF6666",
"1 c gray75",
"2 c #A4A4FF",
"3 c #BEFFBE",
"4 c #FF8383",
/* pixels */
".        1111111",
" 222222o 1111111",
" 2oooooX 1111111",
" 2o.        1111",
" 2o %%%%+3$ 1111",
" 2o %@@@O$# 1111",
" 2o %@.        1",
" 2o %@ ;->>=4< 1",
" oX %@ ;*::&<, 1",
"    +O -*::&<, 1",
"111 3$ >:::&<, 1",
"111 $# >:::&<, 1",
"111    =&&&&<, 1",
"111111 4<<<<<, 1",
"111111 <,,,,,, 1",
"111111         1"
};
