/* XPM */
const char *run[] = {
/* columns rows colors chars-per-pixel */
"16 16 23 1",
"  c black",
". c #686868",
"X c #FFA200",
"o c #B1B1B1",
"O c gray75",
"+ c #CECECE",
"@ c gray81",
"# c #D1D0CF",
"$ c #D0D0D0",
"% c gray82",
"& c #D2D2D2",
"* c #D5D5D5",
"= c gray84",
"- c #D7D7D7",
"; c gainsboro",
": c #DDDDDD",
"> c gray87",
", c #DFDFDF",
"< c #E0E0DF",
"1 c gray88",
"2 c #E1E1E0",
"3 c #E1E1E1",
"4 c #F1F1F0",
/* pixels */
"OOOOOOOOOOOOOOOO",
"O.             O",
"O XXXXXXXXXXXX O",
"O .            O",
"O 4<<<<<<<,<<o O",
"O 4,,,,,,1<,*o O",
"O 4,,,,,1,*$@o O",
"O 4,,,1,*$@$$o O",
"O 4,,,,,$@$$$o O",
"O 4,,,*$$$$$$o O",
"O 41,$@@$$$$$o O",
"O 4,*$$$$$$$$o O",
"O 4$@$$$$$@@$o O",
"O $ooooooooooo O",
"O              O",
"OOOOOOOOOOOOOOOO"
};
