/* XPM */
const char *saveas[] = {
/* columns rows colors chars-per-pixel */
"16 16 36 1",
"  c black",
". c #4D4B48",
"X c #686561",
"o c #696662",
"O c #696663",
"+ c #696763",
"@ c #686868",
"# c #6D6D6D",
"$ c #7B7A78",
"% c #7C7A79",
"& c #8D8D8D",
"* c #989898",
"= c gray75",
"- c #A3B4DF",
"; c #A3B7EA",
": c #A3B7FF",
"> c #A3B9FF",
", c #A3BAFF",
"< c #A3BBFF",
"1 c #A3BCFF",
"2 c #A3BDFF",
"3 c #A3BEFF",
"4 c #A3BFFF",
"5 c #A3C0FF",
"6 c #A3C2FF",
"7 c #A3C3FF",
"8 c #A3C4FF",
"9 c #A3C5FF",
"0 c #A3C6FF",
"q c #A3C7FF",
"w c #A3C8FF",
"e c #D0D0D0",
"r c #DFDFDF",
"t c #CFDBFF",
"y c #F3F3F3",
"u c gray100",
/* pixels */
"@               ",
" ut@yyyyyyyy@t: ",
" t: rrrrrrrr 6  ",
" t: rrrrrrre 6  ",
" t: rrrreeee 6; ",
" t: rrreeeee 6; ",
" t: eeeeeeee 6; ",
" t: eeeeeeee 6; ",
" t:          6; ",
" t<<<333366668; ",
" t<<<$OOOO%888; ",
" t<<$&&&OOO%q8; ",
" t3<X&&&O==+qq; ",
" t3<O&&&O==+8q; ",
" 3;;.###.**.;;- ",
"=               "
};
