/* XPM */
const char *saveall[] = {
/* columns rows colors chars-per-pixel */
"16 16 111 2",
"   c #2E3436",
".  c #2F3436",
"X  c #2F3536",
"o  c #2F3537",
"O  c #333633",
"+  c #303537",
"@  c #303638",
"#  c #34393B",
"$  c #373A39",
"%  c #444643",
"&  c #454643",
"*  c #454644",
"=  c #454744",
"-  c #474845",
";  c #474945",
":  c #484946",
">  c #484A46",
",  c #4B4C45",
"<  c #4B4C46",
"1  c #4D4D45",
"2  c #4C4C47",
"3  c #4D4D47",
"4  c #4D4E45",
"5  c #4E4E46",
"6  c #4A4B48",
"7  c #4C4F4F",
"8  c #515658",
"9  c #53585A",
"0  c #5B5D5C",
"q  c #5C5E5D",
"w  c #5E5F5D",
"e  c #61615F",
"r  c #60625F",
"t  c #616361",
"y  c #636361",
"u  c #646563",
"i  c #646663",
"p  c #666765",
"a  c #666766",
"s  c #666966",
"d  c #676966",
"f  c #686A67",
"g  c #696A67",
"h  c #6C6D66",
"j  c #6A6B69",
"k  c #6B6C6A",
"l  c #6C6E6B",
"z  c #6D6F6B",
"x  c #6F7068",
"c  c #6F706D",
"v  c #6F716E",
"b  c #70706A",
"n  c #70716B",
"m  c #70726F",
"M  c #73746E",
"N  c #74746D",
"B  c #74746F",
"V  c #74756E",
"C  c #707270",
"Z  c #727470",
"A  c #94801D",
"S  c #99821A",
"D  c #9A8622",
"F  c #9D8822",
"G  c #B3915C",
"H  c #C39F01",
"J  c #C29F02",
"K  c #C3A000",
"L  c #C3A001",
"P  c #C3A002",
"I  c #C3A003",
"U  c #C4A001",
"Y  c #C4A002",
"T  c #C4A102",
"R  c #C4A105",
"E  c #C6B30B",
"W  c #CAB610",
"Q  c #CCB916",
"!  c #CBB81D",
"~  c #D3BF16",
"^  c #DECA20",
"/  c #D6C531",
"(  c #DAC933",
")  c #DDCC35",
"_  c #D7C94F",
"`  c #DCCE4F",
"'  c #D8CA53",
"]  c #E2D24D",
"[  c #E5D54D",
"{  c #E7D74C",
"}  c #EDDC4C",
"|  c #E2D45D",
" . c #EFDF5A",
".. c #E1D368",
"X. c #E9DB64",
"o. c #E1D472",
"O. c #E3D772",
"+. c #EDE17C",
"@. c #F3E366",
"#. c #F1E36B",
"$. c #F7E863",
"%. c #F2E67E",
"&. c #F9EB72",
"*. c #FFF178",
"=. c #BEBFB9",
"-. c #BFBFB8",
";. c #FCF08B",
":. c #FFF59F",
">. c #E5E5E2",
",. c gray100",
"<. c gray75",
/* pixels */
"<.@ @ @ @ @ @ + @ @ @ @ @ @ o <.",
"<.o C Z B B B B B B B B Z 7 @ <.",
"<.o m D J T H T T T T J F c o <.",
"<.o c K ;.*.*.&.#.X.| ..K c   <.",
"<.o l T :.$. .[ ( Q E ..J b o <.",
"<.o l T %.^ ~ W ! / ) +.R c o <.",
"<.o k K O.' _ ` ] [ } @.K h   <.",
"<.o j A H T K K K T K K S f   <.",
"<.o d 6 2 2 4 < 4 4 4 < < a   <.",
"<.o d < < < ; < ; ; ; = = a   <.",
"<.o a = % = = = * * * * * u   <.",
"<.o u + < 6 < 6 2 2 < < o t   <.",
"<.  t O G G G G G G G G $ r   <.",
"<.  e   >.>.>.>.>.>.>.>.$ q   <.",
"<.  q 8 -.-.-.-.-.-.-.-.8 0   <.",
"<.+ +                 o o     <."
};
