/* XPM */
const char *screen[] = {
/* columns rows colors chars-per-pixel */
"16 16 25 1",
"  c black",
". c #686868",
"X c gray50",
"o c #3675D0",
"O c #6595DB",
"+ c gray56",
"@ c gray62",
"# c #A0A0A0",
"$ c #B1B1B1",
"% c #B2B2B2",
"& c gray70",
"* c #BBBBBB",
"= c #87ADE3",
"- c #9DBCE8",
"; c #C0C0C0",
": c #C1C1C0",
"> c #C1C1C1",
", c #CECECE",
"< c #D1D0CF",
"1 c gray85",
"2 c #DFDFDF",
"3 c #E0E0DF",
"4 c gray88",
"5 c #E1E1E1",
"6 c #F1F1F0",
/* pixels */
".               ",
" -===OOOOOOOOOo ",
" #++++++++++++X ",
" #............X ",
" 622.::::::*&&@ ",
" 623.:::::*&&&@ ",
" 623.::::*&&&&@ ",
" 622.:::*&&&&&@ ",
" 622.::*&&&&&&@ ",
" 622.:*&&&&&&&@ ",
" 652.*%&&&&&&&@ ",
" 652.&%&&&&&&&@ ",
" 651.%&&&&&&&&@ ",
" 61,.%&&&&&&&&@ ",
" <%%%@@@@@@@@@@ ",
"                "
};
