/* XPM */
const char *search[] = {
/* columns rows colors chars-per-pixel */
"16 16 80 1",
"  c black",
". c #6C6E6A",
"X c #6D6F6B",
"o c #737470",
"O c #757673",
"+ c #7E807B",
"@ c #818380",
"# c #828480",
"$ c #848482",
"% c #888A85",
"& c #898B86",
"* c #8A8C87",
"= c #8C8E89",
"- c #8D8F8A",
"; c #8D8E8C",
": c #9A9B97",
"> c #A3A4A3",
", c #A8A9A6",
"< c #A3AEBB",
"1 c #B8B8B7",
"2 c #85A9CF",
"3 c #8BACCF",
"4 c #80A7D1",
"5 c #81A6D0",
"6 c #80A8D1",
"7 c #89ABD0",
"8 c #8AACD2",
"9 c #8EB2D8",
"0 c #90ADCB",
"q c #93AFCE",
"w c #97AFCB",
"e c #91B3D6",
"r c #97B4D3",
"t c #99B3D0",
"y c #9FB8D1",
"u c #9CBAD9",
"i c #A7B5C3",
"p c #A8B7C8",
"a c #A8B9CD",
"s c #AEBAC8",
"d c #A2B8D0",
"f c #A0BAD6",
"g c #A2BAD4",
"h c #A6BCD2",
"j c #A3BDDA",
"k c #A0BEDF",
"l c #A9BFD6",
"z c #A5C0DF",
"x c #AFC5DF",
"c c #B3C8DC",
"v c #A5C1E0",
"b c #B2CAE3",
"n c #B3CAE5",
"m c #BFD3E7",
"M c #BCD0E8",
"N c #C7C7C6",
"B c #CFCFCD",
"V c #D6D6D5",
"C c #D6D7D5",
"Z c #C1D4E9",
"A c #C1D4EA",
"S c #C3D7EB",
"D c #C5D7EA",
"F c #C8D9EC",
"G c #CADAEC",
"H c #CDDCED",
"J c #CFDDEE",
"K c #D0DEEE",
"L c #D9E4F1",
"P c #DAE5F2",
"I c #DCE6F2",
"U c #DDE7F2",
"Y c #E0EAF3",
"T c #E4ECF5",
"R c #E8EEF7",
"E c #F0F0EF",
"W c #FAFAF9",
"Q c #FEFEFD",
"! c gray100",
"~ c gray75",
/* pixels */
":%%%%%%%%%%-~~~~",
"*!!!!!!!!!!%~~~~",
"%!EEEEEEEE!%~~~~",
"*!ENNNNNNE!%~~~~",
"*!EEEEC@@@@#~~~~",
"*!ENN,@shga@o~~~",
"%!EEC@p8mDu0@X~~",
"*!EN@<2IRTG9w@~~",
"*!EE#dkPYIAu6@~~",
"%!EE@lvJPHGM6#~~",
"%WEE@i7nSAJjq@~~",
"%!!!B@yexbgr@O~~",
"-%%%%+@c86t@>>X~",
"~~~~~~X@@@@;1>>$",
"~~~~~~~~~~~~;1>$",
"~~~~~~~~~~~~ ;;$"
};
