/* XPM */
const char *srcagain[] = {
/* columns rows colors chars-per-pixel */
"16 16 46 1",
"  c black",
". c gray6",
"X c #2F2F2F",
"o c #656565",
"O c #686868",
"+ c #6F6F6F",
"@ c #549EB7",
"# c #A66D00",
"$ c #FFC96B",
"% c gray56",
"& c gray72",
"* c gray75",
"= c #80C7DE",
"- c #81C7DE",
"; c #8CCCE0",
": c #8CD2E9",
"> c #92CEE2",
", c #91D0E4",
"< c #97D0E2",
"1 c #97D1E2",
"2 c #95D1E5",
"3 c #97D7EC",
"4 c #98D7EB",
"5 c #9DD9ED",
"6 c #AAD8E7",
"7 c #AAD9E6",
"8 c #AAD9E7",
"9 c #ADDDEA",
"0 c #AEDCEA",
"q c #AEDDEA",
"w c #B0DCE8",
"e c #B1DCE8",
"r c #B5DFEB",
"t c #B5E0EC",
"y c gray81",
"u c #D0D0D0",
"i c #DFDFDF",
"p c #C3E3EC",
"a c #C3E4EC",
"s c #C6E7EF",
"d c #D0E9EF",
"f c #D1E9EF",
"g c #D0EAF0",
"h c #E9F4F4",
"j c #F3F3F3",
"k c gray100",
/* pixels */
" XXXXXXXXXXX****",
" jiiuuuuuu&X****",
" jiooououy&X****",
" jiuuu.....X****",
" juooO%2,-%.****",
" juu.%0t61:%.***",
" u&&.0sds64@.***",
" XXX.rdhd05@.***",
"****.0adp64@.***",
"oXXX.%0e6<:+.***",
" kjjj.%,--+$# **",
" jiiii.....#$# *",
" jiiiiiiiu& #$# ",
" jioiooiou&X ## ",
" jiiiiiuuu&X*   ",
"XXXXXXXXXXXX****"
};
