/* XPM */
const char *temphlp[] = {
/* columns rows colors chars-per-pixel */
"16 16 11 1",
"  c black",
". c #555555",
"X c #5F00AC",
"o c #7400C9",
"O c #7704DE",
"+ c #AB3EE0",
"@ c #D068F4",
"# c gray75",
"$ c #F490FB",
"% c #F69CFC",
"& c #FFACFF",
/* pixels */
"#.           .##",
"# &$$$$$$$$$@ ##",
"# $@@@@oo@@@O ##",
"# $@@@o  @@@O ##",
"# $@@o ## %@O ##",
"# $@@o ## %@O ##",
"# $@@o ## %@O ##",
"# $@+o ## %@O ##",
"# $@  ### %@O ##",
"# $@ #### %@O ##",
"# $@@ ### %@O ##",
"# $@@@   %@@O ##",
"# $@@@%%%@@@O ##",
"# $@@@@@@@@@O ##",
"# @OOOOOOOOOX ##",
"#.           .##"
};
