/* XPM */
/* License: http://creativecommons.org/licenses/LGPL/2.1/	*/
/* Source:  Crystal Project		*/
/* Source URL:  http://everaldo.com/crystal/		*/
static const char *toggle_log[] = {
/* columns rows colors chars-per-pixel */
"16 16 103 2",
"   c #262626",
".  c #333333",
"X  c #3D3E3E",
"o  c #3F3F3F",
"O  c #515151",
"+  c #535353",
"@  c #565656",
"#  c #575757",
"$  c #5B5B5B",
"%  c #5E5E5E",
"&  c #6B6B6B",
"*  c #6D6D6D",
"=  c #6F6F6F",
"-  c #757575",
";  c #767676",
":  c #787878",
">  c #8D837C",
",  c #818181",
"<  c #8C8C8C",
"1  c #92908F",
"2  c #8F9090",
"3  c #939393",
"4  c #949494",
"5  c #979797",
"6  c #9B9B9B",
"7  c #9E9E9F",
"8  c #9F9F9F",
"9  c #A1A2A2",
"0  c #A2A2A2",
"q  c #A6A6A6",
"w  c #A7A7A7",
"e  c #ACADAD",
"r  c #AFAFB0",
"t  c #B2B2B3",
"y  c #B4B4B3",
"u  c #B8B8B8",
"i  c #B8B8B9",
"p  c #B9B9B9",
"a  c #B9B9BA",
"s  c #BABABA",
"d  c #BBBCBD",
"f  c #BCBCBC",
"g  c #BCBDBE",
"h  c #BDBDBE",
"j  c #BDBEBF",
"k  c #BFBFBF",
"l  c #BDBFC0",
"z  c #BEBFC0",
"x  c #BFC0C0",
"c  c #C0C0C0",
"v  c #C1C1C1",
"b  c #C1C2C2",
"n  c #C3C3C3",
"m  c #C4C4C4",
"M  c #C4C5C6",
"N  c #CACACA",
"B  c #CACACB",
"V  c #CACBCB",
"C  c #CBCBCC",
"Z  c #CCCDCD",
"A  c #CFCFD0",
"S  c #D7D8D8",
"D  c #D8D8D8",
"F  c #D9D9DA",
"G  c #DCDCDC",
"H  c #DDDEDE",
"J  c #DFE0E0",
"K  c #E0E1E1",
"L  c #E1E2E2",
"P  c #E3E3E3",
"I  c #E3E4E4",
"U  c #E4E4E4",
"Y  c #E4E4E5",
"T  c #E4E5E5",
"R  c #E5E6E6",
"E  c #E6E6E6",
"W  c #E6E7E7",
"Q  c #E7E7E7",
"!  c #E7E8E8",
"~  c #E8E8E8",
"^  c #E9E9E9",
"/  c #E9EAE9",
"(  c #EDEEEE",
")  c #EEEEEE",
"_  c #EEEEEF",
"`  c #EFF0F0",
"'  c #F1F1F1",
"]  c #F2F2F2",
"[  c #F2F3F3",
"{  c #F4F4F3",
"}  c #F2F3F4",
"|  c #F3F4F4",
" . c #F4F4F4",
".. c #F4F4F5",
"X. c #F6F5F5",
"o. c #F6F5F6",
"O. c #F6F6F6",
"+. c #F6F7F7",
"@. c #FAFAFA",
"#. c #FBFBFB",
"$. c #FCFCFC",
"%. c #FFFFFF",
"&. c None",
/* pixels */
"&.&.&.&.&.&.&.&.&.&.&.&.&.&.&.&.",
"&.&.&.&.&.&.&.&.&.&.&.&.&.&.&.&.",
"&.&.&.&.&.&.&.&.&.&.&.&.&.&.&.&.",
"&., y u h u 6 3 w v v v h 1 > &.",
"&.w %.%.%. .A M H %.%.%.%.v 9 &.",
"&.w { U K ! C z S U K U ) v 9 &.",
"&.w  .Q I ! V u F U U ! ] u < & ",
"&.w  .Q I ! V i F ! U ~ ] r & ; ",
"&.w  .U K U V h S U K U ` z 4 % ",
"&.w ..U J U V h S I K U ) z 8 &.",
"&.w #. .| ` Z d H |  . .@.x 9 &.",
"&.5 I ! ~ U t 8 n ~ ~ ! U e 3 &.",
"&.  X # = ; @ X + ; = $ + . &.&.",
"&.&.&.&.&.&.&.&.&.&.&.&.&.&.&.&.",
"&.&.&.&.&.&.&.&.&.&.&.&.&.&.&.&.",
"&.&.&.&.&.&.&.&.&.&.&.&.&.&.&.&."
};
