/* XPM */
/* License: http://en.wikipedia.org/wiki/Public_domain	*/
/* Source:  Tango Icon Library		*/
/* Source URL:  http://tango.freedesktop.org/Tango_Icon_Library		*/
static char *view_fullscreen__[] = {
/* columns rows colors chars-per-pixel */
"16 16 150 2",
"   c #1B4685",
".  c #1C4785",
"X  c #1D4785",
"o  c #1F4987",
"O  c #204B88",
"+  c #214B88",
"@  c #254E8A",
"#  c #264F8B",
"$  c #2A528C",
"%  c #2B538D",
"&  c #2F578F",
"*  c #325990",
"=  c #355C92",
"-  c #365D93",
";  c #3B6096",
":  c #3C6196",
">  c #3D6297",
",  c #3D6397",
"<  c #3F6398",
"1  c #43679A",
"2  c #44679B",
"3  c #46699B",
"4  c #466A9B",
"5  c #476A9B",
"6  c #486B9C",
"7  c #4A6D9D",
"8  c #5677A3",
"9  c #5676A4",
"0  c #5878A4",
"q  c #6482AA",
"w  c #7B94B7",
"e  c #819BBA",
"r  c #8A9FBE",
"t  c #89A0BE",
"y  c #89A1BE",
"u  c #8DA2BF",
"i  c #97AABF",
"p  c #98AABF",
"a  c #BBBDBC",
"s  c #91A5C1",
"d  c #98AAC0",
"f  c #98ABC0",
"g  c #99ABC0",
"h  c #9AACC1",
"j  c #9CACC1",
"k  c #9CACC2",
"l  c #99AFC6",
"z  c #9FB1C4",
"x  c #9FB2C9",
"c  c #A3B3C6",
"v  c #A4B3C6",
"b  c #A0B4CA",
"n  c #A4B5CB",
"m  c #A4B7CB",
"M  c #A6B6CD",
"N  c #A8B5C8",
"B  c #A6B8CC",
"V  c #A9B9CE",
"C  c #ABBACF",
"Z  c #AEBDCC",
"A  c #B4BBC3",
"S  c #B5BCC3",
"D  c #B5BCC4",
"F  c #B6BDC5",
"G  c #B0BECC",
"H  c #ADBCD0",
"J  c #AEBDD0",
"K  c #ACBFD1",
"L  c #BBC0C6",
"P  c #BBC0C7",
"I  c #B9C1C9",
"U  c #B9C2CA",
"Y  c #BAC3CB",
"T  c #BDC4CB",
"R  c #BDC4CC",
"E  c #BFC7CD",
"W  c #BEC7CE",
"Q  c #B0C1D2",
"!  c #B9C8D7",
"~  c #BFCBD9",
"^  c #BFCEDA",
"/  c #C0C3C5",
"(  c #C3C8CA",
")  c #C2C8CE",
"_  c #CCCECF",
"`  c #C4D1DC",
"'  c #C7D4DE",
"]  c #D2D3D2",
"[  c #D4D4D3",
"{  c #D4D5D3",
"}  c #D2D6D6",
"|  c #D6D9D8",
" . c #D2DBDE",
".. c #D8DBDA",
"X. c #D9DCDA",
"o. c #CED9E1",
"O. c #CEDAE2",
"+. c #D6DCE5",
"@. c #D9DEE1",
"#. c #D8E0E6",
"$. c #DCE3E4",
"%. c #DFE6E5",
"&. c #DEE3E9",
"*. c #DDE4E9",
"=. c #DEE4E9",
"-. c #DDE7E9",
";. c #DEE7EA",
":. c #DEE9EB",
">. c #E0E5E5",
",. c #E0E6E5",
"<. c #E4E8E7",
"1. c #E1E9EB",
"2. c #E6E9E8",
"3. c #E3E9EC",
"4. c #E3EAEC",
"5. c #E5EAED",
"6. c #E4EBED",
"7. c #E2ECEC",
"8. c #E4EDED",
"9. c #E6EDEE",
"0. c #E4EEEE",
"q. c #E5EEEE",
"w. c #E6EEEE",
"e. c #E6EFEE",
"r. c #E8EBEF",
"t. c #E8ECEE",
"y. c #E8EFEF",
"u. c #E9EFEF",
"i. c #E9EEF0",
"p. c #EBEEF0",
"a. c #E9F0F0",
"s. c #EAF0F0",
"d. c #EBF0F0",
"f. c #EBF1F0",
"g. c #EBF1F1",
"h. c #EDF0F1",
"j. c #ECF1F1",
"k. c #EDF1F1",
"l. c #EDF2F1",
"z. c #ECF2F2",
"x. c #EEF2F2",
"c. c #EFF3F3",
"v. c #F0F3F3",
"b. c #F2F3F3",
"n. c #F2F4F3",
"m. c #F3F4F4",
"M. c #F4F5F5",
"N. c #F5F5F5",
"B. c #F6F6F6",
"V. c None",
/* pixels */
"V.V.V.V.V.V.V.V.V.V.V.V.V.V.V.V.",
"V.( c d i c  .,.%.$.Z i f f W V.",
"V.U , O @ w :.0.0.0.Q = O @ f V.",
"V.U ; X & l 0.w.w.w.^ 3 O @ f V.",
"V.U 1 3 8 y o.w.w.;.b q 7 - p V.",
"V.) x o.B ! ;.u.u.6.' n ` Q G V.",
"V.| a.z.6.4.f.u.u.f.w.1.a.u.>.V.",
"V...z.a.f.f.u.f.f.u.u.z.z.z.<.V.",
"V...b.p.z.p.z.z.z.h.z.h.v.v.2.V.",
"V.} 3.c.>.>.z.z.v.z.6.+.p.u.@.V.",
"V.R w H s H &.b.v.t.` s n y v V.",
"V.R < % 3 r &.b.v.u.N 0 * @ j V.",
"V.R ;   $ C N.m.m.N.+.3 X O k V.",
"V.) 9 ; , w t.N.N.N.M 2 , < N V.",
"V.a U A F A _ { { ] L A S F / V.",
"V.V.V.V.V.V.V.V.V.V.V.V.V.V.V.V."
};
