/* XPM */
const char *xpm_goto[] = {
/* columns rows colors chars-per-pixel */
"16 16 114 2",
"   c black",
".  c #4E6A7D",
"X  c #58787A",
"o  c #6A7F5A",
"O  c #6B716E",
"+  c #6E706B",
"@  c #627075",
"#  c #667173",
"$  c #72756B",
"%  c #38678B",
"&  c #3B6B8F",
"*  c #3D698A",
"=  c #3D6B8E",
"-  c #3F6C8E",
";  c #436E88",
":  c #4A6D85",
">  c #4A7180",
",  c #427092",
"<  c #41749A",
"1  c #44789F",
"2  c #4D7991",
"3  c #547D9B",
"4  c #6B7F88",
"5  c #6C8577",
"6  c #5186AF",
"7  c #5892BD",
"8  c #688BA0",
"9  c #6296BB",
"0  c #6E99B6",
"q  c #7798B0",
"w  c #719FBF",
"e  c #739FC0",
"r  c #79A7CA",
"t  c #9F9F9F",
"y  c #92A6AC",
"u  c #95A9AF",
"i  c #9AAEB4",
"p  c #A8A7A7",
"a  c #A8A7A8",
"s  c #A9A9A9",
"d  c #AAAAA9",
"f  c #AFAFAF",
"g  c #B4B4B4",
"h  c #B7B6B6",
"j  c #B9B9B9",
"k  c #BCBCBC",
"l  c #81ADD1",
"z  c #8FB3CE",
"x  c #92B7D3",
"c  c #96BBD8",
"v  c #98BFDC",
"b  c #9EBFD9",
"n  c #ACBCC3",
"m  c #9BC2DF",
"M  c #ABC8DF",
"N  c #ABCBE2",
"B  c #ACCBE3",
"V  c #B1CEE6",
"C  c #C5CBBF",
"Z  c gray76",
"A  c #C3C3C3",
"S  c gray77",
"D  c #C5C5C5",
"F  c #CACFC4",
"G  c #C8C8C8",
"H  c gray79",
"J  c #CACACA",
"K  c #CBCBCB",
"L  c #CDCDCD",
"P  c #CECECE",
"I  c gray81",
"U  c #CED4C8",
"Y  c #C9D6DD",
"T  c #D0D0D0",
"R  c gray82",
"E  c #D2D2D2",
"W  c #D5D5D5",
"Q  c gray84",
"!  c gainsboro",
"~  c #DDDDDD",
"^  c #C1D9EB",
"/  c #C5DBEC",
"(  c #D5DFE5",
")  c #D0DFEF",
"_  c #DDE1D6",
"`  c #DFE2DE",
"'  c #E2E6DD",
"]  c gray89",
"[  c #E4E4E4",
"{  c #E9E9EA",
"}  c #EAE9EA",
"|  c gray92",
" . c #EBECEC",
".. c #ECECEC",
"X. c gray93",
"o. c #EDEDEE",
"O. c #EDEEED",
"+. c #EDEEEE",
"@. c #EEEEEE",
"#. c gray94",
"$. c #F1F1F1",
"%. c gray95",
"&. c #F3F3F3",
"*. c #F3F4F3",
"=. c #F4F4F4",
"-. c gray97",
";. c #F9F9F9",
":. c gray98",
">. c #FCFBFC",
",. c gray99",
"<. c #FDFDFD",
"1. c #FEFEFE",
"2. c gray100",
"3. c gray75",
/* pixels */
"5 2 % % % % * : X 3.3.3.3.3.3.3.",
", 9 l V ) / m 8 . 5 3.3.3.3.3.3.",
"4 # @ : < 1 b ^ 6 . + + + + + + ",
"O ' 2._ Y 0 % N z 2 ( 2.2.2.=.+ ",
"$ 2.@.@.` q % r z = n @.@.@.%.+ ",
"+ :. .% % % % r 7 % % % % @.%.+ ",
"+ :.{ F % v w w w w c % u { %.+ ",
"+ :.:.] C % v w w N % y [ %.%.+ ",
"+ :.@.:.[ C % B v = y ] :.@.%.+ ",
"+ -.] @.:.:.U = % i :.2.@.] @.+ ",
"+ 2.2.2.2.2.2.2.2.=.=.| | ] @.+ ",
"+ L H H H H D H H D D D D D Q + ",
"+ L D t f k A D E s E s E j H + ",
"+ L A s g Z A H H p E p E h H + ",
"+ ! ! ! ! Q Q I I I I I I I K + ",
"+ + + + + + + + + + + + + + + + "
};
