<?xml version="1.0" encoding="UTF-8"?>
<svg xmlns="http://www.w3.org/2000/svg" viewBox="-12.5 31 236 236" width="236" height="236">
  <g transform="matrix(6.0943236,0,0,6.0943236,-1502.473,-1565.2629)">
    <path fill="#ffffff" d="m 272.01106,263.9157 v 5.2e-4 c -0.43565,0.0319 -1.23264,0.47949 -2.91352,1.27744 -0.69814,0.33143 -1.23669,0.55033 -1.65365,0.72295 l 0.031,-0.0956 c -0.0113,0.0128 -0.038,0.0513 -0.0475,0.0615 -0.0244,0.0261 -0.0509,0.0485 -0.076,0.0734 -0.3382,0.14095 -0.60095,0.25584 -0.77566,0.37363 l -0.39688,0.28783 c -0.16081,0.0286 -0.31481,0.0314 -0.45268,-0.002 -0.29799,-0.0715 -0.48758,-0.33476 -0.41548,-0.57723 0.0819,-0.27526 0.3402,-0.49196 0.73639,-0.61753 l 0.26045,-0.0827 -0.17777,-0.03 c -0.0886,-0.015 -0.19783,-0.0245 -0.31729,-0.0289 h -5.2e-4 c -0.35895,-0.0135 -0.80776,0.0187 -1.05316,0.0842 -1.02324,0.2734 -1.79432,0.93332 -2.3332,1.99677 -0.0993,0.19589 -0.41301,0.97552 -0.39842,0.99012 0.005,0.004 0.14393,-0.0632 0.30954,-0.15037 0.51289,-0.27014 1.56873,-0.566 1.82521,-0.5116 0.0419,0.009 -0.0759,0.10734 -0.35553,0.29817 -0.71899,0.49067 -1.54336,1.11582 -3.16777,2.40192 -0.3315,0.26245 -0.74113,0.57046 -0.91002,0.6842 -0.85911,0.57819 -1.73286,0.84704 -2.25723,0.69453 -0.40467,-0.11764 -0.64558,-0.35041 -0.7555,-0.72864 -0.0748,-0.25765 -0.0483,-0.75116 0.0589,-1.0914 0.15447,-0.49006 0.51392,-1.11779 0.93172,-1.62781 0.19663,-0.24003 1.06301,-1.09713 1.11001,-1.09813 0.0308,-6.3e-4 0.27492,-0.23703 0.27492,-0.26613 0,-0.0392 -0.7762,0.31918 -0.8661,0.39998 -0.0353,0.0317 -0.0894,0.0611 -0.12092,0.0661 -0.0313,0.004 -0.0704,0.0295 -0.0868,0.0553 -0.0156,0.0255 -0.0302,0.0327 -0.0305,0.0145 -4e-4,-0.0177 -0.0281,-0.007 -0.0625,0.0243 -0.0343,0.0311 -0.14143,0.0903 -0.23823,0.13178 -0.22094,0.0947 -0.97508,0.59719 -1.37459,0.9157 -0.47404,0.37794 -1.19277,1.09943 -1.49449,1.50017 -0.89851,1.19333 -1.3371,2.33067 -1.56889,4.06797 -0.10561,0.79152 -0.21216,1.36645 -0.339,1.8309 -0.063,0.23034 -0.10396,0.41909 -0.0894,0.41909 0.0139,0 0.12667,-0.13225 0.25115,-0.29404 0.53449,-0.69459 1.23589,-1.31897 1.90376,-1.69498 0.70373,-0.39622 1.30681,-0.57801 2.50424,-0.75345 0.65283,-0.0957 1.08036,-0.18146 1.4552,-0.29249 -0.11592,0.2316 -0.22619,0.46463 -0.32607,0.6997 -0.11401,0.0542 -0.22728,0.11352 -0.33642,0.16072 -1.62749,0.70393 -2.46795,1.2427 -3.31556,2.12545 -0.43569,0.45373 -0.77747,0.91639 -1.04231,1.41077 -0.13324,0.24871 -0.38292,0.85222 -0.38292,0.92552 0,0.0231 0.0681,-0.0561 0.15141,-0.1757 0.64463,-0.92509 1.65914,-1.73224 2.70009,-2.14871 0.32411,-0.12963 0.86787,-0.31914 0.88057,-0.30644 0.006,0.006 -0.10117,0.0956 -0.23875,0.19792 -1.25178,0.93083 -2.44815,2.44287 -3.07733,3.88969 -0.62869,1.44558 -0.90452,2.89208 -0.80822,4.23798 0.0186,0.26316 0.0298,0.48335 0.0248,0.48835 -0.0279,0.0279 -0.87504,-0.41664 -1.18288,-0.62064 -0.49268,-0.32647 -1.11197,-0.94557 -1.42368,-1.42368 -0.52523,-0.80559 -0.79693,-1.62102 -0.87643,-2.62827 -0.02,-0.25377 -0.0442,-0.46894 -0.0512,-0.47594 -0.008,-0.008 -0.048,0.10358 -0.0899,0.24753 -0.0417,0.14401 -0.0985,0.3339 -0.12557,0.4222 -0.06,0.19524 -0.13914,0.53866 -0.20154,0.87333 -0.0733,0.38919 -0.0627,1.60078 0.0165,1.97817 0.21666,1.03188 0.67131,1.86807 1.41387,2.59881 0.21415,0.21072 0.40486,0.36772 1.21491,1.00097 0.78526,0.61389 1.21579,1.13017 1.79731,2.15646 0.21106,0.37246 0.47286,0.80586 0.58188,0.96273 0.18929,0.2723 0.84714,0.96681 1.11104,1.17306 l 0.12506,0.0977 -0.21394,-0.0233 c -0.28926,-0.0315 -0.89768,-0.23761 -1.24024,-0.42013 -0.33865,-0.18044 -0.76863,-0.51822 -1.03714,-0.81493 -0.10869,-0.1201 -0.37057,-0.4672 -0.58188,-0.77153 -0.73092,-1.0526 -1.22671,-1.53119 -2.02727,-1.95647 l -0.31729,-0.16847 0.23564,0.28371 c 0.47312,0.56958 0.72731,1.04238 1.02423,1.90531 0.21766,0.6326 0.32122,0.88464 0.49248,1.19992 0.42397,0.78077 1.04981,1.48539 1.75958,1.97973 0.63436,0.44184 1.15991,0.68745 2.43293,1.13688 1.58196,0.55848 2.18672,0.86381 2.75073,1.38958 0.70699,0.65903 1.05368,1.36172 1.11208,2.25412 0.0191,0.29102 0.0312,0.34418 0.0672,0.29508 0.0898,-0.12279 0.26281,-0.73109 0.32091,-1.12707 0.17218,-1.17255 -0.17719,-2.25573 -1.11724,-3.46335 -0.5831,-0.74905 -0.80106,-1.09727 -1.00046,-1.59784 -0.20407,-0.51225 -0.19878,-0.5186 0.16071,-0.17828 0.45489,0.43063 0.93542,0.79555 1.95699,1.48621 1.34773,0.91118 1.73473,1.20697 2.34353,1.79111 1.10148,1.05684 1.85256,2.47083 2.02416,3.81114 0.0555,0.43401 0.0897,0.3689 0.16175,-0.30593 0.21085,-1.97614 -0.51255,-3.80734 -2.09238,-5.29683 -0.49596,-0.46757 -0.86137,-0.74251 -2.0469,-1.53841 -1.45612,-0.97754 -2.09583,-1.48635 -2.85254,-2.2686 -1.42879,-1.47702 -2.28384,-3.14782 -2.49752,-4.88083 -0.0732,-0.59291 -0.049,-1.44399 0.0563,-1.97353 0.19723,-0.99153 0.63938,-1.96927 1.26556,-2.79983 0.24331,-0.32273 0.71324,-0.83809 0.68264,-0.74879 -0.01,0.0294 -0.0853,0.20598 -0.16743,0.39223 -0.20583,0.46755 -0.44986,1.22152 -0.53536,1.65313 -0.21736,1.09738 -0.16281,2.22976 0.15916,3.29178 0.42761,1.41051 1.3713,2.88375 2.70319,4.22145 0.76391,0.76723 1.32797,1.22193 2.85874,2.30219 1.23128,0.86894 1.5449,1.10727 2.05207,1.55907 1.13048,1.00707 1.91262,2.28016 2.17558,3.54139 0.0382,0.18348 0.0698,0.37501 0.0698,0.42581 0,0.0576 0.0122,0.0797 0.0331,0.0584 0.0184,-0.0186 0.0533,-0.26841 0.0775,-0.55552 0.14838,-1.75551 -0.45838,-3.32741 -1.83968,-4.7656 -0.48194,-0.50183 -0.87348,-0.8245 -1.90686,-1.57303 -1.03815,-0.75199 -1.2487,-0.92434 -1.76423,-1.44229 -0.6465,-0.64958 -1.09233,-1.32792 -1.37408,-2.09135 -0.11101,-0.30068 -0.22695,-0.74146 -0.20205,-0.76636 0.007,-0.007 0.0919,0.11025 0.18758,0.26148 0.53201,0.83988 1.31752,1.60066 2.24948,2.17868 0.32047,0.19875 0.86764,0.48102 0.86764,0.44752 0,-0.0121 -0.11365,-0.14362 -0.25269,-0.29249 -0.57811,-0.61903 -1.15301,-1.48112 -1.58544,-2.37712 -0.39469,-0.81777 -0.63949,-1.56355 -0.76584,-2.31665 0.1873,0.26202 2.58224,3.0983 2.83126,3.37071 -0.76581,-3.01173 0.25322,-4.09732 1.3106,-4.50087 0.50761,0.44983 1.18891,0.77782 2.01383,0.94981 1.13815,0.23732 1.25496,0.29739 2.24482,1.15135 0.49344,0.42569 1.39136,1.12446 1.99574,1.55288 1.15678,0.81998 1.4939,1.18533 1.66502,1.80505 0.27093,0.98119 1.14506,1.6521 2.15232,1.6521 1.19567,0 2.68864,-0.75594 3.28972,-1.66605 0.44526,-0.67421 0.57736,-1.21778 0.51418,-2.1115 -0.0646,-0.91409 -0.33886,-1.61228 -2.21123,-5.62808 -1.44,-3.08848 -1.66966,-3.65755 -1.9451,-4.81727 -0.28395,-1.19566 -0.46753,-1.54753 -1.55908,-2.98794 -0.49022,-0.64687 -1.18955,-1.60384 -1.55443,-2.12648 l -0.66352,-0.95033 0.26045,-0.46405 c 0.14347,-0.25527 0.61147,-1.05504 1.03973,-1.77716 0.78573,-1.32487 0.91891,-1.7677 0.60926,-2.02468 -0.0721,-0.0598 -0.17311,-0.0871 -0.31832,-0.0765 z m -9.0563,1.30896 c -0.0716,0 -0.76265,0.36204 -1.04076,0.54519 -0.89507,0.58948 -1.56875,1.36231 -3.13521,3.59616 -0.49181,0.70143 -0.48911,0.69446 -0.27595,0.76946 0.18271,0.0644 0.51637,0.0479 0.76842,-0.0382 0.341,-0.11625 0.61843,-0.29465 0.90383,-0.58136 0.31732,-0.31874 0.53448,-0.68404 0.86713,-1.45779 0.55267,-1.28557 0.83498,-1.73874 1.49241,-2.39675 0.2399,-0.24016 0.42913,-0.43667 0.42013,-0.43667 z m 8.24394,8.81652 c 0.0758,10e-4 0.14452,0.0207 0.19534,0.0605 1.06651,0.83507 1.7601,1.59608 1.54512,1.67948 -0.97573,0.37854 -1.55279,-0.0142 -2.01538,-0.47025 -0.75953,-0.74876 -0.13443,-1.27612 0.27492,-1.26969 z m -19.20089,0.32349 c 0,-0.0974 -0.87115,0.73287 -1.08728,1.03612 -0.4856,0.68138 -0.69504,1.28229 -0.69504,1.99677 0,0.7622 0.20817,1.27356 0.94258,2.31614 0.63294,0.89844 0.81703,1.55782 0.72243,2.58382 l -0.0279,0.30283 0.19998,-0.30283 c 0.24156,-0.36608 0.38232,-0.66322 0.50643,-1.06815 0.0829,-0.26815 0.0936,-0.36763 0.0956,-0.83871 0.003,-0.73698 -0.10771,-1.11564 -0.5612,-1.91461 -0.5781,-1.01839 -0.7039,-1.3926 -0.7059,-2.10685 -0.002,-0.61315 0.12395,-1.08337 0.45165,-1.68982 0.0874,-0.16161 0.15865,-0.30381 0.15865,-0.31471 z"/>
  </g>
</svg>
