/* XPM */
const char *about[] = {
/* columns rows colors chars-per-pixel */
"16 16 11 1",
"  c black",
". c #686868",
"X c #9B8800",
"o c #C8B000",
"O c #DBC100",
"+ c #FFE000",
"@ c #FFEC60",
"# c gray75",
"$ c #FFF082",
"% c #FFF6B2",
"& c gray100",
/* pixels */
"#####     ######",
"###  &%%%%  ####",
"##.&$$$$+++o ###",
"# &$@@++++++o ##",
"# $@  +++  ++ ##",
" &$ && + && +o #",
" %$ && + && +o #",
" %$ &. + .& +o #",
" %$+  +++  +Oo #",
" %$++++++++OOX #",
"# $+       Oo ##",
"# $+++   +OOX ##",
"## OOOOOOOoX ###",
"###  ooooX  ####",
"#####     ######",
"################"
};
