/* XPM */
const char *clsall[] = {
/* columns rows colors chars-per-pixel */
"16 16 14 1",
"  c black",
". c #686868",
"X c #3675D0",
"o c #6595DB",
"O c #EF100F",
"+ c #F0403F",
"@ c #F07A78",
"# c #B1B1B1",
"$ c #87ADE3",
"% c #9DBCE8",
"& c #D1D0CF",
"* c #D0D0D0",
"= c #DFDFDF",
"- c #F1F1F0",
/* pixels */
".               ",
" %$$$oooooooooX ",
" .............. ",
" -===========*# ",
" -====  =**  *# ",
" -=== OO * +O # ",
" -*** O@O O@O # ",
" &### O@@O@@O # ",
"...... O@@@O .. ",
" %$$$o O@@@O oX ",
" .... O@@O@@O . ",
" -=== O@O O@O # ",
" -=== OO * OO # ",
" -****  ***  *# ",
" &############# ",
"                "
};
