/* XPM */
const char *compile[] = {
/* columns rows colors chars-per-pixel */
"16 16 77 1",
"  c black",
". c #373737",
"X c #686868",
"o c #5ABD42",
"O c #5CBE44",
"+ c #5FBF46",
"@ c #68C44F",
"# c #68C54F",
"$ c #76CC5B",
"% c #76CC5C",
"& c #7BCF60",
"* c #7CCF61",
"= c #5AA5F7",
"- c #5EA8F7",
"; c #64ABF9",
": c #64ACF9",
"> c #6CB1F9",
", c #6CB0FA",
"< c #74B6FA",
"1 c #7BB9FB",
"2 c #F77331",
"3 c #F77634",
"4 c #F87B39",
"5 c #81D266",
"6 c #94DC78",
"7 c #95DD78",
"8 c #9CE07F",
"9 c #F8803E",
"0 c #F9803E",
"q c #F98644",
"w c #FA8B4A",
"e c #FA8C49",
"r c #FA914F",
"t c #FB9150",
"y c #FB9654",
"u c #FC9C5A",
"i c #FC9D5A",
"p c #FDA260",
"a c #FDA261",
"s c #FEA866",
"d c #FEAD6B",
"f c #FEAE6B",
"g c #FEAE6C",
"h c #FFB16F",
"j c #FFB270",
"k c #FFB573",
"l c #FFFF42",
"z c #FFFF43",
"x c #FFFF45",
"c c #FFFF4C",
"v c #FFFF57",
"b c #FFFF5A",
"n c #FFFF5B",
"m c #FFFF5F",
"M c #FFFF6D",
"N c #FFFF6E",
"B c #FFFF73",
"V c #FFFF74",
"C c gray75",
"Z c #82BEFB",
"A c #82BEFC",
"S c #AFEA90",
"D c #BDF29D",
"F c #89C2FD",
"G c #89C3FD",
"H c #91C7FD",
"J c #91C7FE",
"K c #97CBFE",
"L c #97CBFF",
"P c #98CBFE",
"I c #9CCEFF",
"U c #D6FFB5",
"Y c #FFFF81",
"T c #FFFF82",
"R c #FFFF8C",
"E c #FFFF8D",
"W c #FFFF9F",
/* pixels */
"X..... CCX..... ",
".w9322 CC.++ooo ",
".utq42 CC.%*$@o ",
".fpye9 CC.7875@ ",
".hjsur CC.SDS7% ",
".pgkfp CC.DUD8& ",
"       CC       ",
"CCCCCCCCCCCCCCCC",
"CCCCCCCCCCCCCCCC",
"X..... CCX..... ",
".,:-== CC.zxzzz ",
".Z1<,; CC.vnvcz ",
".LJGZ1 CC.MBMmc ",
".JPILJ CC.TRYMv ",
".1ZGJP CC.RWRBn ",
"       CC       "
};
