/* XPM */
const char *comprun[] = {
/* columns rows colors chars-per-pixel */
"16 16 73 1",
"  c black",
". c #686868",
"X c #418730",
"o c #4DA339",
"O c #52A93C",
"+ c #5ABD42",
"@ c #5CBE44",
"# c #5FBF46",
"$ c #68C44F",
"% c #68C54F",
"& c #76CC5B",
"* c #76CC5C",
"= c #7CCF61",
"- c #4581C0",
"; c #5094DD",
": c #5BA9FC",
"> c #6BA1DA",
", c #6CB0FA",
"< c #74B6FA",
"1 c #7BB9FB",
"2 c #D6642A",
"3 c #F77330",
"4 c #F77331",
"5 c #F77634",
"6 c #F87B39",
"7 c #A8A82B",
"8 c #AEAE2D",
"9 c #A5A55B",
"0 c #81D266",
"q c #94DC78",
"w c #9CE07F",
"e c #F8803E",
"r c #FFA200",
"t c #F98644",
"y c #FA8B4A",
"u c #FA8C49",
"i c #FB9150",
"p c #FB9654",
"a c #FC9C5A",
"s c #FC9D5A",
"d c #FDA260",
"f c #FEA866",
"g c #FEAE6B",
"h c #FFB16F",
"j c #FFB270",
"k c #D3D337",
"l c #D0D073",
"z c #FFFF42",
"x c #FFFF4C",
"c c #FFFF57",
"v c #FFFF5B",
"b c #FFFF5F",
"n c #FFFF6D",
"m c #FFFF6E",
"M c #FFFF73",
"N c gray75",
"B c #82BEFB",
"V c #82BEFC",
"C c #AFEA90",
"Z c #BDF29D",
"A c #89C3FD",
"S c #91C7FD",
"D c #91C7FE",
"F c #97CBFE",
"G c #97CBFF",
"H c #98CBFE",
"J c #9CCEFF",
"K c #BDDEFF",
"L c #FFB581",
"P c #FFC491",
"I c #FFC797",
"U c #FFFF81",
"Y c #FFFF8D",
/* pixels */
"NNNNNNNNNNNNNNNN",
"N.             N",
"N rrrrrrrrrrrr N",
"N .            N",
"N Lye542O@@++o N",
"N Iait62O=&%+o N",
"N Igdpu2OCq0%o N",
"N Phjfa2OCCq*o N",
"N 422222OOOOOX N",
"N :;;;;;kkkkk7 N",
"N KV1<,;kvcxzl N",
"N KFSAB;kMnbxl N",
"N KSHJF;kYUncl N",
"N 1>>>>-8llll9 N",
"N              N",
"NNNNNNNNNNNNNNNN"
};
