/* XPM */
const char *help[] = {
/* columns rows colors chars-per-pixel */
"16 16 7 1",
"  c black",
". c #686868",
"X c #FFD048",
"o c #FFD459",
"O c #FFDC75",
"+ c gray75",
"@ c #FFF5D6",
/* pixels */
"+++++      +++++",
"++++ @@@@@@ ++++",
"+++ @OOOOOOO +++",
"++.@oX   OoX +++",
"++ OX +++ OX +++",
"+++  +++ OoX +++",
"+++++++ OoX ++++",
"++++++.OoX +++++",
"+++++ @XX ++++++",
"+++++ OX +++++++",
"++++++   +++++++",
"++++++++++++++++",
"++++++   +++++++",
"+++++.@O +++++++",
"+++++ OX +++++++",
"++++++  ++++++++"
};
