/* XPM */
const char *homepg[] = {
/* columns rows colors chars-per-pixel */
"16 16 12 1",
"  c black",
". c #3D92FF",
"X c #61A7FF",
"o c #71B0FF",
"O c #DBB600",
"+ c #FFA125",
"@ c #FFBB60",
"# c #FFD300",
"$ c #FFE45D",
"% c gray75",
"& c #99C5FF",
"* c #B5D5FF",
/* pixels */
"%%%%%%%%%%%%%%%%",
"%%%%%      %%%%%",
"%%%% *&&&&& %%%%",
"%%% &ooooooo %%%",
"%% &ooooooooX %%",
"% &oo.    oooX %",
" *oo. OOOO oXX. ",
" &o. O##### X.. ",
" &. O####### .. ",
"%  O##    ##O  %",
"%%% $# @@ #O %%%",
"%%% $# @@ #O %%%",
"%%% $# @@ #O %%%",
"%%% #O ++ OO %%%",
"%%%          %%%",
"%%%%%%%%%%%%%%%%"
};
