/* XPM */
const char *projopt[] = {
/* columns rows colors chars-per-pixel */
"16 16 12 1",
"  c black",
". c #64461F",
"X c #686868",
"o c #805A00",
"O c #C88E00",
"+ c #FF9E00",
"@ c #FFBB4C",
"# c #FFCE7D",
"$ c gray75",
"% c #FFD796",
"& c #FFEBC8",
"* c gray100",
/* pixels */
"$              $",
"X&%%%%%%%%%%%%@ ",
" %###########@O ",
" %#@@      @@+O ",
" %#@ ****** @+O ",
" %#@@      @@+O ",
" %#@@@@@@@@@@+O ",
" %#@@      @@+O ",
" %#@ ****** @+O ",
" %#@@      @@+O ",
" %#@@@@@@@@@@+o ",
"$ #@@@@@@@@@+. $",
"$ #@@@@@@@+++o $",
"$$ +++++++OOo $$",
"$$$  OOOOOo  $$$",
"$$$$$      $$$$$"
};
