/* XPM */
const char *remsrc[] = {
/* columns rows colors chars-per-pixel */
"16 16 17 1",
"  c black",
". c gray6",
"X c #2F2F2F",
"o c #353535",
"O c #656565",
"+ c #686868",
"@ c #3FB000",
"# c gray59",
"$ c #B2B2B2",
"% c gray72",
"& c gray75",
"* c #8FFF8F",
"= c gray81",
"- c #D0D0D0",
"; c #DFDFDF",
": c #F3F3F3",
"> c gray100",
/* pixels */
"&&&&+           ",
"&&&& >::::::::;X",
"&&&& :;;;;;;;;%X",
"&&&& :;OO;O;O-%X",
"&&&& :;;;;;;;-%X",
"&+oooooooo;OO-%X",
"+@@@@@@@@@.---%X",
"o@*******@.$O-%X",
"o@@@@@@@@@.$--%X",
"&.........$OO-%X",
"&&&& $$$$$---=%X",
"&&&& :;OO-O-O=%X",
"&&&& :-----=-=%X",
"&&&& :----====%X",
"&&&& -%%%%%%%%#X",
"&&&& XXXXXXXXXX "
};
