/* XPM */
const char *save[] = {
/* columns rows colors chars-per-pixel */
"16 16 119 2",
"   c #6A6B6D",
".  c #6B6B6C",
"X  c #6B6C6C",
"o  c #6A6C6E",
"O  c #6B6C6E",
"+  c #6B6C6F",
"@  c #6B6D6F",
"#  c #6C6C6C",
"$  c #6C6D6F",
"%  c #6D6D6E",
"&  c gray43",
"*  c #6C6D70",
"=  c #6D6E70",
"-  c #6D6F70",
";  c #6D6F71",
":  c #6F7072",
">  c #6F7073",
",  c #6F7173",
"<  c #707173",
"1  c #767676",
"2  c #7E7E7E",
"3  c #3B679E",
"4  c #3465A4",
"5  c #3565A4",
"6  c #3566A4",
"7  c #3666A5",
"8  c #3667A6",
"9  c #3768A7",
"0  c #3868A5",
"q  c #3C68A0",
"w  c #5777AD",
"e  c #5979AF",
"r  c #547BB3",
"t  c #5A7BB2",
"y  c #5C7DB4",
"u  c #6A788D",
"i  c #677790",
"p  c #5E80B5",
"a  c #5C82BC",
"s  c #6082B7",
"d  c #6282B5",
"f  c #6284B9",
"g  c #6884B3",
"h  c #6987BA",
"j  c #6E8CBD",
"k  c #7B95BF",
"l  c #628AC3",
"z  c #7390C1",
"x  c #7895C4",
"c  c #7C99C7",
"v  c #D31C00",
"b  c #D41F03",
"n  c #E47463",
"m  c #E47564",
"M  c #E57766",
"N  c #E57968",
"B  c #E57B6B",
"V  c #E67D6D",
"C  c #E67F6F",
"Z  c #E68171",
"A  c #E78273",
"S  c #E78475",
"D  c #E88677",
"F  c #E88879",
"G  c #818181",
"H  c gray51",
"J  c gray52",
"K  c #868686",
"L  c #898989",
"P  c #8D8D8D",
"I  c #909090",
"U  c gray58",
"Y  c #989898",
"T  c #9B9B9B",
"R  c #A0A0A0",
"E  c gray64",
"W  c #A4A4A4",
"Q  c gray65",
"!  c #AAAAAA",
"~  c gray67",
"^  c #AEAEAE",
"/  c gray69",
"(  c #B1B1B1",
")  c #B2B2B2",
"_  c #B6B6B6",
"`  c #B7B7B7",
"'  c #BBBBBB",
"]  c gray74",
"[  c gray",
"{  c #809DCA",
"}  c #84A0CC",
"|  c #84A1CD",
" . c #89A5D0",
".. c #8AA5D0",
"X. c #8CA8D1",
"o. c #8EA9D3",
"O. c #91ACD4",
"+. c #91ADD5",
"@. c #95AFD7",
"#. c #96B1D8",
"$. c #98B3D9",
"%. c #99B4DA",
"&. c #9DB7DB",
"*. c #9EB8DD",
"=. c #A0BADE",
"-. c #A3BDE0",
";. c #A7C0E2",
":. c #ABC3E3",
">. c #AEC6E6",
",. c #B1C8E7",
"<. c #EDA297",
"1. c #EDA398",
"2. c #C0C0C0",
"3. c gray76",
"4. c #C5C5C5",
"5. c gray79",
"6. c gray87",
"7. c gray99",
"8. c gray100",
/* pixels */
"9 4 4 4 4 4 4 4 4 4 4 4 4 4 4 4 ",
"4 ,.F D S Z Z C V B N m m n -.4 ",
"4 >.b v v v v v v v v v v v *.4 ",
"4 :.1.<.<.<.<.<.1.1.<.<.1.1.#.4 ",
"4 ;.8.8.8.8.8.8.8.8.8.8.8.8.#.4 ",
"4 -.8.6.6.6.6.6.6.6.6.6.6.8.+.4 ",
"4 =.8.8.8.8.8.8.8.8.8.8.8.8.o.4 ",
"4 &.8.6.6.6.6.6.6.6.6.6.6.7. .4 ",
"4 #.8.8.8.8.8.8.8.8.8.8.8.8.| 4 ",
"4 @.l u * * * % * * : * i a { 4 ",
"4 +.f % ~ / _ ' 2.2.] / % y c 4 ",
"4 o.s , ] % % 4.] _ ^ Q % t x 4 ",
"4 ..p , 5.# # / ~ E T U % t j 4 ",
"4 } s , ` O # R Y I L H * w j 4 ",
"0 r k , Q J H P J 2 1 % % g h 4 ",
"4 4 3 # * O O O O       O 3 0 4 "
};
