/* XPM */
const char *srchrep[] = {
/* columns rows colors chars-per-pixel */
"16 16 99 2",
"   c black",
".  c #4C4226",
"X  c #6B5736",
"o  c #705B39",
"O  c #6D6F6B",
"+  c #6E706D",
"@  c #737470",
"#  c #7D7F7B",
"$  c #7FA7D1",
"%  c #8F5902",
"&  c #89806A",
"*  c #82847F",
"=  c #A18355",
"-  c #A08356",
";  c #A08457",
":  c #A38555",
">  c #A48757",
",  c #C89F64",
"<  c #CFAA69",
"1  c #CFAD71",
"2  c #D2AC6A",
"3  c #818380",
"4  c #848482",
"5  c #858782",
"6  c #858783",
"7  c #868883",
"8  c #878984",
"9  c #888A85",
"0  c #898B86",
"q  c #8B8D88",
"w  c #8C8E89",
"e  c #8D8F8A",
"r  c #8D8E8C",
"t  c #959693",
"y  c #B3A996",
"u  c #A3A4A3",
"i  c #A2AEBB",
"p  c #B0B1AF",
"a  c #B8B8B7",
"s  c #84A8CF",
"d  c #80A5D0",
"f  c #88AAD0",
"g  c #8AACD1",
"h  c #8DB1D8",
"j  c #90ACCB",
"k  c #97B0CB",
"l  c #94B0CE",
"z  c #91B3D6",
"x  c #97B5D3",
"c  c #99B4D1",
"v  c #9FB8D1",
"b  c #9BB9D9",
"n  c #A7B5C2",
"m  c #A7B7C8",
"M  c #A7B9CC",
"N  c #AEBAC8",
"B  c #A2B8D0",
"V  c #A2BAD4",
"C  c #A2BFDF",
"Z  c #A6BED8",
"A  c #A4C0DE",
"S  c #A8C1DC",
"D  c #B3C8DD",
"F  c #BBD0E6",
"G  c #BBD0E8",
"H  c #C2AB8A",
"J  c #CCC1AF",
"K  c gray76",
"L  c #C7C7C6",
"P  c #CBCBCA",
"I  c #D1D2D0",
"U  c #C3D5EA",
"Y  c #C5D7EA",
"T  c #CADAEC",
"R  c #CDDCEE",
"E  c #D9E4F1",
"W  c #DCE6F2",
"Q  c #DDE7F2",
"!  c #DEE8F3",
"~  c #E7DCCA",
"^  c #EDE5C4",
"/  c #EDE6C5",
"(  c #EEEAC6",
")  c #EFEBC7",
"_  c #E2E2E2",
"`  c gray90",
"'  c #E9E9E9",
"]  c #EAEAEA",
"[  c #EEEEED",
"{  c #EFEFEE",
"}  c #EFEFEF",
"|  c #E4ECF5",
" . c #F0F0EF",
".. c gray97",
"X. c #FAFAF9",
"o. c #FEFEFD",
"O. c #FEFEFE",
"+. c gray100",
"@. c gray75",
/* pixels */
"@.@.@.+ 3 3 3 + @.@.@.@.@.@.@.@.",
"@.@.@ 3 N V M 3 @ @.@.@.@.@.@.@.",
"@.O 3 m f Y b j 3 6 0 0 0 w @.@.",
"@.3 i s Q | T h k 3 +.+.+.0 @.@.",
"@.3 B A E Q U C d 3  . .+.% % % ",
"@.3 n f G R ! S l 3 L  .% ( 1 % ",
"@.@ 3 v z F Z x 3 I  .% ( 2 = % ",
"@.4 u 3 D $ c 3 t L % ( 2 > % % ",
"3 u a w 3 3 * p  .% / < = % % @.",
"4 a r +.{ L L L % / , = % & @.@.",
"@.r 0 +. . . .{ o H > % ~ 0 @.@.",
"@.@.0 +. . .{ % . X % J { 3 @.@.",
"@.@.0 X. . .{   % y K P _ # @.@.",
"@.@.0 +.+.+.+...] _ ` ] { * @.@.",
"@.@.w 0 0 0 0 6 7 4 7 7 7 q @.@.",
"@.@.@.@.@.@.@.@.@.@.@.@.@.@.@.@."
};
