/* XPM */
const char *tools[] = {
/* columns rows colors chars-per-pixel */
"16 16 11 1",
"  c black",
". c #686868",
"X c #8A8A52",
"o c #9F9F5F",
"O c #B4B46B",
"+ c #D0D07C",
"@ c #838383",
"# c gray63",
"$ c gray75",
"% c #C6C6C6",
"& c gray100",
/* pixels */
"$$$$      $   $$",
"$$$ &%%%%% %# $$",
"$$ &@@####%#@ $$",
"$.%   @@@@@@@ $$",
"$  $$$      @ $$",
"$$$$$$ +O $   $$",
"$$$$$$ Oo $$$$$$",
"$$$$$$ Oo $$$$$$",
"$$$$$$ Oo $$$$$$",
"$$$$$$ Oo $$$$$$",
"$$$$$$ Oo $$$$$$",
"$$$$$$ Oo $$$$$$",
"$$$$$$ Oo $$$$$$",
"$$$$$$ Oo $$$$$$",
"$$$$$$ oX $$$$$$",
"$$$$$$    $$$$$$"
};
