/* XPM */
const char *undo[] = {
"16 16 51 1",
" 	c None",
".	c #BFBFBF",
"+	c #C4A000",
"@	c #BF9D00",
"#	c #FBF3AD",
"$	c #FBE425",
"%	c #BEA113",
"&	c #BB9F15",
"*	c #BBA11B",
"=	c #F6E131",
"-	c #FAE320",
";	c #FAEC73",
">	c #FAEB6F",
",	c #F7E86E",
"'	c #BCA114",
")	c #C1A314",
"!	c #F6E02F",
"~	c #F8E232",
"{	c #F1DB29",
"]	c #E3CD16",
"^	c #ECD936",
"/	c #F6E769",
"(	c #E3CE41",
"_	c #E8D21D",
":	c #FBED79",
"<	c #D6C004",
"[	c #DFC80B",
"}	c #F3E56A",
"|	c #C5AB1B",
"1	c #FBED76",
"2	c #F9EA69",
"3	c #F7DD05",
"4	c #DFC80A",
"5	c #EBDC6F",
"6	c #BFA31B",
"7	c #C4A901",
"8	c #EEE16E",
"9	c #F2E469",
"0	c #F5E66D",
"a	c #EFE276",
"b	c #C1A319",
"c	c #C8AC02",
"d	c #F2E788",
"e	c #C2A211",
"f	c #CBAA0E",
"g	c #E9DA5D",
"h	c #C0A623",
"i	c #DBC443",
"j	c #D8C543",
"k	c #EADB66",
"l	c #C3A618",
"......+.........",
"....@++.........",
"....+#+.........",
"...+#$++%&*.....",
"..+#=-;>,,')....",
".+#!~{!{]^/()...",
"+#!~==!{___^('..",
".+:~!<<<___[}|'.",
"..+1<1222234<56.",
"...+11++++78]96.",
"....+1+....+0ab.",
".....++.....cde.",
"......+.....fgh.",
"...........+ijh.",
"...........+k)..",
"...........l|+.."};
