/* XPM */
const char *update[] = {
/* columns rows colors chars-per-pixel */
"16 16 8 1",
"  c black",
". c gray25",
"X c #686868",
"o c #C8B000",
"O c #D3BA00",
"+ c #FFE000",
"@ c gray75",
"# c gray100",
/* pixels */
"@@@@@@@@@@@@@@@@",
"@@@@@@@@@@@@@@@@",
"@@@@  @@@@@@@@@@",
"@@@ ++.@@@@@@@@@",
"@@@ +o.@@@  @@@@",
"@  X+o... ++ @@@",
" +++#++++.Oo @@@",
" +oo+oooo.Oo   @",
"@   +o   O+++++ ",
"@@@ +o Ooo+oooo ",
"@@@ +o    +o   @",
"@@@@  @@@ +o @@@",
"@@@@@@@@@ +o @@@",
"@@@@@@@@@@  @@@@",
"@@@@@@@@@@@@@@@@",
"@@@@@@@@@@@@@@@@"
};
